<mxfile host="app.diagrams.net" agent="Mozilla/5.0 (Windows NT 10.0; Win64; x64) AppleWebKit/537.36 (KHTML, like Gecko) Chrome/138.0.0.0 Safari/537.36" version="28.0.7" pages="2">
  <diagram name="DA" id="PhShlcQv9JYr37RNui07">
    <mxGraphModel dx="1280" dy="1535" grid="1" gridSize="10" guides="1" tooltips="1" connect="1" arrows="1" fold="1" page="1" pageScale="1" pageWidth="827" pageHeight="1169" math="0" shadow="0">
      <root>
        <mxCell id="0" />
        <mxCell id="1" parent="0" />
        <mxCell id="cy1oQO3DxAkA0THGuxHd-1" value="Actor" style="shape=umlActor;verticalLabelPosition=bottom;verticalAlign=top;html=1;" parent="1" vertex="1">
          <mxGeometry x="30" y="496" width="30" height="60" as="geometry" />
        </mxCell>
        <mxCell id="cy1oQO3DxAkA0THGuxHd-8" style="edgeStyle=none;curved=1;rounded=0;orthogonalLoop=1;jettySize=auto;html=1;exitX=1;exitY=0.5;exitDx=0;exitDy=0;exitPerimeter=0;entryX=0;entryY=0.75;entryDx=0;entryDy=0;fontSize=12;startSize=8;endSize=8;" parent="1" source="cy1oQO3DxAkA0THGuxHd-2" target="cy1oQO3DxAkA0THGuxHd-5" edge="1">
          <mxGeometry relative="1" as="geometry" />
        </mxCell>
        <mxCell id="cy1oQO3DxAkA0THGuxHd-12" style="edgeStyle=none;curved=1;rounded=0;orthogonalLoop=1;jettySize=auto;html=1;fontSize=12;startSize=8;endSize=8;" parent="1" source="cy1oQO3DxAkA0THGuxHd-2" edge="1">
          <mxGeometry relative="1" as="geometry">
            <mxPoint x="580" y="610" as="targetPoint" />
          </mxGeometry>
        </mxCell>
        <mxCell id="cy1oQO3DxAkA0THGuxHd-2" value="API Gateway" style="outlineConnect=0;dashed=0;verticalLabelPosition=bottom;verticalAlign=top;align=center;html=1;shape=mxgraph.aws3.internet_gateway;fillColor=#F58536;gradientColor=none;" parent="1" vertex="1">
          <mxGeometry x="230" y="490" width="69" height="72" as="geometry" />
        </mxCell>
        <mxCell id="cy1oQO3DxAkA0THGuxHd-3" value="Auth Server" style="outlineConnect=0;dashed=0;verticalLabelPosition=bottom;verticalAlign=top;align=center;html=1;shape=mxgraph.aws3.add_on;fillColor=#759C3E;gradientColor=none;" parent="1" vertex="1">
          <mxGeometry x="239.75" y="670" width="49.5" height="27" as="geometry" />
        </mxCell>
        <mxCell id="cy1oQO3DxAkA0THGuxHd-4" style="edgeStyle=none;curved=1;rounded=0;orthogonalLoop=1;jettySize=auto;html=1;entryX=0.5;entryY=0.26;entryDx=0;entryDy=0;entryPerimeter=0;fontSize=12;startSize=8;endSize=8;" parent="1" source="cy1oQO3DxAkA0THGuxHd-2" target="cy1oQO3DxAkA0THGuxHd-3" edge="1">
          <mxGeometry relative="1" as="geometry" />
        </mxCell>
        <mxCell id="cy1oQO3DxAkA0THGuxHd-5" value="Product Service" style="image;aspect=fixed;perimeter=ellipsePerimeter;html=1;align=center;shadow=0;dashed=0;fontColor=#4277BB;labelBackgroundColor=default;fontSize=12;spacingTop=3;image=img/lib/ibm/applications/microservice.svg;" parent="1" vertex="1">
          <mxGeometry x="430" y="390" width="82.2" height="60" as="geometry" />
        </mxCell>
        <mxCell id="cy1oQO3DxAkA0THGuxHd-6" value="Mongo DB" style="points=[];aspect=fixed;html=1;align=center;shadow=0;dashed=0;fillColor=#FF6A00;strokeColor=none;shape=mxgraph.alibaba_cloud.mongodb;" parent="1" vertex="1">
          <mxGeometry x="482.6" y="362.6" width="47.400000000000006" height="47.400000000000006" as="geometry" />
        </mxCell>
        <mxCell id="cy1oQO3DxAkA0THGuxHd-13" style="edgeStyle=none;curved=1;rounded=0;orthogonalLoop=1;jettySize=auto;html=1;entryX=0;entryY=0.5;entryDx=0;entryDy=0;fontSize=12;startSize=8;endSize=8;" parent="1" source="cy1oQO3DxAkA0THGuxHd-9" target="cy1oQO3DxAkA0THGuxHd-10" edge="1">
          <mxGeometry relative="1" as="geometry" />
        </mxCell>
        <mxCell id="cy1oQO3DxAkA0THGuxHd-14" style="edgeStyle=none;curved=1;rounded=0;orthogonalLoop=1;jettySize=auto;html=1;entryX=0;entryY=0.5;entryDx=0;entryDy=0;fontSize=12;startSize=8;endSize=8;" parent="1" source="cy1oQO3DxAkA0THGuxHd-9" target="cy1oQO3DxAkA0THGuxHd-11" edge="1">
          <mxGeometry relative="1" as="geometry" />
        </mxCell>
        <mxCell id="cy1oQO3DxAkA0THGuxHd-9" value="Order Service" style="image;aspect=fixed;perimeter=ellipsePerimeter;html=1;align=center;shadow=0;dashed=0;fontColor=#4277BB;labelBackgroundColor=default;fontSize=12;spacingTop=3;image=img/lib/ibm/applications/microservice.svg;" parent="1" vertex="1">
          <mxGeometry x="590" y="572" width="82.2" height="60" as="geometry" />
        </mxCell>
        <mxCell id="cy1oQO3DxAkA0THGuxHd-10" value="Notification Service" style="image;aspect=fixed;perimeter=ellipsePerimeter;html=1;align=center;shadow=0;dashed=0;fontColor=#4277BB;labelBackgroundColor=default;fontSize=12;spacingTop=3;image=img/lib/ibm/applications/microservice.svg;" parent="1" vertex="1">
          <mxGeometry x="1040" y="477" width="82.2" height="60" as="geometry" />
        </mxCell>
        <mxCell id="cy1oQO3DxAkA0THGuxHd-11" value="Inventory Service" style="image;aspect=fixed;perimeter=ellipsePerimeter;html=1;align=center;shadow=0;dashed=0;fontColor=#4277BB;labelBackgroundColor=default;fontSize=12;spacingTop=3;image=img/lib/ibm/applications/microservice.svg;" parent="1" vertex="1">
          <mxGeometry x="1040" y="667" width="82.2" height="60" as="geometry" />
        </mxCell>
        <mxCell id="cy1oQO3DxAkA0THGuxHd-15" value="Async Communucation" style="text;html=1;align=center;verticalAlign=middle;whiteSpace=wrap;rounded=0;" parent="1" vertex="1">
          <mxGeometry x="750" y="490" width="160" height="30" as="geometry" />
        </mxCell>
        <mxCell id="cy1oQO3DxAkA0THGuxHd-16" value="Sync Communucation" style="text;html=1;align=center;verticalAlign=middle;whiteSpace=wrap;rounded=0;" parent="1" vertex="1">
          <mxGeometry x="740" y="690" width="160" height="30" as="geometry" />
        </mxCell>
        <mxCell id="cy1oQO3DxAkA0THGuxHd-17" value="kafka" style="sketch=0;points=[[0,0,0],[0.25,0,0],[0.5,0,0],[0.75,0,0],[1,0,0],[0,1,0],[0.25,1,0],[0.5,1,0],[0.75,1,0],[1,1,0],[0,0.25,0],[0,0.5,0],[0,0.75,0],[1,0.25,0],[1,0.5,0],[1,0.75,0]];outlineConnect=0;fontColor=#232F3E;fillColor=#8C4FFF;strokeColor=#ffffff;dashed=0;verticalLabelPosition=bottom;verticalAlign=top;align=center;html=1;fontSize=12;fontStyle=0;aspect=fixed;shape=mxgraph.aws4.resourceIcon;resIcon=mxgraph.aws4.managed_streaming_for_kafka;" parent="1" vertex="1">
          <mxGeometry x="791" y="410" width="49" height="49" as="geometry" />
        </mxCell>
        <mxCell id="cy1oQO3DxAkA0THGuxHd-21" value="" style="image;html=1;image=img/lib/clip_art/networking/Email_128x128.png" parent="1" vertex="1">
          <mxGeometry x="1100" y="399" width="60" height="60" as="geometry" />
        </mxCell>
        <mxCell id="cy1oQO3DxAkA0THGuxHd-23" value="" style="swimlane;startSize=0;" parent="1" vertex="1">
          <mxGeometry x="360" y="340" width="850" height="460" as="geometry" />
        </mxCell>
        <mxCell id="cy1oQO3DxAkA0THGuxHd-18" value="" style="image;aspect=fixed;html=1;points=[];align=center;fontSize=12;image=img/lib/azure2/databases/Azure_Database_MySQL_Server.svg;" parent="cy1oQO3DxAkA0THGuxHd-23" vertex="1">
          <mxGeometry x="276.95000000000005" y="227" width="35.25" height="47" as="geometry" />
        </mxCell>
        <mxCell id="cy1oQO3DxAkA0THGuxHd-19" value="" style="image;aspect=fixed;html=1;points=[];align=center;fontSize=12;image=img/lib/azure2/databases/Azure_Database_MySQL_Server.svg;" parent="cy1oQO3DxAkA0THGuxHd-23" vertex="1">
          <mxGeometry x="720" y="308.67" width="40" height="53.33" as="geometry" />
        </mxCell>
        <mxCell id="cy1oQO3DxAkA0THGuxHd-25" value="Eureka" style="image;aspect=fixed;perimeter=ellipsePerimeter;html=1;align=center;shadow=0;dashed=0;fontColor=#4277BB;labelBackgroundColor=default;fontSize=12;spacingTop=3;image=img/lib/ibm/applications/microservice.svg;" parent="1" vertex="1">
          <mxGeometry x="299" y="850" width="82.2" height="60" as="geometry" />
        </mxCell>
        <mxCell id="cy1oQO3DxAkA0THGuxHd-26" value="Config Server" style="image;aspect=fixed;perimeter=ellipsePerimeter;html=1;align=center;shadow=0;dashed=0;fontColor=#4277BB;labelBackgroundColor=default;fontSize=12;spacingTop=3;image=img/lib/ibm/applications/microservice.svg;" parent="1" vertex="1">
          <mxGeometry x="447.8" y="850" width="82.2" height="60" as="geometry" />
        </mxCell>
        <mxCell id="cy1oQO3DxAkA0THGuxHd-27" value="GitHub" style="shape=image;html=1;verticalAlign=top;verticalLabelPosition=bottom;labelBackgroundColor=#ffffff;imageAspect=0;aspect=fixed;image=https://icons.diagrams.net/icon-cache1/Miu_Black_Social-2261/github-1223.svg" parent="1" vertex="1">
          <mxGeometry x="500" y="830" width="40" height="40" as="geometry" />
        </mxCell>
        <mxCell id="cy1oQO3DxAkA0THGuxHd-31" value="" style="swimlane;startSize=0;" parent="1" vertex="1">
          <mxGeometry x="200" y="310" width="1050" height="670" as="geometry" />
        </mxCell>
        <mxCell id="1OxyPD9P7bJ1MePkjYkZ-1" value="" style="shape=image;verticalLabelPosition=bottom;labelBackgroundColor=default;verticalAlign=top;aspect=fixed;imageAspect=0;image=data:image/png,iVBORw0KGgoAAAANSUhEUgAABLAAAAJJCAYAAAC6bM4kAAAAAXNSR0IArs4c6QAAIABJREFUeF7s3QecFFX2NuD3VofJM8zAkHNUUBAxYcKcw+q65pzFBIKgggqYs+tf3dVVV9ew5rTmnHNWQEHJIBkmh+6u+33ndlfTM0zonljd89ZvWQQ6VD11O9Q7556rtNYa3ChAAQpQgAIUoAAFKEABClCAAhSgAAUo4FIBxQDLpWeGu0UBClCAAhSgAAUoQAEKUIACFKAABShgBBhgcSBQgAIUoAAFKEABClCAAhSgAAUoQAEKuFqAAZarTw93jgIUoAAFKEABClCAAhSgAAUoQAEKUIABFscABShAAQpQgAIUoAAFKEABClCAAhSggKsFGGC5+vRw5yhAAQpQgAIUoAAFKEABClCAAhSgAAUYYHEMUIACFKAABShAAQpQgAIUoAAFKEABCrhagAGWq08Pd44CFKAABShAAQpQgAIUoAAFKEABClCAARbHAAUoQAEKUIACFKAABShAAQpQgAIUoICrBRhgufr0cOcoQAEKUIACFKAABShAAQpQgAIUoAAFGGBxDFCAAhSgAAUoQAEKUIACFKAABShAAQq4WoABlqtPD3eOAhSgAAUoQAEKUIACFKAABShAAQpQgAEWxwAFKEABClCAAhSgAAUoQAEKUIACFKCAqwUYYLn69HDnKEABClCAAhSgAAUoQAEKUIACFKAABRhgcQxQgAIUoAAFKEABClCAAhSgAAUoQAEKuFqAAZarTw93jgIUoAAFKEABClCAAhSgAAUoQAEKUIABFscABShAAQpQgAIUoAAFKEABClCAAhSggKsFGGC5+vRw5yhAAQpQgAIUoAAFKEABClCAAhSgAAUYYHEMUIACFKAABShAAQpQgAIUoAAFKEABCrhagAGWq08Pd44CFKAABShAAQpQgAIUoAAFKEABClCAARbHAAUoQAEKUIACFKAABShAAQpQgAIUoICrBRhgufr0cOcoQAEKUIACFKAABShAAQpQgAIUoAAFGGBxDFCAAhSgAAUoQAEKUIACFKAABShAAQq4WoABlqtPD3eOAhSgAAUoQAEKUIACFKAABShAAQpQgAEWxwAFKEABClCAAhSgAAUoQAEKUIACFKCAqwUYYLn69HDnKEABClCAAhSgAAUoQAEKUIACFKAABRhgcQxQgAIUoAAFKEABClCAAhSgAAUoQAEKuFqAAZarTw93jgIUoAAFKEABClCAAhSgAAUoQAEKUIABFscABShAAQpQgAIUoAAFKEABClCAAhSggKsFGGC5+vRw5yhAAQpQgAIUoAAFKEABClCAAhSgAAUYYHEMUIACFKAABShAAQpQgAIUoAAFKEABCrhagAGWq08Pd44CFKAABShAAQpQgAIUoAAFKEABClCAARbHAAUoQAEKUIACFKAABShAAQpQgAIUoICrBRhgufr0cOcoQAEKUIACFKAABShAAQpQgAIUoAAFGGBxDFCAAhSgAAUoQAEKUIACFKAABShAAQq4WoABlqtPD3eOAhSgAAUoQAEKUIACFKAABShAAQpQgAEWxwAFKEABClCAAhSgAAUoQAEKUIACFKCAqwUYYLn69HDnKEABClCAAhSgAAUoQAEKUIACFKAABRhgcQxQgAIUoAAFKEABClCAAhSgAAUoQAEKuFqAAZarTw93jgIUoAAFKEABClCAAhSgAAUoQAEKUIABFscABShAAQpQgAIUoAAFKEABClCAAhSggKsFGGC5+vRw5yhAAQpQgAIUoAAFKEABClCAAhSgAAUYYHEMUIACFKAABShAAQpQgAIUoAAFKEABCrhagAGWq08Pd44CFKAABShAAQpQgAIUoAAFKEABClCAARbHAAUoQAEKUIACFKAABShAAQpQgAIUoICrBRhgufr0cOcoQAEKUIACFKAABShAAQpQgAIUoAAFGGBxDFCAAhSgAAUoQAEKUIACFKAABShAAQq4WoABlqtPD3eOAhSgAAUoQAEKUIACFKAABShAAQpQgAEWxwAFKEABClCAAhSgAAUoQAEKUIACFKCAqwUYYLn69HDnKEABClCAAhSgAAUoQAEKUIACFKAABRhgcQxQgAIUoAAFKEABClCAAhSgAAUoQAEKuFqAAZarTw93jgIUoAAFKEABClCAAhSgAAUoQAEKUIABFscABShAAQpQgAIUoAAFKEABClCAAhSggKsFGGC5+vRw5yhAAQpQgAIUoAAFKEABClCAAhSgAAUYYHEMUIACFKAABShAAQpQgAIUoAAFKEABCrhagAGWq08Pd44CFKAABShAAQpQgAIUoAAFKEABClCAARbHAAUoQAEKUIACFKAABShAAQpQgAIUoICrBRhgufr0cOcoQAEKUIACFKAABShAAQpQgAIUoAAFGGBxDFCAAhSgAAUoQAEKUIACFKAABShAAQq4WoABlqtPD3eOAhSgAAUoQAEKUIACFKAABShAAQpQgAEWxwAFOoiA1hpKqejROn+W350t9t/rYom9T2O37SCsPEwKUIACFKAABShAAQpQgAIUaAMBBlhtgMynoEBbCdQOqWo/b2P/nsh+xgZfsfeTYMv5t7oCs0Seg7elAAUoQAEKUIACFKAABShAAQqIAAMsjgMKJLlAXWFR7CG1ZGiVCFV7PW8i+8jbUoACFKAABShAAQpQgAIUoEByCDDASo7zxL2kQFQgNhhK1pCosdCNp5sCFKAABShAAQpQgAIUoAAFKBArwACL44ECFGgXgWQN39oFi09KAQpQgAIUoAAFKEABClCggwswwOrgA4CHTwE3CTDUctPZ4L5QgAIUoAAFKEABClCAAhRwjwADLPecC+4JBYxAR55exwCLLwIKUIACFKAABShAAQpQgAIUqEuAARbHBQUoQAEKUIACFKAABShAAQpQgAIUoICrBRhgufr0cOc6okBHrsCK53yzSiseJd6GAhSgAAUoQAEKUIACFKBAagkwwEqt88mjSTIBhlWJnzCaJW7Ge1CAAhSgAAUoQAEKUIACFEh2AQZYyX4Guf9JL9BWgYzzPJuDafNXWn5T8l/m/2I2DWgFpcK32/zfI39b531b/vSwAqvlTfmIFKAABShAAQpQgAIUoAAF3C7AAMvtZ4j7R4EEBZygavPAKhxAKRNQhQBdAdiV4V/y37ChdUiirFrPKOGVB4AHUGmAlRH+pdIB5Yk2nXfCLVVHkKXCf8mNAhSgAAUoQAEKUIACFKAABSjQJAEGWE1i450o4B4BUzllQqdwCZXWdiSmCgChIiBUDAQ3QFevAILLgOBqaPn7oPxbEWAXQdkl0LoK0AETZNXcLED5w7+sHMDKA7x5gKcTlEf+uxvg6wX4egDefChPLuDJhYbf7JNSVnTfwuFZvUVcTUZlVVaT6XhHClCAAhSgAAUoQAEKUIACSSHAACspThN3MhkFYqcGtmjAonV4up+JhcLBVbTCya4CKubCLv/U/K6rlwKh5VB2KWAHAV0JoApANZT2mvvaCEBmByrLCZrq0NYSPMX+klmFQQBp4V9KqrK8sK1sKE8vKF8fqMwRQPbOUOlbAspn8rXw/kZiLLXp9+ae3xb1be7O8P4UoAAFKEABClCAAhSgAAUo0OICDLBanJQPSIHWETAhTSS0MuGYluCpEgiuga76A7rkA6DsQ+jAciBUAqVCUDLtT6YLOtFRtI9VC+6jVpFYSh5T9tADbaYo+qE9WVC+nkDWnrByxgHpgwBvYXgqInyAmVrYckFWCx4VH4oCFKAABShAAQpQgAIUoAAFXCTAAMtFJ4O7QoHaAuEqrk0VV6bayi4CKn+HLvsSuvQj6Or5ZmqgsqtNo3VzD23DstzRd0pL9Zb8stKgvb2BtCGwsnYFssZCpQ+BlmmJZgvvr1STsWcWXwsUoAAFKEABClCAAhSgAAUoECvAAIvjgQIuFdB2JLySSMouB6oXAmWfQZd8BFT+aHpZhacE2qaZengqYe0G7O44OBNiySb9uaQnlkqH9nSHlTEKyN4dyNoF8PcFrMxoeGXqstj83R0nkHtBAQpQgAIUoAAFKEABClCgnQUYYLXzCeDTp55Ac/oxbVpB0A4HOXY5dOnHwIZnYFd+CyXTBe3SSK1SZFVBl4ZWDZ1Z0wlLW9CQMCsr3Ag+czuoTkdD5exmemaFHaUvV7gqixsFKEABClCAAhSgAAUoQAEKdFwBBlgd99zzyFtQwAmtmhpehXtaOdMFA1ChNdBl3wDrH4Mu/xKwSyTxcXWVVVM5ww3pw0GVVjlQmTtDFZwIlTUG2tMFyvIbGjO1MJxmNfWpeD8KUIACFKAABShAAQpQgAIUSFIBBlhJeuK42+4RaGpoZQIbs6KgM+1PQwVXQm98FfbGp4Gqn6F0WYfJa5wW9bClX1Y2kD4aqtNRUHkHAL7u4YCrhYKs5pwz94w87gkFKEABClCAAhSgAAUoQIGOI8AAq+Ocax5pCws0r+pKw7adHQpCBZZBb3wTdskrgEwVDBVFepp7XNvXqoU5Nz1cZFVD0/jdkwOVvj3Q6VConH2gfb2gzLRDNnpvNX8+MAUoQAEKUIACFKAABShAARcKMMBy4UnhLqW2gKwQKJusF6hC5dAbX4S97kGo6l8BuzQSXElA486G7G11drSWaYVGCUpWKvSPgOpyNlTeoYDlC69aKH2yrPD0w0Q3VmElKsbbU4ACFKAABShAAQpQgAIUaD8BBljtZ89n7mACsVMFdagcqJwDve4hoOhFQBeblQQ7emhV15BwVjDUOgRYBVC5h8PqciaQPhSwMsJBFhu9d7BXEw+XAhSgAAUoQAEKUIACFOhoAgywOtoZ5/E2WWBTAJXYqnjRBu2mYMiGql4Cvf5x2BufgQosBBBieBXHWQkHWeFf2jcAVv4JUPnHmGmFZkphOMZq0oqFrMaK4wTwJhSgAAUoQAEKUIACFKAABdpRgAFWO+LzqZNLoCkhR2yTdqUroIvfg153P1D+JbQuD6+s18GnCiY6CmRqoZmGaWWHVyzsfC5Uzi6RaiwTYSW0UmFTzmui+8zbU4ACFKAABShAAQpQgAIUoEDzBBhgNc+P96ZAvQLatuF0sVKBlbBX3wZd9BKUvRKA9MHyQqloJ3dKJiAQ2x8L3l6w8o4DCscDvgI4eWAivbGa15A/gR3nTSlAAQpQgAIUoAAFKEABClCgSQIMsJrExju1lkBsNYybKmMS2xeN8HRDBW2XA+U/wF7zd6D0LSgdAJTFqqsWGkBmWqH0xlJZQO5BsAovgs7YCkr5o88gVW7xbomd53gflbejAAUoQAEKUIACFKAABShAgeYKMMBqriDvn5BA7YBK7pxIwCC3d3pROfdrzdCh9nM1drCx/a4QKoPe+BzsNf8HFZhvVtTjdMHGBBP/92iTd5k6mDYCVpeJUHkHAZ5MWaQwMk0z/hDLGWOJjsvE95z3oAAFKEABClCAAhSgAAUoQIF4BRhgxSvF28Ut0FBI1RJhk1une23qd6WBwHLotfcDG54AQqsiTdo5XTDuQZTgDcMhllS+AcrbEyg4FarzaYCvW7gnVgJBaUuM0QR3nzenAAUoQAEKUIACFKAABShAgUYEGGBxiLSIQF0X/YlWL7XIjrTQgyS67+HbR6YOVs4D/pwBXfYBgAr2uWqhcxLXw+hwhZ62OkHlHADV42rA1zuyOmF4DUNZsTCeLdExEM9j8jYUoAAFKEABClCAAhSgAAUo0DQBBlhNc+O9KBAVcMIr6CB0+ffQK2+ALnvX5CScMtj2AyXcF0sa6FtQ2QdCdb8CyBgBBY8JrxKZGsgQq+3PH5+RAhSgAAUoQAEKUIACFKBAXQIMsDgumiTgXNjLnRMJBJr0ZE28U1PDh0SmkG0KrwLQxe9Cr7weqPoZUHak0MdZh7CJB8G7NVkgPK3QA52+PVS3ybBy9gCUL1yNFR64cT92ImMi7gflDSlAAQpQgAIUoAAFKEABClAgbgEGWHFT8YaxAk0Nh9pLsaUDiE39ruSIqoGi16BXSXj1G6CCALysvmqvkx15Xqe5O2ABaVsD3S6Hlbuf6UdmQiwGWO18hvj0FKAABShAAQpQgAIUoAAF4hdggBW/VYe/Ze3m7IkEAMmCF2/QtannVRWw8UXoVbOA6mVQFiuu3HWulWnsblqU+YdA9bweVu6+kHBLxm+ilVjuOjbuDQUoQAEKUIACFKAABShAgY4jwACr45zrFjvSeEOeFntClz2QCa+kUbipvHoV+s8rgcCSSH8lBlguO13QkBArBMiUwrQtoLrPhJW7jyRaTeqJlYrBrdvOGfeHAhSgAAUoQAEKUIACFKBAbQEGWBwTcQm0RmgV20crrp2I3Ki5AUKzjsUEVxJgBaA3vgZ75eVQgRVmeTul7EQOg7dtYwGpujJjzr8lVPcrYeXtv6knVrgUq433iE9HAQpQgAIUoAAFKEABClCAAvEKMMCKV6qD365ZoU+M3abqpdi/jMkOnGldkCKnmGom+c9IvhD+TRKjpjeQd44nkeOK7rsOACVvQa+cCVTNMT2VuNqg+18gmyqxPFDpo6G6T4fK2Qsacv7iH0uJjBn3q3APKUABClCAAhSgAAUoQAEKJIcAA6zkOE9tupctdYHuBD4meIr0ITJ9syWYCmroygBCq4phL12P0KoS2Bsrzd/B1uEF4jwWVJYPVmE2VI9O8PbuBKsgC8rrASwlD7kp1IppyN3cCq26sJ0wTdtBoOwz6BWXm9UG2fOqTYdmizxZuBJLAenbwep1C5A5OhyJsidWi/jyQShAAQpQgAIUoAAFKEABCrSGAAOs1lBN8sdsiQBr0yp9GgjY0KXVsNeWwl6xEaFF6xCcvxr2qhLo4iro6iCUHam2iqm0ijIqBe1RUBk+WPmZsHp3gndoV3h658PqmQeVnwGV7jehVmx41ZJBVvh4bKByLvSKK4DSdwCLlVfJONSd1QklR1XZ+0L1vAFIHwJlxl5iqxMm4/FznylAAQpQgAIUoAAFKEABCiSjAAOsZDxrrbzPTQ2wolVKJhkAVHUIwUXrEPhuCUK/rEToz2LokgqgWhpqR2YBSjhVo/tQ7T5E4WBLCmZMiykJkuQmElale6Hys+AZUADvqF7wjewN1TUbSlnR6YemqiamOqspdLZthyvCqpfBXnEZUPyq2Znww7Jpe1NM2/8+4SosM30w90hYPWZC+3qGq7DiHC9NfZ20/7FzDyhAAQpQgAIUoAAFKEABCiSfAAOs5DtnrbrHTggV70W8iXDMqnzyv0jYVFqF4Jw/EfjkDwTnrgSKKqEDoXALq8j/hUOrcB+rhDenN5ZpqB55jHQvrG458G3bB76dB8LTtwDwecxDJxJK1N4XU3UlxxhYC73qBuj1DwCQ8Mpi36uET5y77mAqseT8WjlAwZlQXS8BPPkJ9cNy1xFxbyhAAQpQgAIUoAAFKEABCqSuAAOs1D23cR9ZUxqaO8FV7H1lqmDwl2WoeuZ7hBaug64OmUjLikzNinuHEr6hE6BFKrNy0uDboR/S/7INrO450LWqauIN5zY1ba8C1j0Ovfo6wF7L4Crh8+PmOyhomb7q7QHV4xqo/KMAbYWDTyv8OzcKUIACFKAABShAAQpQgAIUaH8BBljtfw6Scg+iKwRKFVR1CKGFa1H9wXxTdaVLKoHIxX+8YVHLIEifqk3TDKVXVvpew+DbeQBUlxwz7dAEE3FME9vUwysAlH4IvWIaUDU30iOJ0wZb5ny541HCTd0BpI+E1et2IHMMlNpUveeOveReUIACFKAABShAAQpQgAIU6NgCDLA69vk30/8SDZlie13p4kpUv/Mrqt6aC72mVGbXhftfxdlHqDX4zVRGs+qhhuXzwDOsEP5DRsI/pg+0z2tmLTa2f06ApaoXwF42ESj7IBJehacUckstAW2qrjSQtQ9U7zuh/H2indkaGyupJcGjoQAFKEABClCAAhSgAAUo4E4BBljuPC9tuleJhFjR8Cpkw164DpUv/oDAN0uByoDrVnAzdVKRHlZWQRb8B2yJ9MNGAX4vVKQaqz5o6X2lQ6XQq26BXns3FKobvU+bnjQ+WYsLyExChTSogvOgekyFtrJMnzYGWC1OzQekAAUoQAEKUIACFKAABSiQsAADrITJOu4dnJ5QsDUCPy9HxUOfw16ywXXBVe0z5Oy3NbgLcq4+GCo7veEwSqZFyq/Kn2AvPAJWaJU0ROq4J74DHblp7O7tCdX9OqDTYVDKF1l3oPHVBhIJgjsQKQ+VAhSgAAUoQAEKUIACFKBAiwgwwGoRxtR/ENuOTJ2rCKD6swWoevJbhNaUQHms8GqCbt60hq01fDv2Q9aEvaEyfA1W1YSnD4aA4regFx8LKFl10M0HyH1rKYHwyoQAsveC1esWaP/guHqmtdTz83EoQAEKUIACFKAABShAAQpQoG4BBlgcGY0KSHglIZWuCqDq7blmlUG7qMKs0pYU06skkLIU0o4chYyjxwBeT4MVWGb6oF0JveZe6JVXQVleKMXeV40OlBS5gQmxVAZUlwuguk2BlmmF7dzXLUVoeRgUoAAFKEABClCAAhSgAAWaLMAAq8l0HeOOzvQ7XRlE9bu/ovKp72CXVMKSKXXJUpUkS8yleZF+zi5I22Noo1MeTQVWqBhYPgl642MmwOLWcQTCVVga8A2A1ftOIGdP09DdDPdGSvE4jbDjjBMeKQUoQAEKUIACFKAABSjQtgIMsNrWu12fzWnAHm/VlHN7hGxUf/w7Kv71KXRZNVQyhVemj7sNlZ+BjIv2hG+b3rCshvtZmemSgRXQS84BKj6CUqYdPLcOJGBWJZQVOnMPgur1f9DeLtFqw3hfPx2Ii4dKAQpQgAIUoAAFKEABClCg1QUYYLU6cXI+QbgPlAaCIQS+XITyBz8F1leaaYNJU3kVoZcAy9OvAFkT94LqWwDL03CAZaYQln0Le+l5UIF5nD6YnEO42Xttxr/Kh+pxHVTBcdCQqaRclbDZsHwAClCAAhSgAAUoQAEKUIACTRBggNUEtGS9S9zTmzRgaxtSeBScvwrl93yE0OL1ydPzqtYJ0iEb3lE9kTVxb6hOGeEQroHNVGAVvw572XlQ9kYGWMk64Ju532YqITxQGTsBve8A0oYlFGDF/Xpr5n7y7hSgAAUoQAEKUIACFKAABTqCAAOsjnCWEzzGcNN2wF5dgop/f2EqsGRLyqlTUkkGwLfHYGScuQusLH94CmQ9W7jyrBpY9wj0yiuhUC6TEBMU5M1TRUCKsLTKhiqcBFU4HsrKjOt1wPAqVUYAj4MCFKAABShAAQpQgAIUcIsAAyy3nAmX7Eds0/aq//2Eyie/BWw0uGqfS3a97t2QajKvQvpR2yD9yNFQPk+DAYQJsIIboVfdCKy/H0CQPbBcfYJbf+dsWwMZO8LT5x7o9GGmnXtShrmtT8VnoAAFKEABClCAAhSgAAUo0GoCDLBajdZ9DxxPVYgJsGyN4G8rUX77e6YKC5aVtBfspo1RpqxAuCv8uw1udAqY6X8VWAm9/BKg5JXGFp1z30nmHrW4QLgXVjZU9xlQnc+CVhZDrBZX5gNSgAIUoAAFKEABClCAAhRoWIABFkdIVCDauL2kEuX/+hSBj3+X0qukDa9kFTlZTE4VZCFr8j7wDO3acIAl08V0CLrqN2DpeNhV34SDCk4h7NCvknAvrBCQvgusfg9C+3qZaaiswurQw4IHTwEKUIACFKAABShAAQq0sQADrDYGd/PTmeblIRvV789D+b0fmz5YyX+RrmEN6Yqsy/eDlZchB1TvMZl+RzoAlH4Ee+n5UKHlkQos9sBy87hti32TEEvDD9XtaliF5wFKpqI2vBhAW+wXn4MCFKAABShAAQpQgAIUoEBHEWCA1VHOdCPHaaZJSeP2VcUou/1dhOauhvIm9wW6lmUUbcC3+yBkXbwXYDXcu8hUoNkBoOhp2EvPg6Wk+ZfEeNwooKBtGzpjB3j6PQLt781phBwUFKAABShAAQpQgAIUoAAF2lCAAVYbYrfXU8XT+8o0qg6FUP3BfFQ8+BlUZTD5wxuzoiCQdvwYZPxt2warr+TcmP5XoXJg9V2wV8+CsmTFQru9Thuf12UC2sxHzYbqeSuQf4zUJzbaU81lh8DdoQAFKEABClCAAhSgAAUokLQCDLCS9tS13I47va/0xnJUPPApAp8tMtMHk776SNIrj0Lm1P3g266f5A0NTokMT6FcD710IlDyfPKuvNhyQ4OPFCMQnkZowco9Euh1G+DpxACLI4QCFKAABShAAQpQgAIUoEAbCTDAaiPo9nyaxiqwTIAVshH8ZQXK73gXdlGlXKabwCeZN5nypfLSkT3rUHj6FTTcz0tr2BJ4Bf+EvfAoWJU/mtUXuVEgVsBUYfkGQPW6C8jelc3cOTwoQAEKUIACFKAABShAAQq0kQADrDaCbq+naSy8kv0yvX0qAqh8/ntUPvkdlE8aVCd5eiXHFQzBM6QQWdMOgMrPhNVgIKVhKrAqfoJeeDSU/rO9Thmf18UC4U5xGUCXiVCFF0NZGVAMOl18xrhrFKAABShAAQpQgAIUoECqCDDASpUz2YzjkODGXlOK8pveRmj+aiiPVF8leYAlKwqGgvCPG4KMC8ZB+b0NBg3hFQht6KIXoJeeB4VK9r9qxphK5bvKOEH2/lC9/g74esGS1QiT/fWSyieMx0YBClCAAhSgAAUoQAEKpIQAA6yUOI3NOAiZOmdrBH9YirKb3oaqlpX3mvF4brmrBFJ2COnHbYe0Y7aDdC9qqFLGrMIoAdaqO6BXz4BkEtwoUJeA1iHA2xuq9z+hsvdsdHEAKlKAAhSgAAUoQAEKUIACFKBA8wUYYDXf0LWPYEIZ04u9/kTK9L+yNape+hGVD38RDnlSoJpEpkXC50HmRePg22WwacjesIM0cC+GvWwKUPQ4G7i7dlS3/45piUN1GqzCSVDdJgPwNDqNMJ6pvO1/ZNwDClCAAhSgAAUoQAEKUIAC7hVggOXec9MmeyaVWsf3AAAgAElEQVRBj11ahfK7P0Dwi0WmcXkq9L+ChHcFmciedgCs/p3jCrB01QLoRadAVf+QEiFemwygDvoksiIhMsfB6v84tJXD1Qg76DjgYVOAAhSgAAUoQAEKUIACbSfAAKvtrNv0meKpvpIdkgArtGwjSme8Cr2uzKyqlvRTCKWqTAOeoYXIuvwAqE7pDTdwN7fX0OVfwV54OCxdygCrTUdrMj6Zhm31hNXnPiB7DwZYyXgKuc8UoAAFKEABClCAAhSgQFIJMMBKqtPVwjtrpg/aCPy8AqVXvbop5EnyHlhOeOfbfSAyz9kdKtMfxzTKamDjC7CXnAPl0Wzg3sJDLRUfzrYtqK5XQHWdBChPI6tcpqIAj4kCFKAABShAAQpQgAIUoEDbCTDAajtr1z2ThFc6GEL1O7+i/K4PodJ9KTN9UHstpB83BumHjQQ80qOosT5g5cDKm6HX3ARY4hDuH8aNAnUJmCmEdhDIPRxWn7uhPQWNBljsg8WxRAEKUIACFKAABShAAQpQoOkCDLCabpf09zTT5ioDqHjyG1Q/9T1Uujclps7Ztg0rKw0Z43eDf+dB4Z70DTaylyBvI/TSi6BLnm80iEj6E88DaBEBWY1Q+4bB0/9pIH2wDLLUCIBbRIcPQgEKUIACFKAABShAAQpQoGUFGGC1rGdSPZoEWHZFNSru/xSBt36F8ntSIsCCbUN1zUbmhD3h2aIHLI/V4HmRwAtVi2AvPQuq8mtOH0yqUdyOO6sVbKsLrF53QXU6mAFWO54KPjUFKEABClCAAhSgAAUokPoCDLBS/xzXe4QmwCqvRsXdHyDw8QIorwRYyQ8iUyM9Q7oia9JeUF1z4wuwyr6EvfRcqOBCBljJPwTa7Ag00oDCqbC6TY4rwOI0wjY7NXwiClCAAhSgAAUoQAEKUCDFBBhgpdgJTeRwTIBVWonyO99D8OulUI1UKiXy2O12W5kWCcA3pi8yLxoHlZPReP8rbQPFr0EvPw/KLpK1Gdtt9/nEySbgh847BlbPmwBPDqcQJtvp4/5SgAIUoAAFKEABClCAAkkjwAAraU5VYjvqrMSnGuz9lHoBljluS8G/7xZIP2UHWOl+KKuhKYQadqgSWPsw9OpZUChJDJq37tgC2gudsQtUnzug0gZDqYanq3ZsLB49BShAAQpQgAIUoAAFKECBpgswwGq6XdLfM2UrsPxepJ+wHdIO2grKazVYFSPTDREqhr3qWmD9A1AIAVyBMOnHdpsdgLagfQOg+twLlTWWAVabwfOJKEABClCAAhSgAAUoQIGOJsAAq6Od8ZjjjQZYd7yH4DcpMIXQzPzTQLYfGReOg2/7/ia8qq8KTYq1tLahgqtgL7sIKP0flPJ24BHBQ09YQMaQpxtUj1ugOh0aHj8NVD0m/Pi8AwUoQAEKUIACFKAABShAAQoYAQZYKTwQGmsYHW3i/n8fIPBJajRxlw5YVpcsZF1xADz9CkyY0NA0StsOAhWzoZdeAFR/H7kte2Cl8MuiRQ9NQlCoHKjCqUDh2VBWBvtgtagwH4wCFKAABShAAQpQgAIUoEBYgAFWBx4JEmDpimpU3P8pqt/6FcovqxAm8TKEEiZoDc8WXZF11UFAhq+RCiwNrQPQxW9DLxsPy16XEqswduAh3Q6HrqC1BRScB9V9GpQnmwFWO5wFPiUFKEABClCAAhSgAAUokPoCDLBS/xzXe4Ta1rCrAqj679eoeuYHqLTknv6kJXsL2vDvPRSZF+7RaPWVTB/UdjX0+segV1wEq8Fm7x14oPDQGxQwfdQ6HQer522AN7fRPliNVUaSmwIUoAAFKEABClCAAhSgAAU2F2CA1YFHhVx460AI1W/ORfk9H0Fl+qCQxBVYkIoqjfTTdkL6oaNMNVXD0wdtwC6B/vNG6HV3QllSsWV34BHBQ2+KgAmwcg6F1esuwFfYyKqXUiSoWaXVFGjehwIUoAAFKEABClCAAhTo0AIMsDry6ZcphCEb1T8sRdmM12B5Iw3MkzXDsjV0mgfZVx4I74iejQdY2gaCa2EvPhOq7F0oK1kPvCMP4vY/dhlGyNodVu+7of39YFme9t8p7gEFKEABClCAAhSgAAUoQIEUE2CAlWInNPZwpNJDtnqrkCTA0kBoyTqUXPUKUFzV8O1dbiVhnNU1G9mzDoHqntvolEDbtqECS2AvOBQ68DssxeDB5afYnbunFez0beDpcx902jAGWO48S9wrClCAAhSgAAUoQAEKUCDJBRhgJfkJbO7uy/Qnu6gc5Xe+j+D3y6CkeiRJC5F0MATv1j2RNWVfIDe9kQBLQwIslH0Oe/GJUHodFLj6YHPHU4e8v1bQvkGw+j4InbENA6wOOQh40BSgAAUoQAEKUIACFKBAawswwGptYZc/vqnSCtmofOY7VD7xDZTXkpotl+91HbunATsUQtohI5B5xi7QlmowwAoXp9nQ6/4De8UEKNjsf5V8Z90deywBlrcbrL7/gc7cqdHKv0YrI91xVNwLClCAAhSgAAUoQAEKUIACrhJggOWq09H2OyMX07IaYfCrRSi79R2oUKQKSSVXiCXHoJVGxqk7If2wkXGtQAgdgl55HfSamxttvN32Z4bPmDQCEmB5OkP1fRQqe1c2aE+aE8cdpQAFKEABClCAAhSgAAWSSYABVjKdrVbaV5lKZ68sRuk1r0Mv2wj4LClOim4mynJ5oGVWgsv0I2vSXvBu29eECA2tQKgjDdz1kouhS18GlAWlOIWwlYZYyj+sVvlQfR+DytmdAVbKn20eIAUoQAEKUIACFKAABSjQHgIMsNpD3WXPKeGPrgig6rVfUP3BPNgbKoDSKlOZpSzLrM6nFRDOd+Q/3HYAALQN1SPXrECouueZfW4swNJV86AXHgtUz49UYDHActmZTZrdCQdY/4HK2SOS9brtRZI0lNxRClCAAhSgAAUoQAEKUIACdQowwOLAgDONEJUB6OJK2OvLYK8pQeCXFQj+sAyhJRuBgA0rwweV5oGW6iYNcz83VGeZnkJawzuiBzKn7AsrN8MEWPVuMm1S+l+VfgF78ZGwdGly9v3i2HWNAAMs15wK7ggFKEABClCAAhSgAAUokKICDLBS9MTGHpYJmhqZAug0lpaqK8hqfPJbVRC6vBr2mlIEf1uF0B9rEFpeBL2hDKgIQFeHgEjPLHl8Lf3fdaRAqy2nHMruKg3/3kORccYuUGneBntayfRBbVcDG/4LvWwSlBUEVMycyQ4wJniILSvAAKtlPfloFKAABShAAQpQgAIUoAAFagswwErBMVFXYBVPiFU79JI0yqzWJ/8n0wlDGnZJJXRROUIrikyoFVy4HvbyjUBRRTjQ8lhQHguwnExIyaNAtebUQ6mo8llIP377TQ3cG6jAMhVnoTLoVdcCa++W9lfcKNAsgUQCrERfi83aMd6ZAhSgAAUoQAEKUIACFKBAiggwwEqRE1nXYTgXys26YDbT7ZwtEmjJH0N2OLCqqIa9ttRUaYWWboC9aD1CfxZBry2DLquG9NeSPlqQQCnaR6tlm8KbXl3ZfmScuxt8uwyC1dD0QZPH2dCBtdDLJwAlL7u9P30Kj9BUOTTpEdcJqp+sQjiu0WrHVDlqHgcFKEABClCAAhSgAAUoQIG2FGCA1ZbarfhcsSGVrCrY2Cp8zd4VM8tQAq1w/ymTcgVC0EEb0kvLXl8Oe1Uxgj8sReCbJWbqoWxWph/K6zH/Hb6vLHDYvMbwcrxW9xxkXbwXPMO6wZIKsAY2E2BV/IbQ0vGwqr6F4vTBZg+HDv0AWkF7IqsQZu/GAKtDDwYePAUoQAEKUIACFKAABSjQWgIMsFpLto0f1+lh1Vivq9baLef5JcxyKrZMo3dpDF9WhdDKYoRMH621CK3YCF1UaVY+hFRxmXmKsilTqaWcP8fZR0uqvDxDuyJr8t6wCnMbbuAOQAIvlH4Ie9l4qOByBlitNSg6yuOaAKtLuAIra2eoOOakNqsqsqO48jgpQAEKUIACFKAABShAAQrECDDASvLh0N7BVX18JsaK5FLRKi1pEC8VWsWVCG2shF6+HsGF6xCSaYfLNkCvK4cOhMJTDn3hPlqI6a1eZx8tCcyUgnf7vsg8f/fwCoQNBV9aw9ZBYMML0H9OBOxiKEnauFGgqQISYHn7QfV7CMgYA8sKVxjW+9qIBLTtFTY39TB5PwpQgAIUoAAFKEABClCAAu0pwACrPfU7yHNHq7PkeE1WFKnSCtrQwRAgKx2uL4NeU4bg4nUILVgHe8VG01tLVwRNhZaEWsqjwvePCajMY3sspB08AmnHbQcr3ddggBVt4L7mXmDNTVCq2tmpDnI2eJgtLiABln8ErL73Q6ePaDTAavHn5wNSgAIUoAAFKEABClCAAhToAAIMsDrASXbzITrVWU4/LOmjZaq0IqFWaGURAt8sReC7paanlgmyTB8tKxxmSYCV7kHGaTvDt88WZvpgQ5Ut5nlC62GvmAZseBzKYvWVm8dHUuybraEzx8Lqcy+0XxYRaLgCKymOiTtJAQpQgAIUoAAFKEABClDAZQIMsFx2Qlpzd2IroWKn+MlzxoY+7TK1KTKtKlygFa7QMlMGTcP1AHRplemdFZq/BqElG2DLSocbyqErqoE0HzIv2QverXs12rxe2yHowDLoZRcCZe/E1a+oNc8JHzv5BWQVTGTvD6v3XYCvBxQDrOQ/qTwCClCAAhSgAAUoQAEKUMB1AgywXHdK6t+hpjZ+doIr53e53l5SEsTvJQF0TfdgYK4X2T5PdHaeXJCHZ+lJNVN4f9oj1NoUuEWmHIYiKx4GbOjSStgbKhBatt70zvLvNQyqILPBACu8YGIQqPgeevF5QPC3yLGxCiuJXgau21UTYOUdAavX3wFvPkNR150h7hAFKEABClCAAhSgAAUokAoCDLBS4SzWcwyxwZX0Ql9bYePr1ZV4d0U5flxfhVWVNnK9Cj0yvRiQ48PwfD+GdfKhT5YX3TO88EvPqU1rCpowqz2CLDm8mn20woGT+f9gCDqkYfm90JH9q28fw9MUg9DFb8JeehosXRHpp8UAK4VfBq1+aFpbUPmnAT2ugfLktNtrpNUPlE9AAQpQgAIUoAAFKEABClCgHQUYYLUjfmNP3ZSKK9OkPDIdzywEqICiao3n/ijBfxeUYFFZEEEN2PIPkU3qm+RPXlnNTwF5foUB2T7s3DUde/bMwOBOfqR5FLyWMi2nJDqSBQLNfykz0c9s7RVuNeYYPU5tA7oa9rpHoVdcCKX8UCpmmcN4H4i3o4Az/s3rKAOqcCJQeBGUJ1wFyI0CFKAABShAAQpQgAIUoAAFWlaAAVbLerbro5nwKrIHgZDG0rIgPvqzAi8sKjUVVwFZsE+pcO/zmItsc7nthF6RvlMS60hIleW10DvTgxH5fmxVkIb+OT70zfKic4YHWR6FdO+mACuSYplAy40X8VoCLLsM9vKrgPX3AZYHSrH6ql0HbQo8uVadobpfC+QfDWVJKFp/gOWEy258faTAqeAhUIACFKAABShAAQpQgAIpLMAAy0Un16m4SrTyyqmKcgKsDVU2Xl5chmcXlmBuUQBVofBMudjQqrHDNiGUeWAFW4crtOQxsj0K+ekWemZ6MTzPj+EFfmyZ58eQPD8yfOEKLUtJhVfkPvJEkQv69r5ot20byt4Ie+GxQPmnZsVCbhRoloCExt6+UL3uhsrZI9z/ihVYzSLlnSlAAQpQgAIUoAAFKEABCtQlwADLheMikQArPGUwfBCVIRtfrKrEQ/OK8dWaKpQF7ejFdCLhVW0SpxOWZaYehp9Msh+ZcuizgHy/hR4Z0gzeh20K0jC0kx99sr3omuGBaaNlYrDI/0ufKufPbXyhbwKs6oWwF/wFKvRHpMbMhQOAu5QUAtL7ynRiSxsN1eduqIytXVl5mBSY3EkKUIACFKAABShAAQpQgAKNCDDASuIhIoGMs5UGNP7vl414bEEJSgLy9wp2GwREUqXl1DHJ5bwEVh4LKPB7MDTPh10LM7BXzwz0yfOZ6YteC7BllcNIYZaZgFirEKq1KrVsOwSUvAt7yelQupj9r5J47Lf3rpvwSoegVR6s7tOhOp8KWBkMsNr7xPD5KUABClCAAhSgAAUoQIGUFWCAlaSn1mnWXh7U+Hp1FR78rQgfrqpESCc+XbClCCTMMk3dYxrJW0oh22ehV4YHIzr5sWW+H/2yvaaXVkGahRy/hQynTCumd1ZrhFjSA0tXzoVedBJQ/Sug2AOrpc59R3qccBGiBfj6Q3W5ECr/aGgrN+5VOtkHqyONFh4rBShAAQpQgAIUoAAFKNBSAgywWkqyGY+TyAWtc1v5vSyg8ezCMvxj7kYsKw+a6o/mTBVsxiHUe1fLNJaX3ljhqiupzpIVDbv4LfTO8mLrTn6M6JyOLfJ8GJjrRZqUaJlNllAM/1dsmNWcYCvcxL0C9qqbgdW3sIl7a5zwVH5MHV4AAbYNnTEKVrdpQM5egEoPr8xpOWO3YYREXu+pzMlja3+BjRuLEAqFNtuRTvmd4IlzPLf/UTS+B+vWra/zRp07FzR+Z97CVQLBYAhV1VWb7VN6Wjo88gWDGwVSVCAYDKKqunrzsZ+enlLv1yl6+uI+rHg+ryqrqur87E7nWIjbmTdMbgEGWEl0/pyqK9nlleUh/GPORjy7uAzF1dpUf7TFlMGmcjkN4c39I6slelW4l1aax0K+X6FHpheDc3wYVeDH0Dw/emd7UZjhhRVZKdCZaWimHzbh4spUYOkQVPnXCC07F6iaD6W8XImwqSe1A91P60jnNm1BZ46F1f1SIGssFNKMQlPGYwfi46E2U6C8vKKZj7Dp7mnpadGLnTlzf8MDDz+Oiorw48s4Hj1qa5x+yvEpdUH02pvv4vU334FcAMrm8/lwxGEHYc9xu7aYKx+obQQCgSBuvfMeLFqyNPqEBfmdMPHCc9G1sEvb7EQ7PUtxSUmdz5ybk9NOe8SnbUuBFX+uxJ1334ei4vA4kG8lw4YMwsUXnBP3D9Dacn9T8blCto2ysrLNDs1SFrKzsxo95LLy8jqDJ7mj3+eDBFAvvvoG3nnng+jt5PPq6L8ejl133jH6+L/N+x333v8QJMhytlFbj8AZp56INL+/0f3gDSiQ7AIMsNrxDCbarF2CHxsKS0qCuPqbtXh/ZYWpuDK/2vE4mvvUsX20ZHqWzCj0W8o0gR+a48Ou3dIxtlsGemR7keVV8Hk2VXSZD/Favb7qq9JyAkAV2gB71fXA+geknIYBVnNPYIrfPxxeAVp6t2XtA6vXNUDGltBapqBuPv5SnIOH1w4CTzz9AmbPntvsZ+7RoxvOPPVEpKeHg1cJsKbNuB6r16w1f/Z6vfjrXw7F+eeenlIB1kuvvIG7//kAnCBQLjQmX3w+9t17XLNN+QBtKyAB1ozrbsEHH30SfeL+/frijpuvSfkA6/U338XnX31dA3zM6FE4/JAD2/Yk8NnaRUACrAmTp2H5nyujz3/QAfvg8skXM8BqozMiFXCPPvYklixfEX1Gr8eLQw7cD9uOHtngXhQVFeOJp5/Hnys3nT+5Q2Z6Og4+aD+M2HILcx6ffv5l3P/AI6iorDSPJwH1ZZMvwrjddo4+/q+/zcelV8zE+g0bon/3l0MPwkXnn8UAq43GAp+mfQUYYLWvf1zP7gQvISjMXV+FW37aiPf+lPAqfPGczOFVLICJCWTmoJIiLW16ackmzd9zfQp9snzYKt9vVjnsn+1Fv2wfOvkVcv2WmZboBFcNTTMMV2HZQMnb0MsvBoIrTAjBjQL1CUjVnla5ULmHw+o6CTptsPnZp4yz5kxprf/5wuO+NR6bZzk5Be6+7yE89cwLiF24oylHctD++2DSxePrD7A8Hvz1iMOSJsAKBAJ4/6NPsWr1GsMxdPAgbD9mNCwp7Y3ZJMB66JHHo9NvMtLTMf7s0xlgNWUQtfN96gqwBvTvZwKswi6d23nvWvfpn33hFfzjX/9GZeTCtrCwM0445ij87cjDWveJU+zR3//wEyxb8ac5qn59emP3XccmxRHWDrDkXe6gA/Y14Ua8LQyS4kBdvJMSYN3x93vx6pvvms9juX4YNHAALjzvLGy37ah693z9ho149vmX8eL/XotW0Hk8HmwxdDBOPfFY7LD9tuYHSLJJgPXoE09DPt9ky8rMwEXjz64RYM39bR6mmABrY/Q5GWC5eOBw11pcgAFWi5O27AM64ZWtFX5aV4VZ36/Hd+uqIOsMunnKYEsqRJvDSwVMZNphtkchP81j+mgNz/PjwL6ZGF2Ybqq3pHF8Q5u5CAyuhl5+OXTxM1DK4oqELXnCUuSxopVXKhtWwWlAl/Og/D0hf99a4ZXQsUdWigygFjwMBlh1Y27YuBHTrr4Ov8z5zdxALiL++pdDNguw3v3gY8yd8yukI6NssvrttqNHYeexO7TgWeJDtYVAXQHWwAH9cftNszpcgJWZmYEzTjkBx/7tiLagT4nnqKyswqzrb8Unn39pAgPxO+HYvybFsW0WYCmFgw/cF1MvkQCLP4lti5NYO8CS5yzs0gVXTJmAHbYbXecuyNTf/z79PJ578RWUlZWb20jguNWILXD6ycdDqihjA8g33nkPv8/7PVqcIN83d9h+DHbYbtvo4zPAaouzzedwswADrHY4O/FOHXTCK2l//vO6Kkz9ei1+3lAdrsxIocqreE+BU6ElvxsbBXikn4kCxvXIwA3bd0HXDAmjGq6MMQGBDkAXvQa99DwApZEqrFSpZYtXlLerT8CEVzJMPIVQhRfCKjgR8BYA2jKNJ9qiOire9wmexdQXqB1gyYWXVJsk+lP3HbfbFuefe0bKVGD9+PNsTJ9xQ3QaxYQLzq0zwKqK6RMSO1rS0sJTKbklj0BdAdaggeEAq0vnjlWBlZbmjwQwRyXPCWznPZ376zxcIdOmV68xAdbZp5+EE45NDr+6AqxDDtoPUy+5sE2+k7TzqXPF09cVYHXKy8NVV0zGjttvCpicnZUfskhw9fxLr0KmEMomlVcjthyGU046FtuNHhWtvHLuE8/n1ZxfpQJrBjZsLIq6sALLFUOEO9FGAgyw2gjaeZpEqiukUkjCq4VFAUz6Yg2+WV8VDq445y161kyYZdvoku7Bzdt3xn69pYmiVGrVH2KFAywNBNfAXjYBKHkFMLkEA6w2fjm48ukkvDLTTD29oLpPh5V/JLTKNPvaWDha+3XuvN6d+8b+Hu/BM8iKVyp1b1c7wMrKzMTkiedjq+FbJHTQHsuDzp3zo1+YN+uBlWRTCB957En8+z//RSDSnL2+ACshJN7Y1QJ1BVhDBg3EbTfORKqvKll7CiEDrMSGaihk4+nnXsI99z1ofgiaCgGW9D+bPGE8A6zEhkKTb51IgFVSUoonn3kBz77wP5TGNH6XXlfnnHmyWTAl0R9COTs+e+5vmDJtJmQlYWdjgNXk08o7JqEAA6w2PGl1XczW9/RyW1sDvxcFcNOPG/DG8nJTJcTwanMxmWIolVh/7Z+FmWM6I9snVVgNV8mYgEKquIpehL3sAigtVVgMsNrw5eDKpwpnmwoqfSRU14lQuQdBqwwTbjqVj43tuKkOBBAIhrCquBx+nwedM2WZ63CJf7whWO3nYZDVmHzq/ntdAdb0yyZi9103NXVtytEnGmBVVFRiydJlmPf7AixdvgKlkVXRsrIy0aN7dwwZPBD9+/ZBTk52g7sjP5xZs2Yt5v+xEPN/X4DVa9ZAHtvn9yG/Uyf069sbQwcPRK+ePSHTpJxN7jdn7jysW7/e/NULL7+Gr7/9PvrvJxz7N4zYcqj5s8/vx/bbjjIrDv4yey5WRRrVOzfu2b0bttwifNu6Nmmgu3LlaixavBQr/vzTrDzl9fnQrbAQAwf0Q5/evRpddaq6OmDu+9u8P7Bg0WKsX78BgWAAGWnp6NKls3mcQYMGoEe3rmY/G9psW2PN2rVYsHAxFi5ajDVr1pkVqOR+XQs7G/vBAwegoCC/0YvZDRs2YsHCRZi/YCFWrVpjeipJVUBeXh769emFwYMHoXfPHvD7694n8YztvSK3G7nVcHg8XkhV3Lff/2i8BvTriwP336fGOZRjlPeyouJiLF/+p1lNUMaCWMk46t2rJ6SnVY/udZvUFWANHTIQt94w04ydP1euglzciVNxcTGkyk76HI3ceoQZV3Kcybq1doBVXFyCxUuX4Y8FiyDVPnIO5VxlZmaiW9dCDOzfD/369UHnOMaYTNWT94pf5v6KZctXoLKiyvTykfG+1Ygt0aN7N1SUV+Dn2XOjvX7kvEgV3fDIazj2PMl+rFm7Dn8sCL9nrFy1GuUVFfB5vWbc9u3T27wG+vTqudnrUo5H9iEYCuHlV97AN9/9YB5aAixZjVSCBNlkrMhKbhkZ6THvOeHX3e9/LMQfCxdh3br1qK6uNq87ea2JyeBBA4xPY2NLVqBbsmQZfp33O5YuXYaNxcVmcZjw+2c38zgy9rt0Lqgz2KirAusvhx5o+hpKiL94yVLMnv0rlixbDvHPzsnG4IH9zTHJCp1tUTmerK+tePc73gBrY1ERnn/xVTz34v+wMabySqYNnnLCsWbaoNdb93vRT7/MMWM9dpP342FDpf9qeGsowAoGguY1Mnvur6Y/ZCgUglSJDRs2BMO3GGrGV0NbVVW1+Xyf//sfWLJ0OeR9QT575fXbrVtXyA8M+vfvi055uXU+jHw2/Tpvfo2enfL6HNC/r+lDuWjREvwyJ/y+UCXjNDsLQwYPwsithzc6TuW1t3zFSsyb/wcWL12KoqIS2KEQMjIzzH0HDxqIgf37Ij+/E8d7vIM6SW/HAKuNTlyilVdyqbuuOoSbv9+ApxaWIdSBel415ZQoW6NbhoV7xnbFjt3C00Ia+smGMz0TwZXQS8+FLn0LSvnZC6sp+ClyH/kiaaYIZm4P1eNqqKwdoFW6Wao6ni9+0TEl4dG39L0AACAASURBVFXIxttzluLej2YjPzsNh23VD/sN74M888VY4i1TO5hQmJXIe0iKnBIeRkTADQGWXDA+9eyLeO+Dj00TWvlSHDsmPZaFzKxMjN1hOzMlR8KZuja5nzRRfuq5l8yFcjAYrPFFV15rJkzJzTE9qo464lAMGtDfPJR8iX7q2Zdw/0P/Cf85FDIXpc7mj1k+fOedtseMaZeaC025aH30v8+gpLQUgeqAuSC/+PyzsM9eda9CKGHTiy+/hk+/+Bob1m8wz+EEyPK5kp2VaZruytLmw4YMrvP9QYwkYHvtzbdNQBMMbvIKfz4pcwHdvVtX7Lv3HvjLIQeaL911bRLufPjJZ2YqilxIB6qrYUtQHlnoRPZJjn3U1sNx8vHHYNTIEXU+jvj9+PMcPPHUc/jp59kmADOV3tHHCdtLuHbwAfvir4cfUmcYKQ3xZWVM8Zetb98+uOLSi82qlg8+8gTk4k0ec+sRW+D6WVciv1NedH/k/H/x5bd46dXXTXghwaWzD3LuvR4PunUrxP777o3DDt4fBbVM6gqw5MLulutnmAuufz30mAkLZVw558zjsdCrZw+cedqJ2H2XsY0GDW5942mtACtk22Y8SKXI9z/8ZIIhqVaKfX3LGEvz+81F9OGHHmgc6ws4S0vLTOXJq2+8DQlL5fGdcyEX7QMG9MMZJ59gwprLrrwGy5YtN+Qer8eM35OO/1uNUyDhzKeff2Wqp+bP/8NcBMcuaOG8Z8iF8I7bj8FRfzkEw4YOifaFeuudD3Dn3f9ERWUVQsGg2R9nk/cH5/N9xPBhuPaqy9EpMl6lifaHn3yOZ55/2QRn8jqMfV4xkeORi/OjjzwM++2zV72hhASDTz3zIj7+9HNIZY5j4uyH4yvTYWXc77Xn7kivNcW5rgDriMMPxvnnnI6XX3kTTz/3AtauWx89d+b15PWacPnC8840ARm35gnEE2DJ+9/Tz71swit5LTibnIdzzjzFnI+Grk+eeeF/ePLp51FaVo5gIICs7CxMuvg8jIv5gVV9AdaJxx1lPqffevcDlJWWRce6fN74/WkYPWornHHqCdhi6JA6IeQHE7Lfb7z1nvmBi/PZJzeW8ST7LYugjBk90nzOyw+Ban8/ls8oeV2vWx9eIVFWPZ544TnYbZexePHl1/HM8y+Zf6vxvu/1YuuttsQF55yBoUMG1blv8vkt+/baG++agM95j4/dN7/Ph5EjR+Ck4/6GbUZu1byTzXu7WoABlstOj3MRXBEE/jl3I+6eU4QqaV5uWZzg1sC5Mo3eNXDyoGxcNaYz0j2NV7rI1EOtq4ANT0GvmATocihLVgFhJZbLXhatvDsKUpAHeIHsvWF1vwLI2Aoa3rgDJueLvvxeEQjihe8X4u8f/oI/NpbBsoA8nxdDuuTi0BF9ceCIfujbOQfRnqvypYDTglv5HCf3w7d3gCUXTv/3jwfMRaQEEJsu/rzmC61c2MVe7G67zda45KLz0L9f3xrw8tPTF//3ugmT5Muxs8lFoFxISpWR3CY2mJEvs+ecfjLGbLuNqayVAOve+x80t21ok+q0WVdOMY8rqxDe888HIRUQssmF7uSLz99sFUJ57g8//gyPP/UcFixYVONC16z4Gwl6nOeVfTv79JOx0w5janyJl74k/3roUbzx9nuI7WciF/xSpSQX0dWRFabksSR82mXsDjj7jJPRt3evGocllRQShD3x9HO1zLwmiJGLbOeiWvZRfsp9/jlnmIbCtS+SvvrmO/zfPx401VfOJvcRIzk2Z9Wr8EVHOg49aD9zsZOTXbOi7sFHHscjjz0VHQv9+/UxK2nd/+9HsWLFpiXiJcC64ZqrogGWXLQ888LLeO31t6MXN87Fh/we6ysmu+2yk+lRJFVZzlZfgHX8MX/Ffx5/yhxbrdMUva8EJlK5WN/Fm9vfJVojwJJz/u77H+Hhx57C0kiQFDs2ap8X+bOEikcdeZgJl2U6c+wm1XyPPP40nnnuJUgVY+zmXOjKeZYxc9QRh+HxJ581VXPmE9jrxZmnnlgjwJKg582338MD/34sutqoua3HYyo2a79nyL/JqnAybuQ1Jc/51jvv4+bb795sf2qf7623Go4bZ003AZZcuL/+5jt48OHHa1TDyGvK55PXcM3wXO5zygnHQCqiYoN0eY6Fi5bgznvuw7ff/VjjfVJuJ8GCjGm5GHe23JxsHHbIgTjx2KNqBMh1BVhH/uUQDPn/VZz3PfBIjX5IsccmAe4uY3fEpRPON1Vj3Jou0FiA5VRevfDyq9EqVSdElJ5Xo0du1WiALqsQ3v/gf1BRUWF2VMbDZZMvrrEK4S9z5mLKtFnRvlpyO1mRMjMjHS+/+ob5TK5vk+qvSyeeb6qIYzcJP2UcvfP+hzXuL/svYyj2c17uJ9VcEy86z/weu8kPpi6ZehXWrgtXkclniUxzrayoNJ8RUtFV1yavrZ123A5TJ15gfogSu8l9Hnjkcbz6+tvRVVid9wz5/hAbLjufgxePPxvbjh7Z5GmaTR8lvGdbCDDAagvlOJ/DCa/kWvq1xeWY8NUaVIfC0wYZqcSBaNsoTPfgsXHdMLwgLRoQ1Fc9E/a2oQKLYS+bCJS9ZUIMTiWMwzqFbiJfgJVKA/KOhdVjKrS3t1mlLJEpg8Ih46mkMoDHv56P29//GRuqqs1KoRJOOdUSPigM65KN03bYAoeO6o8u2ZumKsQ7tZCVWCk0+OI8lPYMsGS83ffgf0xFhRNwyJdZqfLZdexYM61ApoxJhZBMPXC+VB55+MG44NwzzRdfZ/tt3u+YNuP66AWrfGHdYtgQE1TIlD6pCJr763x89sVXWB0z5W+r4Vti1lVTTeN6CbC+/OZbU0kljxd7kRz7E9eePXpgyiXnRwOsu//xgKkska2+AOu9Dz7B3++5z1QxOFvXroXYYcxoc1ErF/gyZbG8PPw48pqVKQvTp06sUd3wyutv4a57/xVdcUouVHfaYTvsMGYb5OblYMOGIvzw4y/mOJzHEgsJjMTMmTYp703vffgxbv/7P8yUO2eTYHC/vceZKRMLFy/DBx9/YqbjOZtciM+6cqr5d2dbvXYtrrnhNnz/w8/Ri2j5Sfqe43Yx0+ukEkpWa5wtqzVGEqC83FxMnXRhjQsnebyHHnkCDz/2ZDTA6tO7J4YOGYz3PvjIhEdyLGIzfIsh0QBLgjipnHvpf6+b8yyb3G7Y0EHYasRw82ep4Prtt/nRqjq5cJKLsovHnxVdeKCuAEvGkEzh+vqb780Fel5errmwkwv+2IoZCfwkeLnw3DPiqqqN8+XZZjdr6QBLzvPnX32DW26/u8brTQJN6a83bMhAeLw+M43oux9kWmg4AJZNxuj5Z58BaSLuTIWSx/v4sy9ww81/h6y85mxyngcPHoBRI0aYwOb3BYsgF+D9+vYxFVrOdCk532eddiJOPG5TBZYEklfNugkLFy+JPp5Mld1z3K7o3auHuXCd9/sf+OSzL6PvKzL2ZErS1VdMNkGZVI1KcC7hu1SHOP2I5PnksaRCRDZ5rctYk9e6jMWZ199qpjk5m4yr/fbZ0wRG8v705tvv1wj9evbojutnTjNTGZ1NnlPeCySEdsJ/mWK917hdIe9rEmrLVOUvvvkOP/70S3S8ynRGeS84/JD9o4FHXQGWhIBiuWjxEjMNUcKCtWvXGdPagfCUCeNxwP77JOXYb7MXWSNP1FCAJY3ZpUpQfkm1kPMeJyGKrDa49Ygt4wpTJMCSIEnCYNnqDLBmS4A101RDO9v2Y0abaaTykx6Zgp+bk2PeA2XFQuezWW4rr+/jjzkSZ512Uo2x8NQzL+BfDz9mPgtkk9fRlsOGYPfdd0F+Xh5+mT0H77z/UfTf5XW93957ms/Z2AVRZKrtJVM2BVhSuXnuOafhhRdfNe0C5AcSGekZWLV69WbjVMLhyReNx0EH7hu1ktfNy6++aV5H8kMmZ5OKwn32HIfCws749bf5eP3Nd2v0GpNq8Csvn2Q+D7ilngADrFY+p4lcbMpFrnxh/XFdFS7/eh1mb6yWb3gMr+I8R+FVCjVOG5yD6dsWwC+N2RtZkdB8udWVwLqHoVddA+hifrjH6Z38N5PKqxBgdYLqdDxQeD7g7xfTP63xZamd17e8blcWl+Oxr+bhvi9/w/qKavMlwhOprHICaCekzvV6sHP/bjhm20HYZWB3dM5JD4/VCGo8UxaT359HEK9AXQHWuWediuFbDov3IcyXQflSG7vF0wNLekBNm3Gd6QW16YvjQFx1+STIdBfZ5ILpljvvxSeffRG9jVw43njNlTV+yitVGff+6+Hol1CpiLnyskvMlAFnzEtl0nff/4jb7/qnqbiQKQG5ubm4aPyZ2H3XseYiOmSHTC+sq2bdGA2l5IkvGn8WDth3r+hjSW8ZCS2kAquxAEsulK+98Xb8Nv+P6DHIF22Z+rDtNiPNl3658H3/g0/MT5Hlwtv5ki9TCaUSSy6EJeSTx5EwyHl/2HuP3XHR+WfV6D1SWlqK199+Hw8+/JjpAyLVJL179sTV0y41vZpkW79hA2Zed2u0Z4/8nUynnDRhvAkY5NikUuTnX+bg7n8+aL7EyyY9fGS1ySMOPcj8Wfbjjbfexc133FPjAuDQg/bH+LNPNb6ySW8ruWiXix7n2A46YB9MmXhBjZWypHH+vx/9b/SCXHqh5ObmoKy8AnvvsZupMpB+YVLxttP2Y0zYIVNS7vrHv2pMqdltlx1x7pmnoW+fcCWAVOI89t9nzdQz52JfHveKSydg1513NOe1rgCre9euKCjoZJaal2BPLtyKS0rxwUefmsq12Gk8MgXuhlnTTeCVbFtLB1gyvq676Q588dW3UYqsrCxT+SPnXSqtxFzGvQRE9z/0qFm9z9mGDh6Ea66+LFohJ+f7tjvvxZvvvB+9jdx/nz13x6knHRc9zzJNSaboyjQnCVqci1LpZ3VWzKqAMm6lmkQe05n2J1Uj06ZOgDTCdioMZUxIiHPn3febIEcugjMyMkxVoPS4cs6/BHFXXH1dtIee08RdXgfOJtOLbW3joYcfN5WiziYhnbzGpepMLtblu+N7H35i9s0J6ySMklBAqgGdTV5LU6dfE616lH2WqaxHH3l4tNeWHKc4PPrE03jl9bfNdxC/z48x247ClEsugATJstUOsOSxpH+XTLE85MB9TV8leb+Ufn/yXiuVNDIV1Nn23WuceTw5Rm5NE6gvwJIKqQULF5rVBp0fgEiV4KiRW+HUk441fcga65Hm7FFTAyz5wYb0DpRekPJZ70/zo6S4BO9/9Cn+/Z8nalToyWf3dTOuiH4+y2f4tJnX45fZv0ZhZNq1fM6PGL6lGZMSlkkls7w/O1thly64fta0GlVY8lk6USqwIn28JLQetfVW5vPg2L8diW1GjoAsQCFtCZ585kVTARr7g4a999zd/ODEqe6UlRyvnHWTmd7sbPLDmWlTJ5rPZnkdSOgmxyitCZxqRpmSf/2Maaa3FrfUE2CA5ZJzar7oao3VlSHM+m4DXlgsTcW54mCip0emEvbO9OCenQsxpkuaCREaCwNMQ/eKOQgtOweq4geo6NyuRJ+dt08WAWnUDplC6smD1e0yqPxjoT1Sshye4x/PFvuBu3hdCW556we8MGcJKmw7GpzWFYGFpPeVBmSs5qenYe9B3XDe7iOwde8ushhmdLw2Nm7j2UfeJjUEagdYpg9FRjosFd9YlWRUgp0JF5xTAySeAOud9z401VVSQVNVHTAXm9K4WHpIOT91ldeCfHG/8+77alT3XHv15WZKgLPdc9+/8eQzz0e/rEr/jOtnTUfXWtMFJKT632tvmvdvqbrqnJ+Prl27QCocnE2qbeRi1Kmqkr+vbxXCxgIsCZ0kkPnP40/XqFqQPhqnn3JCjV4/UvFx69/vwWtvvBO9rVw43HrjTNOMXS6Wpf/H9z/+HN1XmVYk1RSxzaHDF6SrzDTD/E65ZgW9zgUF6N6t0PwumzSbvvqam6JNgOXCXC7KTznx2Bqfa+L/+lvv4pY77olWye06dkfMmH6puZCXiqfHn3zG9ByTn8TLOZTjOPqov5jAydkkqJBA46NPPo/+nTTUvunaq2v0onr4UVn98YlopZSMRwk7pCfKYQcfEK1oCVe3wlw4TZ9xvWnw7mwSTM2cNgXbbze6xrEsWLQE02dch8VLlkVvKwHDhAvONtUldQVYEpBJs/jzzjrV9GdxNqnCuuGWv5uqIGeT6pcbZ12JbUYlX3+Ulg6wPv/ya8y64bbolB75zJF+bBJY1h6rEiA98NBjJhB0LhDF+uILzoYTAEkAecnUK03FlrP16NEN11x1uankiN0kAL7mxtvw1TffR19HMr7PPuMUHH/0keamEs4+/Oh/zUqjzibVTRKa9elVc/qTvAZk6q/P40WXLgUo6JyPws6dzeISToXYvPkLMPnyqzcLsGTcxm4yDUymyP65cnXktVKF6kAQky8eX6M/j/S2k8eTijJnO2CfvXDF1AnRsEKaWU+5YmZ0yqyEGNLPSMxqf9eYPWcuvv7uRxN0m/eD/HwTZjvvs3VVYElz7jNOOQ6HHLR/jYUgTOXaNTeZ6YuxdrLYQWNNvGtg8A81BOoLsKSKWD4nY6fHSeWR9DI798xTEjKPJ8D6efYcM4Uw9vlkheHLJl2MsTtuV+M9VT6TbrvrXkgvOGeTsHX6ZZOi7//ffPsD/vfaW6iorAh/zldVmf6MkyecbxYZcDapwLr2htuiK/9K78vLp0zAgfvtHb2NLKAh7wOxjejlffec00/CoQcfUOOHITJOr5x1Y80fkA0cYD5P5bNfNlk05omnnjWLPjjfQboWFuKyyReazwRnk0rwK2feGK1WlteNfG7IZxK31BNggOWCcyrVGdKPKWgDLy4qxdXfrUdRQOrwG68AccHuu2oXJBjwK+CMoTmYOLITMr3hqQwNbSY8DJVCr74d9upbIdeEnEboqtPaojtjZsfI//kGQHWbApV3BODJMq3PpNdcPFt0uq/WmLeyCLe88z3enL8C5bYNy5l+2MADhSuytFmByC/TkApycPbYLXH46P7ITU8zF32yNTZ249lX3ib5BWoHWIkekYwjafY76aLzaty1sQDL9EWKNFm3Q7apfAoFbWjYpmpHvrw6m/yUd+a1N0e/2MrFmfyEVIIzZ5MeRdLk27kAli+YBx+wD2T5bwmnpIIpttdUQ+O/JQMsqQi54qrrIBcFzpaZkYGZV03Fzjtuvxn3R59+jgULFptgS45BLryl+kF+Yi09r6Qy7JPPv4reT8IdmRY1bredzRQ3qZIw7wDyPhRTeVn7iaTZulS9OFM3JfSZNX2q6QdWe5MLgSnTZ5pVBWWT6UQ3XXeVqdhy+lvJRb4EEVLdJL+UsmqsJCXBljPdyXl8qXi57YaZ6NWrR/QpH3nsSTwkAVZwUz80aWp/1eWTazRsd+7ww0+zTRVf7JLvMs3xhpnTNmtcL37Pv/QaAoFqU0EgF4G5ObnYaccx5ifydQVYsirepRMvMFNRYzc5Xml8f9c995tp3LJJgDD9skuw3957JPoyavfbt2SAFZ4a/AieeOr5aLWb+Erlg1RA1LVJKDt9xg2mSb9s8vqUKZ5TL7nAuEoj+Muv3nSe5XNsz3G7mSrL2n2h5P4yvv/178c2VWDVCrDk/Ml0LKkudKoZ5Xn23XucqWCSsSlBm/M+IYGpVHvUt8UbYMnzyntU+LViRxeLkPe02JXXZFrvtBk31KgMkanCUtniTEuUVTYlwFq+YtMUX6l+Oe2k4800bFmswqnMkddkQ1U6dQVY0u9LFquQ3nexmzyWBNoyndmxk0DijpuuQd9IhWe7D+gk3IG6Aix53UiILoGNjEVpvu9Mbc/JzjI/KJAm/9m1egnWd/jxBFjywwCp7CuJmaorUxVnTJtiVgmN3eT8v/bmO7jptv+r0cNSfjhzyonHmH5yZrzL54It49024bH8WcanVCo6m0xBlx/QONNw5e8vPO8sHP3Xw6KBrPwQ4pIp02sEWPJDnhuumb5Zj0d5Htkv6TfnjFOpjr3j5mvMFGPZ5D1fXpO2LX3nIq/HYAj5+Xk1QmDTe+uyTZVfst9nnHI8Tj7hmCQcadzlxgQYYDUm1Ab/Li9a+XK1sCiA8Z+vwc8bAia7kt5X3JogoDVG5vtx19hCDM5tvBG30wsLFT9CLzoBCC2RJAPsPNYEe5ffRcsqgzoEnbYFrG5XQuUdACi/qbyKNyxyqiWlh/TsFetxxStf4fMla8zrNd7HcJjkkkoqsixbI92y8Let+mLSvqPRuyC7RmP3xh43kanKLj9F3L06BNorwKq9K/IlUsIeqTyQ6hYp2w/ZQdMzrrSiAnfc9c9o2CJj9vJLL8ZBMT1XZPW5mTfcUuOnxnLBJtMBpCJGpkRKdZeEWfIlvKGLuZYMsGSFsImXTq/RJLpXz+645fqZ0el8tS8Onddk7GvT+W+pTpJG1rFN0WUK4oB+fbDNyK3NcuZSWSEhk4RSdS3iIK/pW+68x6yg6Ly+pXLi4AP3N6FO7U0uPF5/8y1T1SWbTNGYeeVl2G3nHTe7rQRVcrElU11kRTT5abucWwnwP//yG1PN5WwSyt16wwyz0pqz1Q4iJcCTi6GTjz+6ztevXETL2HB6X8mNDthvb0ybMqHOitdwuBb+/lP797oCLKnyuf3GWTX20dmRL7/+1vRdc/q6yN9Lpd5RRxyS8Pt1e785tWSAJWNAKnQ+/nRTdZqMr9tunFXvanUytiZcOq1GGCMhjEwVlmmbMmXz+pvvjC6WIK/fk4//G8487aQ66aTS79qbbo/21pLXiKzSdtzfjojeXqoqZD9jw08JkqQ6Q3q3jRi+hQlvevfsYSoXZSzWt8UbYNW+v/Spkx5ysvCEVLOEF07Q5nX7/Muv4oeffoneRfoQyZQqCcBlk0bcM6+/zaw+6GwypqUycouhg7HN1sMxePAg9OnTy0xrlfvV93lfO8CSx5Pm7LJYRWwlivM8/336edO/0HkfkiD95utnbFYN197jOpmev64AK/a8ymdXXl6OmeLubF0K8k1l4YH77x1XhX9TAyx5/EkXjd+selL2o67g6ZAD98PEi87dbLXL/8fedcBJUeTd1z1hc2QDOSM5R0FEUMwBUcwZFbOoiAEQRDChqKiYPe8+PfXU88xZRFFUkJxzjrtszjPdn696ephdZnd6d2dnU9X3u887t7vCq6qertfv//78LeDvO9d8RmY2CvLzvcQXf4uenveS+N0wyy03XotLLxrrHRvDeCdOnibeE8wyfOgQ4WPpj8hm6CyTJfBjGYtYp7NnoGuXYzMlsn0Sx/Sgo5ck96bbbdxHNfab/3wXh9OMdvn8ufbKS3DtVZfVpyUm+2oRAUlgWQSqpi4zlRzZJRqeWJGBNzblwGGToYPVwZuhWZE2BZN7JeDq42JgVwJ4YZnpyPUC6AfnQk+bw/guSWBVZxLq4L1GlK4CJfJ4KMn3ADEnAoqhdqISwUoxwwbzi134aeM+PLNwNZbvPyJUFCSwrNXiryUdbh0IV4BhbVNw09BuOKFTM4TZbYYvViXIMT5TAhFeVsYqr6k7CJQlsPh1n+nizUOSlZ526tQeF18wptSlgRRY5sV8YfxzyTKRhZBmygz/YUihy+3yZnwz/IlKZ8S7f9IdOOv00d71yHAHZjNkWKJvFj6zHb5w8os1VUokTnp074rBA/uhXZvWpb4C8/pgElg0gZ50/wxvaBHrp8fOE7OnISE+3gq8pa7ZvmMnHn/6+VKG6L4XULnFAz8zLbVp1Qp9+/QUCi76l5h7ly/zD8+agwU/LypVd0V729e0mdcxFOycs07zqNqAPXv3ioP00mUrBdFF7x6GEhp+U/zNM0h4X6KJBzISWObXcHaGB47X33rHq6Sj+uCBSXdilE84om+nmQDg5df/WSoJwGUXXyhCaypb/BFY7du1xdwnZnpDTnzrpKcLlWk8kJmFoYb0KbIaLl7ZPtbU9cEksOhnc9/UmcI/zSzcc889NVsQq/4KCU+GzG3ess37Z5JHDEujuueLr74V3nXm+uFh9fabrwcTOvgrVHRNmf6oN+SHBNZN11+DS8YdfU6RAHr1H2/jUx/zf9+6+MxgiFNiQoIgvkloDR7QV5BwrM+3VIbAMg3ff/rlN6xas054f5G84nPLeA8w9gsVXwWFRlIClgH9euOxmdO8iRj47+gf9tyLr3q95Xz7JBQ74WGIj41FckqSyKDIpBH07WF4oG/xp8Di85WqOX9ruSxxzPoem0lPoO41tUQbfL3lEVj8YNClUyecfdapyM7OFSHb/NjDwjmm6u7mG67FwP59AnphVZXAumTc+eKZWnbdsw8bN2/BvQ8wlPVoghImQnjw3ju9nmgM3SdhTFJ7y7btov8k/qnOKvWRVNdBHMzCPXvZJRd4Fdn0y5xIBZaHwOL4zz37dJEF09/v1/8++1Iof02jeaocaS1A3zCzkKhauXoNFv6yGJu3bkV6OvuWL0gv376Zai3ex2cDM4Myk64sDQ8BSWDVwJxW5gBpEFjAwv0FuPHXQ8hj6CBPrFJ9VeWZIYFFTOmB9fKwZDSLtAk8/X3lNhsxiUQUrIa28wqgZLvwwpIqrCpPQ525UfhdecJ0lZjToDadDj2Cpo5U51kP0+MXV+7NomIXPl6xHXMXrMLWrDxDKUnD9iCMmEpMG3S0i43CPaN64aL+HUWb4pFgMbxRjFWSWEGYjbpThT8T9wcnTxRp4itTyr7YWiGwSF69+ubbIhU9D5O+JAnbFs9VM1mB+THA89LOVN30n/B9aaWxK71qvvnux1IZlPyNg6ENVNdcc8XFOHnUSaDJs1mCSWAx/I5pv309O4YM6odZ06f4/ZodCHNitH7jZuGj8+fSZaWM08veS2w4L8xgxcMHSTsWKmRoXOtrjB+o3bJ/v2XCeFw6bow43DK747yXRVfwHgAAIABJREFUXhXKADOE0/d63wOwr78fiYk5j80QyjizvP3uByL0y6yH/iYPT50sSFV/5b+ffI7nX3rDJ1TMgQk3XI1LLzyqtLE6Nn8EVtfOx+HJR0v7dJn1MQMXQ7jMwyT//Q3XXYErL70o4EHSap9CdV0wCaz0IxmY/OAMbNi0xdt9hpY9++Sscg3uiSGxJKZmYQbKpx6bKTICfvL5V4KoMQ+iDKW6+86bBYntrzAM6sGHZvl4vB1LYPE+qq/e/eBj4TtH4/mKCg+tVGddedlFOPes0j5TVgksrv9ffvsDr7z+Fvbs3V8q7Mpsu7z9QlPpxx6Zhmgf3yCuWZJYJDU2bd7qNaT3Nw4SYszQxoQVNLT3TTZwjIm7ouCCsedg4q2lvQ3NevmMZRihGc7GbGyPzngQfXr3DNWSbXDt+COw+Pzmb/ElF54vVEMkOhliTe9F8xnJ5zw/VNx12wSQcK+oWCGwqPq7f+pM5OTmeauiPyLVRqbnm28bDK8j+eyb3feEoUOESTsJYH6Q+sfb74ossex/2d959t/8HfeelzwNMHHBlZeN8z5PmQlx4r1TvW1xrxCbW2+6zu+waQrPTLsm8c2kBbMfflAkKGDh+qWakOHEgfpWNussE1LcOP6qBrcO5YCEj7DHGECiEXIEzIdAeqGGh/5Kx6e788Q3HUleVX8qSGKF/e3T/VDfRFxxXIzXHLu8r9fGNtChu3OgH3gMevqzUBSHZyrMHHLV75esIbQICPKKJv1qNJTYC6Ck3i0yDUIh3WQ95E+QV9CRW+TC239uxPxf1mFfXiE0n0yDwRkZZWKGR1dyZBgmDO2CawZ3QVykqRSTYcXBwbl+1eKPwJp6/1048YSh1RpIIAKLXzc/+O+neP0fbwtvJxY+Q9u3a4OhQwaibevWQmlAcnX/gQOY/8qbwq/CvO6eO2/FmHNKE1jmCykz5vFrLwkVmj9TIZOXn1fKV8kcHLMBTr3vLtA3ySzBJLCYxv6u+6aWMp/mgYTm0/yyXtVCpdqqNeuxbMVKoVrh4YGqJ37V9n3RNutn+BHD6pKTk8TBZ/qsOfjJR4FFNRi9zKIijfCkQKVp0xQwdIMv/U/MfR4Lf/nNewu9u5gNakC/PkhJSRbjZJ/4hZsHX7PwAD3n0RnejJP89/4IrJnT7sOgAf38dkmEls151hsqRgXarRPGi4xulS3+CKxuXTrjydkPHeOnxbrXrt8o0s37hqCVPXBVtg+1dX0wCazMv0OA75vyMNasO5p1jPvs2TmzylVgpf8dcnpPGQWWSGDw2AxxD9PYP/XcfBQWFgqIGOp6+y03iEyA/sqSv5bjoZlPHM3i93cGvZtvvBbM6lm28PnDDKF/LV+Fdes3CDUT5zQ3L98vIUsSa/Ldt5cytLZKYO3Zuw8zZj0pSGizkKQd2L8fevXs6g1VpOL0/Q8/Edk7zdKnVw88PmsaYvz4He3Ztx8rVq7GipVrRLZEkojMlsmxlT2KkbznXp8w/movie4vC+GFY8/Fnbfc4BffL7/+ToR7kZxgoZ8R/bn69ulVW0u43rdbnok7ffVons7CuaQK6eU33sLi35d6CVB6H44+5SSMv/ryCrOgWiKwVq7B/dNKE1hMOsIMl76eVSbg/L29d8rDIgzWLKNGDBdh/lQAMkvsc/NfLZWxtXXLFuJ3vn37toiOioJqs+HIkSOY/+pbYBZds4y/5jJcffklFRJYTMzAve2vfPrFNyIBjPmOIYjWh6eAe4mFSTjok+Wb+Zdqy6FDBgmlZWx0NFSbIj6Ivfbm/3k/RJE4u+KSCzDh+mvq/bqTAzgWAUlg1eKqEEaRGvDNnnzc+2cacly69L0K4nzobg0Dk8Pw2vBUJIWrQilQYfiFkIW7gdxfoe25BXrJThFaJg3dgzgpIayK5JWu00slBki4CmrKROiOpt4wGStEse+Xpsz8Yry2aB3m/7oOuS63IK8qUvVVZ6jCGlnTEOt04MbBx4kshQlRYaLvLIFCBKUCqzro1717a4vA4gvjAw/NwmqfAxrNvKdMvhs9unUWyh6uRa63b75fIDLY+RIzJLDOP/eMctcrw3R4CORhetfuPdi4aSvWrt8gDtXmyypng6oKhkfQa8MswSSw2D59kni4NAvTnxvePtHHLIjK7C9ey3Hy4EP1GbOCrd+0GWvXbgAzlPl6M0VHR+HBeycKs3fe9+QzL+CzL77xHm7pDfLE7OnCO8daMUKcGALFUC1TvcI5GzF8GO654ybEx8cJApJPFn7p5pdwGv6ahf5kJLB4UDCLMJent47Hs4SH+4oIrHUbNuK+KY942+fhnKnlq+JN4p/AOg5Pzp7ul8CiUoGhciTxzEKlG0MIraa1t4Z1zV8VTAKLpMbUhx8DMxGaJTkpSYRikqD2V0g0U1lBgscsPbp3wZOzpoOHzrKeVpxnZsy87mr/HjTf/bgQTz79vDeTKA/4t0y4DuPGnlsumOKZ4XIhOysbu/fuE6TW2nXGM4P7y7ecefopuPv2m70EkFUCi+t/7ryXvHuTCptLLhwjDK9J/Jrqq4zMTNw/bVYpAothT0/MegjcE/4K9zXJaapZSZxv3b4D6zZsEs9YZm8zwnmN0qxZUzztE77rl8A6/1yREdZf+fjTL/E8Q7M84V6co8fKhGbV/KptWC2UR2A99OAkEe5uFs7zylVrMPf5l0X2V7OQLLr4wjG44pJxpcJMfVGqKoHFbLd33HKj348uJH4feOgR70cEtsdMmHfdPkGEkT/y+Fz8uvgPbzf4W8Ow8IED+glFl/nO6c9T8LqrLsU1V156lMDavdfjKXlI1Mf9cvG483HbBP8KrA8//hTMUEzVMYsIdX1kKnr16Cb2Az+++Gb9pUKL5PQJQweJNs2+8ff0XqptPSQd273s4rEidFOWhoeAJLBqaU7Ng/HhQg0zl6XjvzvyoNiq7qBTS8Oo081ShRWhAo8PbIKx7WOMLHMBQsbE4cudBn3/w0Dm/xk+B0xtKEu9QsAgrzQo9mQoiROAJlcD9qbG/FtUOZp7lLO/7XAWXlq0Du8s345CGgyrqqHqqyFU2CZzvUHTER/mwPWDOuGm4T2QSBKrjLmxvy6U8iuooT7KakOHQG0RWDyo0rSZ6eTNMuKEoZg+9d5SRuI8UL71r3fx1tvvlQLlrttvwgVj/Jtl8x4ecH3JWK7bvPx8EWbD7Hu+/jzMMEeSxDSBDSaBxZCn+a++iQ8//szb/5SUJDz68FS/hsdUFP32xxKBARVozEJFwsvXs4MVcTz0zClrus7fGZJmS5etwMuvveU1j2eI5PhrGd42TvTjnfc+FKF6pgkzCa6p9919TLY9s63yiG2mT3/ymee9B3JieOuE645RQGVkZgkijwcvs9DYmwTWcZ06eP9dZQksKs+ogjK9k/jcHHHiMJENMMInDTob4FhpPM0v/PxbRGSkyGx48knDhTeaPwKrU8cO4qDfpEniMZvyjz+XikxxZhgVL7jtpvHiENmYPbC4NufNfxUkxUzSmetryn1348Qy2RxNUEkGcn2Yajaut1NPGSlIVx5yScRQ1eUbrnnS8KGY9sA9x5iMs82XXntLhAWZYVaGMo/r0j+Bxes4Z2Xnjf449ObjM+j3JX95x8NwXJLQXD8sVgksrj/uPZNMEtk/p90v/It8y85de0RYFokls7BNqgF5yC5bjOyGbpG91LdwXAxf/vaHn4S6keNhoU/ew0LZ2Ff8b38eWOedc4bwFvJXjCymNHE3VLHEgXiYYcp+b5L/skIErBJYrITE0Dff/yj8An3JVX4UYNKL00aP9Gak9W3UCoFF/ziRDdCHmKdaatoDk4756MK9/tmX3+KpZ14oFb46/porcNXlF4mPRffcPw1bt+30doPqJ5JIXINmMbO6MkzYVzFIYvc6EbpohPjv2r1XEN0HD5kEloKxY84R4ZP+SllPxQR+qJn1kAirz8nNxQPTZoHjNUu7tm0E0U4cfcv3C34WhDjfIVj4nGAGyNtvGi9XdQNEQBJYtTSpjFhj1qBfDhRi4u+HcbjQzd1WS71pmM2SwKKH1fCUCMwblowmYTwsVaxeEQ9lZqnL+hLa3olQtDQoCpVZstQXBHQR7keLq9ZQmk4B4s4G1Div4CqQeom3eskrHdh4MBNPfLsM32zZjwK3kakrGH5XVvDUoYtsR1FOG24c2Bn3ntIH4U7D2N2KJ1ZllCJW+iOvqR0EaovA8pdN6KQTT8CMKZNKGcXy8EU1h28oDZG689YbBUnCF8n8/HykHcnAgQMHwVCa3bv3iJd4f6E2POS9TfLmzX95AefX7dkzjnpS+SOw7rj1RozztOc7U/QieeGl171KDx7UJ915K0afPEJcxn3y48JFmP34XK9agc+Ja6+8FFdeflGpQwYJFh4Evvz2R6/XHIkVmiN3Oa6TCAniYYVqFSpEqNi4oBwTa2ZyeuSxp/Dr74YKxjCdvQg8WLAs/WuFyMBGHzLz7yReqEQr+xyjl9GWrdvEwZkHbuLKkCEeBr746js84xOiQULtNj/m2iTUZsyeU0r9xmyQJLA6+6i+3v3Px3jljbe8B+NACiyGlNGkl/NgFtY7/cF70b9f71Kbigo1kiRU5JkJLOgrxIM8zX39EVg80DDtOsPGyhaacDMczDcjJInVseedLdRp9akEU4HFcfs78NFsmfiQXPYt3CM0U//3ex96CSd6XN1283icf65h0k6i8p77HxJKIu88/00qzphyLziHvoXKo8eefBYMbTI/EZJYJblI0puFz4wjRzJx4OAh8cwgwXrOmaeCpKq/wlCk5158xRsy1/m4DiKTKNcaiz8C6/prLhd+Wb7luRdfA1UhJrHHPfXI9AfQv2/pMdB8+oWX3yilomTyB/qxca2SAGOfaQC/d/9B7Nm7RySHKC/Udu++/cKLz1S4MWzroQfvEZkGWfwRWFSZUSnj773mzX++g7feft9LxFFVQz87PqdkqRoClSGw2AKJ8//79wd4/8P/eUNrOVdt27TC7Tddj4ED+h5DyFohsJatWCUILBqvm6V1qxaCaO3UsX2pwZHQefrZ+UIlbRaSqFSNjTzxBPEB5c57p2D37r3ev9Ovi2o9399nhujNevxp/Ob5vTIv5v7hPjIJrN17DAKL+5aF42UyESYV8bdOqebl771JGIvfnMdmoHOnjoIsZ+gj7Q7MQkN8Zkv1fd7TP+upZ+bj6+9+8JJrfO+gmvOOckJsq7YC5F11BQFJYNXSTPCHMd+l46nVGXh1Q7YIRWJIkizBRUDVdcQ6VMzol4ixbaNgozF7AJyp3NFLDkLfcxf0nE+gKDT7liqs4M5MTdRG1RU9r3TA2QNKsylQYkYBarhXKxVo7tkrk7wiD7ZyTxpmfL4Ev+9JQ4nni06od6lJYkXabbhtWFfcPqInosKML12BFAQmgSWJrJpYb6Gr0x+BdcWlF6JlyxaV7kTb1q28IUKBPLCYqe6uyVOEkfHRl+SWQgXUpXNHsdUYlkbl0kf/+1wYFzNTmVno33I5sxPZbFi1eh2eeeFl7N9/APkFhUK5RLUFM9dRweRbDh48JAgXZkMyX4CZ8pum8GbY13K+wD80q9QXaIbe3XHz9cJDSqgd/g4/oIonEIHFNkg6kbyhysT8ukxfH4Y0DRnYX4QhkYj56ZfFmP/KG6VUJoMH9cdDni/fxOI/H/0PWVk5wpSW5Mo9d96Mbl2OK0X6sQ2aYc96fC6o5GBhXyfeNgFnn3mq+N/0yJk+6wmRAt0s9P7gCzn9shiOwnoYykTlxkf/+0K0QT+rDu3aYvLdt4G+RgsWLsKjc54ThIB4bigKTh45QoQeMayIajgSR1Rr0J+HYzVVNv4yQlWWwGIfeeiZ/eQzpbIB8iB/0w3XCIN4zmtaejr+790P8L9Pv/SSByRSrr/uSlw67nxxQPJHYLVq2QLPPjUbTVOSj9kPPLQR48qEtlZ6U4XoBn8EFpMkdO1yXKV60K93T7FHGMI2bebjYIinWXh4ZMgN9xL3KAvT0//xx1K8+Oo/BDFrFq7tWTMeAJ8pLDysvzD/dfzv869K9YfkFZ8DvJ5rgUQMnxc86B46lCZUFixlCSwS6Fy3JDMZast1zWcKlSt8Zvj+nnO9UtH11bc/eA/CJwwdLFR+5iGcCpO775/mVcPwfu7teybeItQcTKLCvfGvd/6Dt95+1+vHx8P+5ZdciEsvGiv2KMMv+Zx4+fW3RP+5z02ClEpFqpzoHUfcXnrlH1i46Dfk5hn+fjTOvnXCtWiamgqbT9QF1zU96p5+br7XE4xEHf20mKSApSyBxX93yqgRwojbXzjsi6+8CWYANdc+5/apxx/GcR2PqikrtXDkxeIDxzPPzccX3/zgxZUhb2VDCH2h2rfvAF56/S0xv74hogP698FtE8YfQzhVlcDic3DIwH64/NJxgrTl+yH3DUMD581/vVQGwk4d2gujdGYeZWbCSQ/MEMpnsyQ1aSIyFPbr21sQ/ZlZWfji6++FMpFrjRmFzd9JetYxs6upji5LYLHOM04dhQcn3+X3nZW/9f/931ElKNt++omZ6Ni+rfjNenD6o6BfnlkY9k7Sdsig/qI+Emvf/bAAb/3fe4iMisT+/cYzivv7vLPPwN133FTvwsXlVguMgCSwAmMU9CvMA/L2HDeu+Gk/duS6xI+myGYmS1AREIhqGk5vFYUnBiYhMYwEFn1bym9GzI9WAmR9Am3PjVBgmhJLEiuokxPkyqhUUhjYF9ZXZBpEzDBAdVoOGWR3DAWejmK3hl+3HsBDXyzBhrQsuIV/muETUxtFrDxNQ3JkOKaf1gfj+nWE3fPyG4iUk+GEtTFjwW2zLIHFOedhvrLrMTIyEvdPusMbghaIwOJLKgmUP5cefXlk2/wyyoxzfBlfuWYt1m/YhKapyejSuRO+//Fn7+B7du8qPCio0GnRvLl4iaYpubkmqRQaPnQQunfrJsJbqIxim1SG/Lr4T68nBg+gTBXPtN9mIeFy39SHsXff0fAdvkD37d0DXTofJ158eWimr48VAov1fv3dj3jm+Ze9pBjHShUTDd15+GZoBH1++DJvFo7t3rtuw6gRJ4gX5i1btwvFD0OazJdoHhKYVYwv5FFRUWKcu/bsxedffiNM7E08eADhgdUkBHjwpE8Q/Xh8Q0V4sKWBf7t2rYXx7cpVa7HkrxXeL/zMKnXHzTfgrDNGiz5t2rJNZI87nJbm7bfInEUT3I7tkJ6eIbIl8os5w1CooKEaxOw/vVKIPQmzHt26CGN/kgXmoT2QAov1sJ/0g6HRt3mI43tPm9atcPyQgYiOjhahi/Qh803RzvZ4OCSGLP4IrBbNmgoCi+SebyGuX3z5DR6f+0KpVOv+smMGd8fWTG1lCSzvc6ASDwKGj027/x5B2HAevvzmB6GOM8lN9pz78sRhxwvVHT+gbNq0FYsW/1HKCJ9+VTfdcC0uGHNWKdNoJmagqvBw2lEim/0kGZaanCxC4zOPZCI3Px/9+/bGxs1bvPVy/95+83ihjmPJy8vDM8+/Ikgps3DvcL307tFdHNL5v6lCIUlLFaW5Jrm+SdDyAGt+6OH6vvv+h7Bz525vfTZVRe/ePdG7ezcxVpLHGzdtKZV0gBfzGcQ9TOJp7759+GPpMtHumHPPxKeff+VVfXGPXH7JOPTq0RWqouJIZibmzH1emM2zkLTq2qUzhg4eCGZwZP/5LF+zbqOo58DBg+LDAAtNqpm8giQziz8C66QTh4kMoP6Mu+fOexnMAGo+X/jcoHLF18+uZlZqw621KgQW8Wd4Lf3I6NVmzgfX6OhRIzBh/FVI8lGPVpXAGnr8IBF2T49EJufg7wDDtn9e9DsyszK964rtMmsgw/64NxmyOueZF0QIq29hggb+9pGwos8c646JjRHktu9HBn6AoFI5IS4OnTq1F79Vd06a4lVgsc7RI0/E1Acn+VV2znn2RXz6+ddeXKismvvEI+JDG7F6bv5r+Ojjz7yEIfvcpnVLkaCEY6H3FT+88L/36d2jVLISKt2uvPxiJCUmiA8lVEvL0jAQkARWLcwjv/KUuDW8tzkX9yxNQ5hNleRVDc4DQwmbRdjw5KAknNQswlIYofiBcR0QKizkfAFFhBpIAqsGp6kaVRsm0kAY9OjRUFPuAiL7CeUcSyCCx2zYJJZzC0vw6eodmLdoHTanZZvGacLzqraK6Yll03R0aRKLKaf2xSndWsIhSCwrqkJj7VrForbGKdv1j0BZAquqOPGFdtr99FA6XlQRiMDiAZdfXV98+Q2hICivMNvdhOuuEqQMlUC+mQh5cCWRNWPqZKHkYl00LDZ9b1gnD1/8D5UOvJcGx2Yh6XbW6adg/DWlww1JiNCLg/3zrcu8j1+Y5zw2vVIEFl+8mUr8s8+/8fpomPWZZvW+GPBL8EVjz8PFF57n9fjhc+SHBT/jjX/+WyhMfL1CeOjnOB1Oh/gybprWsm4eLhmyyJAgvoibhde99+HHQuXmm0mPf+fBgvX7qos4x2efeRquu/JScThmIRHAsCgSAf6yH5rPhl49u+P2m6/HS6/+AwxRMftOAoD1XnXZxbhk3JgqEVhsg8QY54x+Jr5KBLN9X6yICQ8wDJccMsjI7sXij8Bq3iwVz82ZjeYeksu8lvXRBJ9m+L5EPpVpJOXq2/OwLIFVlecAU9OTEDT9Yxhe9N4H/8PHn3wuwt18i6nqKTtXJLiIH1Wgvh45vJeeb+9/8D+R9t4MfS3bT9bbq2c3jDn7DLEeTM8shrZSXUhSyCwMNeR6/GvZSlG3WajM4z7hXnK73ELtZM4xSaRTTx6JG8df5fW/4n1UiNHfimqPsmPi37mOnp0zGw67A4888TSWLV91DMTmc8DhsItECGefPhpznn2hFJHOPS786ibfhd5/E+rEl0SSb2IKkrfsO8dAoovz4CV2VVWQTAzzpVrOXKf+CCwS2TOnTS71zGCniQUzEJJoOEpgHVW2VGXtyHtQJQUWcTMyvP4miH/z4wD/PZWEY8ecLdR9/FjCUlUC69JxY7Ftxw7xMcPw71WPWedUU1FVNXnibWBCFnOt8MPMU8/O9yba8DfXJIyZlIGFGYepPDQLVbsMXWSYP8nwsgQWP/BMn3LvMUQr1yZN2j//8lsfAitJhIS3a9taVM/fokeffLaU+rNs/5hs5dKLLhBE+YuvvCH8x7x9Cw9H27at8fjMqaWIQrme6zcCksCqhfnjgyyjSMOVCw9iSVohwlRVhg/W4DyQwOIx/7L20ZgxoAnChbVDgIyEVGExg13mx9D23gZFLwCkF1YNzlLVqvZmGkQ4EH8RlNRJUJztaBAlKrRyQDGJK15f5HLjn79uwLxFa7Evv0iQVyJ7ZdW6F/S7SH5zPfdr3gSvXXwi2iQZmY44TitjDXqHZIUhQaC2CCwOjuEyb7/3gSAtfFVA5sBbtmwuvuTyBZVqKH7JXbl6bSnihlJ/Elj0dOHL+0effIEfF/xcKtzQH5AtWzTDmHPOBH15yoYZ8vpdu/aI1N9UD1GB6VuqQmDxfn6NprcNQ5xMD4+yfSOh065Na1w49hyMHnWSN8uZeR0PoiTpiBn7Zpoy+xsjD/MML6RSjV43/kKBSGJRlUZfHpJA5ZFQTVNTcMH5Z2PM2Wcek+GKYVjzX/kHFv+59BjCj23279cLN42/Bp06dcCCn37Bi6++iYMHD5fq8q0TxgsCSxApr77pJRSsKLBYEZ+1JPX+9e//YOHPv4pQUn+FRAa9Ya645EJ079alVNhJZRVYzCj32JznShFY99x5C5ixq749M2uCwCL+JHaoXqLKgQpCf+QOr+M6YWjqmPPOEooKM8Sw7BxyvVPNSPJkx65dcLuP+ogaisbBgvwi6URlYEUEFnf14cNp+O8nX+Db7xcIny1fotO3bc5nSkoyGG5M3zlTueR7DUmgF15+U4RVlSW+TQKLSr4Vq9aKxA706Cq737g+Tzl5BMZffbkgnmmW/s77H4Gedmah993s6Q8ItRhDjxkOzTEwbNgk+P2t/fDwcAwZ1A9XXnqRUMD5rlG/CqzhwzBj6r3HEFis+9kXXy2lXBEhhI89XCohQ0h+wBpQI1VRYJnD5z7jHmOIqmk0zr9RfXz9NVcInyjuMSsEFv0KH3xotrcerpNJE29F504dMP+1N7Fy1bpj9jGThAwa2E+0RbLJd21xL/A3jyHcvkSr2XcS3ldcNg5nnT4aWZnZeHrefCz+Y2mpvcFQZmaD5f6fOHmKN5SPdYweOQLTHvQf6vrUc/NLE61UYD0+E/S6YiEZ9flX3+Kf77yHNB9lp9m3hPh4obamdx49KPmx5udFv5Xa3xzvU4/OkARWA9qLksAK8WSKwzJ0/HGwEFcsPIQiN6DVldNxiLEIVXNCO6XpaBlpw8tDk9E7OUwQEhX5B3lJjZJd0HfdBOT/DEWxedLOSSVWqOauonZ0nSQVU07HAomXQUm+E4qjOV+zxTxZOZyYIYN8vT6SV4jXF63D679vREaxy6u8qlvbU2diQmEif3631njsvMFIjA43TN1lCHJdWJY10ocFP/+KfZ6Qruo2wOxCJAVYtu/YicV//FXqRZfZ9+irwtAa3xdvSvSpgti9dy8KCosQyS+uHdqLkDMetPg85X6iyor+MLt27xYvniQ32rdrK66j6TMLDwEkYtat24BNW7fh8KE05BUwxEZBZESE8I+hAXOvHt1FiBkznPkrbI8H2qV/LcfqtRuEFxTVD3zZplExwx+ohPj9z7+8GfDMeviyPaCMgbj5N77Mb9m2XSiFtm7dIQ7YLrdL9J91c7zsG0OAKvodyc7JwcZNW4XSjVjT04rKMdVmEyFJDIvr0a0zenTvgpSUFEGWl1dMbNesWy9CnEiukQCwqTYkJMSJuejTuyc6dWjnN5yI9dJs/88ly7Bq7TocPpwOt+ZGQly8UMNwfkiAsfCAzTZWr10n8OWzhaEXXTsdjBUzAAAgAElEQVR3Embc/MK/eeu2Ul2lwbVVc2h6Hq1dtxGrVq8Vqj1mHGQbDK9s2by5wKN7t87gwaRsYd+++vb7Y8iCU0aeCCriypZVa9aVymbJvzMc1PRPqe5+CuX99BHbtn1HtZpk8g+GLZXN4MX1RQKaoUIMyRHrK79AzAv3JFWWDB3mvHDdBvq9IelD43Uapx8+fFhcz2dBm1YthbKCc71sxWpMnfGoV6lFheLNN14LeuqULXyW0BOLe2nTlq04cPCwcXjXdYRHhIvx0NuJa5mhQr4qxrJ1pacfEWHRDOeih5+pgOS+ZrZTU1VGb7o/lvwlSCxTncbnI58b9G8zMw2SoOI6Y5gYryNRwP7wOj77zEIz93UbNmP9xo0iHJnePXzW8Hqu3TatWqFnj66C0PZHvrGvPyz4xavcZL30XzrjtJP9PoeoqiFhbBY+q44fPFAYiMtSNQT42/XdDz+VUcMqIgttz+7G72pFhWvv2x8Xwu0yrEnMwjVIpSnnZvGff2G7TyIEXsNnItWTZmFoIMNYfUvX4zqib59eQqm0+I8lWLVmvdhbXF8Mpe/Tqzv69+tTbhIEKoKZiOXPv1Zg567dYv/Td477iUQsswLy91X87h46LEhe/o4XFhWK/dymdQvh8VZYUIQfF/5SSjHJBAKnnTLS7zpd+Muv2ONjBcB3D/52M6TeLHzu06uPv1+0D+De5/OideuWOH7wAPTq0c3rwUUvRT5btm7bIcj5qMgINGvaFKNOOkF8RJOlYSAgCawQzyM3vsut442NWXh0VaY4jErz9pqfBIPE0nBlxxhM72eosAKpVsRXN70QOPIO9H1TAIVhLeYBg/JcSWTV/Mz5b0GQVzozdyZCSboDavJ46LZ4EeMfyNjcrNFLUurA7ow8PPXjSnywYhuKWIlHeVVb46uoXVJ27Hu0TcGkET0xYXh3hDuYYVOqsOrifAWjT+Upbqpat7lHWK/pt+Jbl6+5sO9+4fVUZ3i2iPha7E8xZIa18QnJdSlUjH7IGaqmNM0tFBpMnmEqY9k+SZ6KCB3f/rI99kvgxPaYKVSl16HxvPZVgAQap+/fjfFq0Ng3qh/Num3GfrNaTNwMvAUqwhhXVYnf0X5aqc8YqybGamLGujgPVp59JlbMgsyo+IruPdpfzzx6SM3y1qOV9n3HyDljP8zMsQzV57yxnorw9dd+eW37KmyPtm3gX99Keeu4suPg0q0IL86JJvbk0dBz1VZ6T1lpk/s7v8AIjSNhW/Y36utvfwDVF1QYspT1wPLXhu/6NdaNESpl9s/qGjz6zODvPRMbqH734tG9a2DBdhi+6P95xmcFvTi5X7iOj11j5rPR97livG8Y7ft7nh7zzlIGmPLG7H+f1s+1b2W9heIaY/78vPsrKPXRp8J3OB9FYtnruGb81u/xT6toLfjuL991a+53ri0rv1viuez5Teb1ln7nPb9pZoitP5VkZdZpee+zZfvG94SyGVOJkfcdxHidD/ibEoq1I9sILgKSwAoungFr40MlvVDDfX+m47v9+dB0mrcHvE1eEAwENB3NI1S8NjwFvZuEW/TC0oQXFjI/g57zJZC/EtDSjSeiCEM0XqBkCSEC9Fnn/znaQ21yC5SESwCSVzAyCFXo0O/ppnmo4XvIun1HMH/RWnyybjcKXRrfZGvV78oKksITS9fRPSkGj549CMM6NC11YK+oDo7dykuMlX7IayQCEgGJgERAIkAEqCaiKmPf/v0iMQCzmzGsjqFHVAj6FoYmz503H199+6M3DIneWjQkp7pJFomAREAiIBGQCJSHgCSwQrw23JqO9RlFGP/LIezO18SXGklghWYS6B3EQJTrOsVgev9EYZwfKPTKJDoUvRhwpUEvWAE94wPo2V/QLcXHKPyox0NoRtMIWyHZS9UV/xnWBWqzh4GYk6CoUeJri9Uvr75fJZfvOoxpny3Bkv1HQMtHEVpaCWVFbc4CCSxaPZ/TrRUeO3cwkqPDBXknyananBXZtkRAIiARaJwIUB1Bw/JX3/yXULzzN4rlwvPPwTVXXop4TzY9hgN99+NPeP6l10XWUbMwQ+LsGQ+WG+LUOFGVo5YISAQkAhKBsghIAiuEa4KH7GK3js925uG+JWkopIK/nhyWQwhTjTVlmrm3j7bjxaHJ6JbotKTYMX2SjMAPF+DOhZ6/HMj4P+i5PwOaaXRL8sAIg5GqrGBPoyfToG6DHt4LavOHoUQNY9CBZb8r9ogv1SxFLg2LtuzHzC+XYl16jvChq4/Ej/vvFMMJDhumn9Yflw7sBIddDUjKmjMjlVjBXqOyPomAREAi0LgRoAk8M4bRp8oMI6LpeY9uXdC163EiTHD37r0isxg94cxCj57bbhqPkSOGVRhG17jRlaOXCEgEJAISASIgCawgrQMrh0EqPwrdOl5Yl4Vn1mQaprdBal9WExgBxUNe9Ix34snByeiR6Ki0b5DxQsYMhRoUrRAoXAMt40Mg+2vAtQtQaMxoF50xyCxZgoEAsw2KEjkaSrOHoET2BP9dZXyfuP9YS6HLja/X7MKj3y3H1oxc6PRcqadEsggldLsxsEUTvHbpCLROjPFGUNZHQi4Ya0XWIRGQCEgEJAK1gwDfkZYsXY4XXnlDmCj7FlMlXdaXjMkDrr/mcpx6yijhAyWLREAiIBGQCEgEKkJAElghXB805ksvdOOhv9Lxv515UOQPdUjQN7MQ0k/zhOQwTOyZgH7JYbCrgUMI/XXQJLEM9lEDtBzoRZug5/wEZH8DvWgNFC0PUGiYKEms6k2yR3mlREKJGws0uQ2I6CIMUok/MyoFKr5mkhl5hXhv6Va88vsG7M7KF+G7ggQLVEkd/bugU3UdEaqCu4Z3x+2jesHpMYWWBFYdnTTZLYmAREAi0IARoAE0s3h++/0CkbHy0OHDKCgo8CZTIJEVER6OpKRE9OzRDaePHiUUWsxwJotEQCIgEZAISAQCISAJrEAIWfi7FfWVoDo0DTtyS3D7b2lYllYkCSwL2AbjElN5dUaLKNzXJwHtY+w+2WGo4qliKx5/B/E1kWyKXgylZD/0vEXQ0/8FPf93KKpgWYRvkySzKoezqbrSdQeUxGuhpkwEHM2Zc8iy8urol14FmflFmL9gFV5bshlZJS5RB0N46YtWn4vwGdF1tE+IwksXDceA1sliOFY9werz2GXfJQISAYmARKBuIkBT9yMZmWBY4Y5du5GZkSkU7LFxcWjdsgU6dmiH5KQmcDjo5iiLREAiIBGQCEgErCEgCSxrOAXlKhJY6zJLMH7hIewpcEn/q6CgWn4lgpfSdTgV4IyWkZjUKwFtSF7VgNH10dBC0islgDsDes5C6BlvAwWrAY0vbu4yPksygLS82TPIK+Z4T4HS5AYoKbcASjR0pqa2yDia5BX5nd2ZuZj34yq8t2I78jUavtdf1ZU/zEhihQG4YfBxuPe0fogOc5Dmqzo5W8N7U1YvEZAISAQkAo0LAVMNLdXBjWve5WglAhIBiUCwEZAEVpAQDaTC4iHarWn4/VAhbvj1MHKKdWEcLUvNIKBSFcUsbSpwZcdY3N49Hk3CbVBgPVtdVXrmzVqokDujT1YW9PxlQMYH0HK+A1z7PGFvxhdHqco6FmWSVwI7e1sg5W6oiRdDZwihwEvE/AWcGvNFmaTxtsPZmPPdSny6YTeK6YOmGkbnDakILyxNQ5/UeMy74AT0aJFgSaUW6LnVkDCSY5EISAQkAhIBiYBEQCIgEZAISATqNwKSwArR/PGg6NJ0fLU7HxP/OIxiN6BZOIiHqHsNqhlmG6TyKsGp4oqOsbiucyySwhkopls61AcDDK/vkggzdEN3ZwD5K4CcH6Dl/gCleAugu0R4IUk1g1GRiiyhvNLdQFhPKMl3Q4k7A7BFG35XFsgrX78rl1vD0h2H8NSC1fh5+wHmjxSqR7pmNUQCi2OPddjx4Mm9cM3xXeC004OtoY00GLtT1iERkAhIBCQCEgGJgERAIiARkAjURwQkgRWiWePhssSt4/2tOZj61xEGk0kFVg1gT+UVw6ninTZM7hmPse2jEU0Zlh468qrUsIQ/lmG0rUCDrhdAKd4FPXsBtCMvAYWbodgY/CU9snSd80TyqheUFk9DiewLqOECTitEjG9moxJNx4/r92D2N39h3ZFcsSaovKrvflcVbRkxRug4tWNzPHfhMKREh4eMsK2BrSyrlAhIBCQCEgGJgERAIiARkAhIBCQCpRCQBFaIFgQP1wxfenVDNmavzIRdElhBR95QXgEp4Sru7B6PC9pFI8phKFCYtc6KGMUwZPcQTrzBQ3yZnbVCpJQ3sFI+WXox9JL9QPZX0DM/AorWAXqORxvEvjam7IUKdE2HrjigRJ0EpdnDUCK6AoJuMgzbAxVf8qrA5cbXa3bhye+WY3NmnqG6slBHoDbqw98ZptwsMhxPjxmM0d1awc5wyUYy9vowP7KPEgGJgERAIiARkAhIBCQCEgGJQNURkARW1bGr1J1CgaXpeGFtFp5cnemTBa9S1ciLy0GA5JWm6WgdZcdDfRJxSstIOO0meVUJAkQBjhQXY2XWEbSKiEKHqBhvuJlJBFSXECBZQ6ZNBAzqLiiug9BzF0HP+DeQ/xegZwEKw7+o2CKB07BDCzlviuIEYsdCSZ0MhHU0lENE3gL5YoYNEtH8Ihf+s2wLnv5xFfblFYE0oK0Bel6VS5JCh9ul4aYhnfHQGf0R4WTGTQZNyiIRkAhIBCQCEgGJgERAIiARkAhIBOo3ApLACtH8GQQW8MzqDDy9Ngt2NTCpEqKu1etmhOqK3lYA+jQJw6QeCRiSGg6nTWh3LKlPfNU7ewry8cL2Tfjq8H4kO8MwLCEZpySnoldcAuLsnlTPglyxFtZWLrg+Si9xjV4CxZUGPX8J9JxvBKGllOwU/lkGmWWMs2EVKq806Go01ISrgKQbAWc7AJ5MgxbJK5PA2peZhzcWb8D//bUFh/OLoTDToMfzqmHhVv5ohOOa2y3M3P911Si0SoiWYYSNZfLlOCUCEgGJgERAIiARkAhIBCQCDRwBSWCFaIKNEEIdz67OxDPrshpNSFNNwkvyikQSvX/6Jjgxc2ASeiU6QeEVD/JWlCeC/BBkkoL9hQWYsn45fjhyCEW8X9dhU1TE2h0YHJeAm1p3xOAmycLPStTvIViqpcjy1CUUWcLL3Q1dy4FSuAVa5mfQM96E4j4EqBECSsPwvf4TWUamQZJzsVBTpkBpcjl0W7wxRhKElSCviMaBrHzM+WYZ3luzEwVuzSCuPERjTa7Bula3Ef4KxNkVvHzhCRjdo7WBQwA8ZTbCujaTsj8SAYmAREAiIBGQCEgEJAISAYlAWQQkgRWiNWFmIXxmdSbmSgKr2qgbyivDJWlYShju75OIbolOwzXJwoGd95rklUvXsTEnG49vWYfvjxz03K8KUkvRGcZnqJ9ibA4MS2iCC5q3Rr+4BDRxhsNRpq1AREGggQtFkriIaSoLgaLNQNZ/oWV/LczfgXxPFWZ4ZP0jszxwAo62UJJug5J4KXRbNJgf0Cp+pmqO5OWWQ9l49seV+HT9buS5tUYVMlh2PRmrQYei6bh2QCc8MWawdz8EwlaSWIF2p/y7REAiIBGQCEgEJAISAYmAREAiUJsISAIrROj7hhBKBVb1QDfJKwqRzm4Vicm9E9A2xu6t1LLyCoBL07A86wge27wOv2elC7N3XfHvGWSQWRoiVTt6xcThvKbNMTKpGVpGRAbXJ8uryiLJpkFBMVC8B1r2d0Dmf6EXLIOCQhFaWN+yF1J5BU0DnMdBaToVStwZRqZBCsssejWZxKNbB1buTsP0L5fi912HoClKozJsr2gX0cx9SLNEvHXlSKTERVomdau3M+XdEgGJgERAIiARkAhIBCQCEgGJgESg5hCQBFbNYVuqZpPAmrc6A3PWZsEmPbCqhDzJK2IZZVcxrl00ru8cizYxdsvhfF7Db3qS6Tp+STuEp7ZtwMrcTE9YoKG8qqgouluELUbZ7OgWFYuRTVIwMjkVXWPi4CT5Re9xTx2BVC+BQDga4qhD0QsFkaXn/mr4ZOUvhuI6bBBZIsti3c5caIjmNOgRQ6AmTwJiToKihAujdqs4mfNXUOzCTxv34rmf12LJ3nSBucg2GAjQRvB3oRfUdDSPCsOL407AiZ2aWSKwpAKrESwOOUSJgERAIiARkAhIBCQCEgGJQD1GQBJYQZg881Bd0SHc9MB6aV0W5qzKFAdKTfq4Vwp9KqAMpgK4qXMsbu4eh8QwqpCYxS4wCeI1a1cUlGhufH1gHx7evBb7iguFt5Si2gKSV0c7rEPTNag6hCF/ot2JkxOTcWu749AuOlaQbL5G71YJGr+AmIos8U/SEy7AlQ0Uroee8Q70zPcBFEJV7YBOAq2OEVkevyuRUTF6NNTmj0AP7wxFMUzxxTaw4HmlUbklVHM6vly1Aw9/swzbs/ONexVFhI/KYiDARJfRf5vBzRjdF1cd30Ws0YoUbpK8kitHIiARkAhIBCQCEgGJgERAIiARqOsISAIrRDNkElhvbczGI8szxIFbEljWwBdEkE7CCEh0Kri+cxzGd45FlMNQO5lm6hXVdlTJBOS6XfjswB48t20TdhUX0Hmp3LDBQD0UYYWmubquI9UZjlOSUnFWagv0iIlHvNMBleoosyIfdVaguv393VdBRjUT3NlAwQromR8BuQuhu/ZCQYnI5GcQe6yl9nyyRMigaD8CSszZQNPJQHhHAPZKZXI0yCsF2YXF+GjZVjz702rszmMYpQKbBfKrKljX53vcuo4wAFf364CpZw5AdITT0j6pz2OWfZcISAQkAhIBiYBEQCIgEZAISAQaNgKSwArR/AoCy63j4+25mLw0XZAx9OyRJTACRtggkBKu4q4e8biwfQwiPHIbq8ork8YpdLvw7p6dmLt9I9JLigS5VJ7nVeCelb6CZBZVWSzxInNhE1zYrBWGNklGgsMJcjn07TLVWNVSZVFlo9EfS+QvhKLlQy/aCD37S+hZnwBFGzwhhabKKfTZC81MgwoigISroabcAd3ZSoRXirFbXP8meZWRV4jXfl2Hl35bj5xiF3RVlaRMOYvURbpP0zC6UzO8eOEJSIoOD5iVU6qwKrvj5fUSAYmAREAiIBGQCEgEJAISAYlAKBGQBFaI0DazEC7YW4Bbfj+MQpcuCawA2PsqrzrE2HFH93ic0SoSkXb6PRk3ByKBfBVLh4sK8eaubfjXvh3IKCkOKnllDsVQZOl0XxcETYLdgZ7R8TglORUnNUlB+8joY8IdA42hIphMZZlB0JHIyoVetA3I+xV69ufQC1ZA0XKER5aBl0nl1ezCN8grF2BvCrXJLUDiFYA9xfAGsxDuafbODPvcnpaDF35eg/+u3omc4hJoJK/M8MOaHUq9rJ2aNxJ//Zsl4pWLh6N9cmxAAqteDlR2WiIgEZAISAQkAhIBiYBEQCIgEWg0CEgCK0RTzYO4W9OxIq0I4xcdQnqRJgmsANirui78jppG2DBvSDIGp4bDaaNblWGSHkjAI5Q7HtXT4eIikWnw/YO7xcE+mMqrioZBw3fOvVNV0dQRhrFNW+K6Nh2RFBYujOAFreQZSHWILBJmBnFGM3PK+4qhuDOh5y2GnvYK9JyfodgMs3eDyaJHV82EFtJAXNBptqZQmk6DEj8WUGMte5UJis1j1s//vj8jD1M++QNfbN2PEs6pqkq/KyvPLU1Dh/gozLtwGAa2S4UtQJZHqcCyAqq8RiIgEZAISAQkAhIBiYBEQCIgEagtBCSBFULkSZxszCrBDb8cwtZcV0D1UAi7VueaInlFEqRPYhge7J2AgSnh+NuT2rJ6xyRAGNC3Mz8Xr+zYjP8c2INiKqSYtS+ERRBFwsNLF35N7SOicHZKM5yc1BQdo2MQY3cYqiyfPlWXzGJbhveUG3ClQ8n9BRpDC/OXAO5DhhG8IAGDSWJRdUWTfR1wdgFS74Eady50Nfxo2KAF3M25I3m5cncaHvtmGX7ecRBulcq70jhZqK7xXqLpSI4Kw9NjhuCMbq0sKbCsJKRovIDKkUsEJAISAYmAREAiIBGQCEgEJAK1iYAksIKEvhX1gqbp2JPnwqQ/DuOXg4UVZgULUrfqZTUkr6gTOrFpOO7vnYguCU7YLIYMcsBmtjr+9815OZi9cQ1+yDjk0RtV3bC9umAyvJBkFskl+p81c4bjhIQknN+0JQbHN0Gkw2GQP57QyGqRWB4VE+sySAnNCCUsWAU961PoWV8CJbsAlSo1Zi8kN1g9Mkun/5duAyIGQU19AIgZDohMg4EzRJrYGuQVUOxy45ct+/DEdyuw4kAG3J6wQ+kaZ30VEssYpx2PnzMIl/TrIAlz69DJKyUCEgGJgERAIiARkAhIBCQCEoE6iIAksIIwKVZVCyRWsot1zFpxBO9syYFi84RzBaEPDaEKw56J5JWO01tEYWLPeHSOYxY/w+vKCqEjlEcM19R1LM8+gjlbNmBxZpr430oQDdurg/dRIguCmEtxhmNQXCJOTW6KwQlJSA2PMEILg0hkGQQroXED7hygcB2Q/T30nG+A4nUA/aoUm4fEqiyRpYBhg1S2KVGnQEm9F4jsB8VLjAU2bDf3EMdcUOLCF6t3Yu7C1diYlk1nL6G8k7ulcquO6sMIm4qZp/fDtUO6QFUDq9esEPGV64W8WiIgEZAISAQkAhIBiYBEQCIgEZAIBAcBSWAFB0dLtfBwWOTS8OamHMxakWEQCoGMnCzV3DAuovKqWNNxRbto3Nc3EUnhNqFYUi1mrDNJEJJYSzLScN+GFdiUlyuImYCGWbUGIRVZGqhTYnhhu7Ao3NC6Pca2aI0wm12op0jckFJSA3gYWRmCGZ4n1p5WANV1GFrOQuiHngKKNgLCJ8tukGcWPLJEyKB5dew5UJvNhuJsydFYIhx5q6/fVbFLw1uL1+OJH1Yio8RtEFcybNDK1Pq9xqEqePCkXrj5xO6w2zknVa5K3igRkAhIBCQCEgGJgERAIiARkAhIBGoVAUlgBQl+K8oFkhAut4aF+/Jx2+I0ZBs2RI2+CAg0DVF2FZe0j8at3eOREqF6EvkdzThYEVAmeVXodmFh2kE8uW0D1uZmC9UV/1PXi5m9kOMIV23oERWLc5q2xPDEZLSOjEKkrTQhZEWNFggvkbVQWGUVAyV7oVORlf0FULQccGeJsEN46DN/2Qt1XSULBiixQPw4qKl3A4K8MryqrBQziyJ93w/nFuCfizfgtcUbkVZcYhBXFuux0lZju4ZEboSq4K4TuuGOUb3gdNglno1tEcjxSgQkAhIBiYBEQCIgEZAISAQaEAKSwArhZJpKk+05Ltz4yyFszHZBs3bOD2EvQ9+UoumItCu4uUscrj4uBglCeWWEDVopRrZBBUVuNz7dvxtztq3HrqJC2BX6XYXWsN1KfwNdQzKLqizD8D0ao5uk4tymLdA9Lt4gdTwRflbDKsttT2QuNMI2TcN3xZUGLfd36FmfQM9dAMWdLrL+mekcfVVZItugmggl6RaoyTdCt8VTUlgpo32jeR37s/Lx3IJV+PfybchzGdkjhfJOliojQAIrXFVw25AuuHt0b4Q7jWQBgYjNQNdUuUPyRomAREAiIBGQCEgEJAISAYmAREAiUA0EJIFVDfCqcisP61lFbsxaloH/7MwT3kyNNYxQGJprOpKcNkzsEY8xbaOREGYEzFkJl/OGnilAZnEJ3t2zHa/t3op9xUX1lrwy15QgsTxhfA5FRYuwcGH0fnpyM+GTFUfDdx+Sr3qkg2GcTtwNLqsEcB8BClYC2d9Cz/0eetFmT9IBj5qNVmOOVlCT7gTix0JxNBH3Vibck/NHDmzjgQzMXbAKX2/ahwKXW4yb5J0s1UNAEFiKgluHdMY9p/axRGBVr0V5t0RAIiARkAhIBCQCEgGJgERAIiARqDkEJIFVc9j6rdnMsvb+thzcuySd+dngDnEf6kJz9LsiFglOG54ekoSTmkXAQUdzej5Z9Hoysw0WaG68uXMb5u3YiHzNDU2EDDYcAsRXkeVUbBgQE4eJHTpjSGKKd5QmgVU9IstYGbqmedyvNCh6IVCyD3rGx9DS5gHudMMM39YMtpbPAjGjAdXpIdOshWp6s0QqCtbuPYK7PlqEv/Znkv0SZG7908zVhR11bB9MAuuWIZ1x96l9ECkVWHVzomSvJAISAYmAREAiIBGQCEgEJAISAUsISALLEkzBu8hUDa3LLMHFPx5AVjHJAh7cg9dGXa9JYUY86Dgu1oE7usXjjNZRcHi4DyvklcDQE3p2sKgA/9i1HW/u2YY8twuqajOy1jXEQr8pqpYAxNvsOD4+CWekNkP/+ES0CI9EGH2yKIPyqJeqQ2YdzQpoqLIUvQAo2gQ98wvohRuhJl4GxI4CFCrBrHtVmeQYkxks2rIPzy5YhT/2pMNF4kqqroK6aqlui1CBO4d1w50n90JYAA8sq9lUg9pJWZlEQCIgEZAISAQkAhIBiYBEQCIgEbCIgCSwLAIVzMuoQMkp0THp98P4cFc+omxqo/HCIsHCTIO9EpyY3jcRQ1LDYRd8kwJVDUw8mYds/nNPQR6e2roBHx/ci2LosFEZ1FDJK58FKEgqaHBrQIRNRafIaJyZ3AznNWuJdlHRRuhhsHyyPEQhWSxWqehF0LV8gH5XQj8IT2hh4B3Cdc/rS9w6vl27EzO/XY4tGblCdSX9rgLjV5UrmIXw/hE9cMuIHnCILISB91hV2pH3SAQkAhIBiYBEQCIgEZAISAQkAhKBmkZAElg1jbCf+km+uDQdP+zJx/hFh8gAiKsaugqLxItbB05ICcekHvHomxwGp4gXs6bg8SWv1udkY+7WDfjuyEEUa+6GrbwqZ42qutsIPxXZ5mzoGBmFEYkpOD2lOXrExsOhqqXM8KtDXvgqsgwmyyBCrNTpvVfXkVlQjNN16CYAACAASURBVPf/2oL5v67Hnux8w/+NBFYt7MOG3iSJzIi/w3JnnNoP44/vAptNotzQ51yOTyIgEZAISAQkAhIBiYBEQCLQkBGQBFYNzC4P7BUd7E0frIMFbtyy6BAWpxWJ8KmGSmAZiiEIw/ZTmkfikQGJaBntAC2vrJAgXuLKQ9Zsy8vF/euWY3HWEYgAzIYcNmh5feqA5oZdURFls+GkxBTc1q4TOsfEgTSWqbsJpleWla55jfahILugGPN/Wo2X/9iA7BK3yG4o/a6soFi1a+iBFeuw47GzB+LSAR0tkY1Va0neJRGQCEgEJAISAYmAREAiIBGQCEgEah4BSWDVPMZ+W2A4VZEGvLkxG4+vzBBhXw0xGyHJK5IYkTYFZ7aKEtkGW8c46NddSh1U0TSYJIhL17AkIx1zNq/D7zkZnvC1Bux5Vcm1SV8xkdmP/wTQ1BGGEYnJInNhv/hEJDnDvD5TJLKsqKcq2YVSlx8lr4DdGbl4+ee1eHf5VmSWUDFnqMNkqRkEhEecpiMlMgxzzhuMs3u2kWGaNQO1rLVRIeCJzTafXnoxtKI05OUcQaTtINwlWdBduYA7C3Bnw1WcA92VA1XLAlwZ0N3Z4u9uVyE0dyE3KXPxQlXtUBQbFNUJmyMKii0asMUA9gTAHgtNiYEjLAaKLRawxQG2KNjCEuFWUuAIT4TiTPT4EXIyyvSxUc1PiAabuwYFyy+BqyQjRA0ebUbYJKh2qLZw2B3RgD0eYBZgexJgS4AtLA6wJ0F1xkNxpkB3NIU9IlWsGeOtS0ioQ95v2aBEoLoIaFn5yHr6SxT9ub3G31+r21d5f0NGgGctBYkzx8I5qH1DHmidHpsksGppegTRoOtYmV6E235Lw47cEqFIaUhFkFcAbLqOyzrE4PYe8WgeaRcvUFYJFNOwvUTT8HP6QTyyaS225OeI+/VG4nlV1TWh6RpUXUO03YE+MXEYk9oCo1OaCyLLLDWlyPI12t+dloPZ3yzDZxv2oJA+WNLzqqpTWrn7NA3t4qLw7AXH4/gOzWBrYM+XyoEhr5YIVAcBTzILLROu/H1AwVoUZ6wAirZBK9wHV0keFD0fmubykAMl0HVmcdUFkQyVtMOxpEH5iROMa1kHi6Lyd5P/nUSXXXyiUJQwwBYJuz0ctohWcER3gRLdFYjoAlt4C8Ae5+mLJCuqM/N+761FAstYGPwCeJSoFP9NV6EoOnTFLmwpmC0YihOwxcIelgI1pidsiUOhRneFGt7Sh/AMOjqyQolAjSAgCawagVVWWkkEGFRkiwxD9ISTEHFKd0Dac1QSweBcLgms4OBYpVqowsou1vDcmgy8tDHHE0bYMF42+eLOkMFYp4obO8fiik6xSAo/6slkRf0jXu51HQWaG18d3Idntm8S5JVK4srjG1Yl4BvRTQaJyIMUBJHVOTIapySl4tSUZugYHQOb51AlCEVxUqr++jMPZS63hqU7DuHxH1Zi8a5DwvdNGraHbvG5NQ19U+Px8sXD0Sk1XqjeZJEISATKQ+CoMkXXSoCSw3AXp0Ep3gV39nKUZP4JregwXO58QKinSFa5AZO08iQjOVq7STCIB2vQYRc/j9CFmlnnk1xlkgYHoIRDIbEVngxH4gmwRXeB5mgLe3gKFHsTQGXmWFmqhUBtE1j+Om96UHiJLb4+UZdNPou/7w4x96o9GraIZKiJI2CP7QclvD0UEp5qRI2s02rhLG+WCPggIAksuRxqFwHjN10JD0PM+QMRfmF/KJHO2u1SI25dEli1OPkkeLgdlqcV4qZfD2F/gfG1tb6HEgryimGDdgX39UjAZZ1iEcUPyBbD1szQM77yF+s6Pt63E1M2rUGe2yWIKxJYslQWAc6JoQggrsmOMIxr2grXtemApuF8cfUcsURop3WD9rK9MP3dSJ78vvUAHvz8T6xJy/bOffCPcZXFoXFcz/1H8ndEh6Z4ZdxwJMeESwKrcUy9HGVlEeBeEYd+FdAKoB35EdqhfyI/9yC0khxAy4KuuUR4NnS3J3TlqELK+BhTu082KrX4q+j7Ycfzqi3CExmKyPDDyLhWQNJlsDcZAUXhc5/vHPL3tLJLBnWRwKpgECSyvMGDVGmJa1Uo9nAo9kTYI1rD3uwq2FJOFWGsRqndNV3pOZE3NHgEJIHV4Ke4zg+Q5/aIUV0Re8NIqIkMy5althCQBFYNIh/IzJ1NU4WV59Lx7OoMvLIxR/RGC4IKpgaHVWHVRqZBHa2j7LilSxwuaBeNaIeRac6q6soMP8soLsJ/9u7Eizu34KCrGE6pvKr2tCrCc4VkFuBQFLSLiBKKrJFJKegaE4cEh9Mwfa9ElkHfTnHuCkvc+Hbtbjz94wqsPpwNXVW83lvVHoCswBICLugI14FL+7bHjLMGIjbcIQksS8jJixoNArrb8KnKWgI9dzmKsjZAK9gGrfgQoOWJjzCmX5BHx1IPoTFUZQZlwWyvqgg7tDmToUZ1giOqK9SYXrDFD4BCLyVJZlmb43pGYFU0KCPHjgrFFgU1qh3ssb1hSxgm/qM4EiSRZW1FyKtCgIAksEIAsmyifARUBeEDOiD6uuGwtabvpCT5a3O5SAKrBtG3QmCZaqMNmSW4auFB7M13icN+fSSxVI/yqnWkDTP6JWFE8wiE2UiGcJ8H3ugmFnyfSisuwvytG/DugT3IdpfIsMEaWKcks9wMPtGBREcY+sfE44LmrTAyORVRdodQ8JjFqmcZCdmd6Tm4+d8L8cf+DDC+xRueWANjkFX6R4AEZZRdwdRRvXHdsK6w21RJYMnFIhHwIKDn/IGSgx+hOGMZXIV7oLsLDJJHPPIMn76GWThAqq48+V9pz2WLhhrREhFJA2FPPReIGAgoMj9shfPfgAisUh+ghP5agW6LgC2iA5xNz4Cj2RWAI7Fhbgc5qnqFgCSw6tV0NajO8nxqb5WI+LvPgL1r8wY1tvo6GElg1YGZoySxyK3h7c05eHj5ESOEkCbldaBvVrogXvU1TbwW90pw4sHeiRiSGg4HyStPBYEOBL4Z69KLizF323p8uH83ctwuSV5ZmYQqXkMSSzip6PRSUZBod6JnTDzOTGmKkUlNRXih6Y0lAmUCHOyoWigsceG5H1Zj7s+rUeIxbG+ox8Eqwl6jtxmGvjqSIpx48YJhOLlLi4BJE8o3k67RrsrKJQIhQUBz5ULLXQMtdy3cR75EUdZ66Fq+CAkUZut1IAwwJED4NCK+TzB0UvxTMTIh2iOFAseRMBo2KrMijwPs0VKFU3ZyGiiBZQ6TIYdCNa86YY9keOE42OJPgBrdDaBJvCwSgVpAQBJYtQC6bFL8RNpT4xBz8yiE9W8H2GXYfV1YFpLAqgOzYPoGpRW68NDSI/h0d54wZtXqidcTlVccQ5+EMMwckIheTcKEiqyyyitOxYHCAkzdsBJfph0QhIouvwSHbIWSzCJtShKK89cpIhqXt2iDc5q1EpkLTRKqIjNwk4hcsy8D173zE7Zm5noMZCWFFaqJdDMgRNfRLyUOb145Ei0TogMSWKHqm2xHIhA6BHTAlQ0t4wcU7P033Hlb4HZnQXOXiOecyNImSykEDCKbxAXJrHg4otojrNV1sMWdCMUeI9EyEWjgBJbvRGsaVXpOwJGAsNSz4Wg1Hkp4a0lqyt0QcgQkgRVyyBt9g0J5FRuJuOtPgmNUF8Au1cl1ZVFIAquOzAQ3iVvT8euBQty3JA278lzi0FmXDd0FJUHlDoCRTSMwsUc8eiWZHkqB1TrG7YY7h0vTsCo7A89u24Qf0w8K/1BJXtXO4hSOKVRm6TrCVBVdomIwvlV7nNesNezq0UyS5fVOZNcsLMELP63G84vWopjeKw02JKd25qiiVulypmg6rujTHnMvGArVDOOUc1D3Jkv2KPgIaEXQCraj5PBnKDr8JfTC/XC7C6AwY6A0praEtxFOSXN7O1R7JBRnC0Q2Oxe2JqdBDW8LqGGW6mmwFzUiAsvzmmfsHVsYbOHN4Gh2EeypY6CGt5S+aQ12kde9gUkCq+7NSUPukYhMCXMg8vz+iLpgEJSYRv67V8cmWxJYIZoQK35YwtC9BHh1fSbmrssUXgR12QtL0cRRGWPaRGFyr3i0irIL5VhlDNsJPxU/KzKPYMbmtViale4h7iTLHaKlWW4zqie8kJkge0XF4pXeg9A+0lDzsJQXTmiQsRpW7E7DXR8txpq0LKkACuFk8pgeowLzxgzFuX3biz0ZKPQzhN2TTUkEaggBHe7c9Sje8RRKstfAVXII0Km2UsWHErkHqg47PfVIhKvOpgiL6wdH28mwRbQ1SI3GSIw3MgJLkFge+leo9NQwOKLbIKz1zVBTxgKKo+qLS94pEbCIgCSwLAIlL6s2AuI5p6iIGNEZMRNGQk2QGQerDWqQK5AEVpABrU513DAkc/bluTFzeTo+351fNw3deRhgFjsbcEX7GNzYNQ4tTPLKgk+SeBkS5Bfg0nX8lHYQc7asw9p8IwujVF5VZxXVwL26hjBFwS2tO2Ji+86GCitAVkmSsfnFLrzyy1o8tXANinkCaowHnRqYjoqqFHvKraF7UizeuXoU2jaJtRzKG+KuyuYkAsFBQCtASdoPKEr/FnrmbygpShfElUGyi/8fnHYafS0mhWGDGpYCR/xwOFNOhz1+mMhs2KhKIySwjs4vFdpGchbdFg81YQQiWl0OW/wg6Y/VqDZB6AcrCazQY95YW+RZPGJAe0RdfyIcbZLla0QdXAiSwKpDk2IaKfOfGzNLMP6Xg9iea2YlrBsv4kamQSDCBlzXOQ63d4tHlFOB4vnCbeUrN8krlhJdx/eH9mPKhpU4UFIkwsw06XlVh1ak0RV6Y/Fh3jkyBvN69EXPWKbW5hf58j1kTC+sjQcyMf6dn7DuSI4RyiYPkzU6v9ybbrcb4wd0wiNnD0RkmF1mH6xRxGXltYmAnv07CnY8j+LMpdDc+Z6u0JRd+lvV1LwYX6aF1BqqLQbhiYMR1uYmKNED+PWpcXyoaNQElg+VxfnmOghLEV5p9hZXQxGm/7JIBIKPgCSwgo+prLE0AuLnDYCjbRPE3nYq7N2ai2zqstQ9BCSBFaI5sRrCYB78XZqO7/YUYPrydOzLd3vIndrdRIZZO9DEqeCKjrG4rkscEsOOhpNZIq9Yga4j2+XCZwf24MWdm7GzIE9INXV56AjRaqxCM7oGp6LgplbtcVv7zoiyO8RDvqI5pwqrsMSNV39Zi0e+WwHN5lFuVaF5eUtgBKiPIObJ4U48ce4gnNOzLewezAPfLa+QCNQHBHRAK4SW/RcK972HwvQfARJXuuEZKUvoEKBPlvFBwgabMwbO5LPgSD4Htth+gBoRuo7URkuSwPKi7vH9h2qLgD1pFJwMK4zuKdVYtbEuG3ibksBq4BNcB4bH55ktNQaxN4xE2PEdAZv8GFYHpsVvFySBFcKZsZqq3iSxCt06PtyWh9krjiDXpUGvQPFS08OgworCqdRwFff3TsA5baMQwVSilVBe8XDN190Ctxvv7N6OuTs3IbOkGIpqE6/CstRlBDj/bnSNjMELPQeiWwxD04wwgvKKuY53p+filg8WYdGuQ0INJA3da2aeqZLjfjypbSrmXXgCmidECqzlwb5m8Ja1hhgBfkApOYCCTVNRnPkHdHeWYTQuivz9CPFslGrOIDEU2OzxiEg9DY42k6A4U2uzSzXbtiSwjsVXN5IOKc4URHd6AErKuYDirNl5kLU3KgQkgdWopjvkg+XvmD3CidhbT4bzxM6A0x7yPsgGrSMgCSzrWIX0SvPwn1ms41+bsvDM2iy4PC+J5it7qDokjgaajlaRNkzunYBTW0YhynH0wBDogGwSd6wmragQr+7Ygjf2bkee5hZfcGW4R6hmsprtMJ0sgFtat8ekTt1Bm/2KSCxjDRsZJj9cthWTP/8TeW6SmDKQsJoz4fd2EljRdhX3ntQLE4Z3g9Nuk+RVTQAt6wwxAjRn34XMLf+BPf9zaMU7oTOjoC5DBUM8ERU2Z6jMKaZmpro2CGt2PhypF0NxJjc8glESWH7XghleqjoS4Wg6Ds62E6A4Uhre/NeljdeI+iIJrEY02SEeqlBehTsRdV4/RFw0EEqUzDgY4imodHOSwKo0ZKG7gYolluwSHfPWZODlDdle9UooshNSdSW4K01H62g7HhuQhOHNIkDhFUsg4orXmEQcP5AfLirCc1vX4+19u1DCDHeqoEBCB6hsqdoIKJoLLcIi8ErPgegTn2hRhQXsycjBnR/+igXbDwpJrk3Oe7XnwrcCZh5UNR1dk2Iw78Kh6NsqOeDcBLUDsjKJQNARoKJQQ+Hu/2L/yv9DcdYOqLZixCflwWbXhJE0ffVkqWMImB5Zih2OmJ6IaHcPbHEneH7v61hfq9odSWBVTGaKF0QHnInD4ez4MNSo9lVFWt4nEfAiIAksuRhqAgFDZKEg5qRuiLxhBJQmMuNgTeAc7DolgRVsRINYn5f8AXCwQMOLazPx/vZc5Lm0GvfEMskrclUDk8Jwd894DEoJh114tFoLSzL7z0fD9vxcvLBtEz45tBf5ugYbPa8kiRHE1RKaqgxDdw2XNGuNmZ17IdpuD7gedB5CS9z4cPk2TPtqKbKK3cY9oelyo2jFTekzdFzXvxOmnNEPMeGOgObtVkOaGwWAcpB1DAENxWnLkLHlQ2TvXAB3SR74HKGkU7VpiI4pRkR0seHC5PUNl0+UujWJTPiiwO5sAkfKeQhveSXUiA4N46OVJLACLjUSzFDssMf3R1jbibAlDAVkkp6AuMkLykdAElhydQQbAcFdqQrC+7RB7I0jobZOlKbtwQa5huqTBFYNARusao8qmBQcKXTjrY05eGF9Jko0vWY9sTzqr+HJ4ZjWvwm6JjhByknsdQteXL7k256CfDy4YQV+Sj8MN3SZbTBYi6NW6qGJshvNnGF4vnt/HN8kxQKBxYOMjt1HcnH/J7/j260HjHUkTZeDMoNCfaVraBUdjhcvHI7jOzQVh3or+zQoHZCVSASCiYBWhJwt7+HQ6jdQkn9EPCsUGGpk/kMjbaUAkdFFiIkvZppU8SdDESxJrGBORfXrYhi5DkV1wOZshpgOd0BJvqD+eyNJAsvS0uBrpKIyS2FLhHWaAUfyaEliWUJOXuQPAUlgyXURbAQYYRTWJgmxE0+DvWtz+QoRbIBrsD5JYNUguMGq2pcMSi/U8O+tOXhxXSbyXHyRN4wzg+WLReUV2yO5cGaLCEzsmYBOcQ7YqqC8cus6VmZlYObmtViadcTIsA32V2Z1CNbaqI16qMJi8Oe41JaY3qUnYh0OcXCsMCOhrsPt1oQK6/7P/0R2iZFZU5bqI0BykN5ktx7fBfed1g9hdk+2R4lv9cGVNYQQAR3FR9YgY/0byNq1CJqrgEHox7RvRLbz/+kIj3AjOr4ANrsksUI4UZVuygzRsDli4Ew5H2Etr4Ia0bH+khmSwLK8BgwlFqA6UxHecQrsKWcCarjl++WFEoH/Z+9L4OSoqvW/Wnvvnn2fSTKTSSbJZA+EJSEQ9lUQBQkIsqkokU2RxQ1EQGQVF54gylOfis+n4u5DfKCCsoQtkH2fJCSZNbP2UlX//73VPZmEzHT3TFd3Vfe5v5+PB1N177nfuVVd97vnfCeBABFYtBYyhUDiN0ktCyB45fGQl0wFFLazoeYUBIjAsoGnTPHT5Jv5A1X8gN9u7cc9b3Zgz5AOSTQJLEZkTaQl0gaZPR9o8OGL80tQ7TN1qlKxb6RYe1TX8WLnXtyxfjXW9PdCZCmDRFxNxD22ulcwNFSpbtzbMg/Lyyt4SmgqFQn39g7i2qf/iT9v2AlJkUgLa4JeZdFX0HTMKQ/hyUuOR2N5KJ5SNbF3wQTNotsJgfQQMGLofvcJdK39KYYGOiCwqKrhCoOH7ypRJEKWdRRX9Q1Xu+b3coqdmt0QMGlGCYqnHt7mr0IqPo6F6NjNzOT2EIGVHKNDrmBElqAE4Zn2RciVH+bphdQIgXQQIAIrHbTo2rEQ4FKNXhWhK5fBfUorkVcOXC5EYOXYaamSV8xM9sBxHRAAQxrw/K5BfG9dD15tHwKr7cavGSeJZUZeAUFFwEWNAVzVEkS190AVs2QE1sgosbCh47l97+HBzevwTl8Pj7QxSPsgxysts8OzKCyWUHpeeS2+0jIbZaoraSohI2BjuoE/rd6Oz/zPP9HNorBEqkk4Xs+wzSDDNKjIuGX5HFx+zAy44ydIyZ7X8Y5J9xECGUXAMBAb2I59bzyG3h3PQYv08miNVOlXg6XSC4AsawiVDEFWWWXCxIFQqr1kdEbUWRIETI13AaxSnVr5QbgbPg5BrXIWbkRgpe0vMxLLgKCUwT35Wii1lwCiJ+1+6IbCRYAIrML1fSZnzn6DREWC/7yF8HzoCAhBeg9lEt9s9UUEVraQzuA4CbKICTdv2h/Ff6zpwY8290ERBX7unHaFQhYBxtIxRAErZxbhY9OCCLpEzpilItg+kryKGDp+uXMb7t+0FrujYUicvCLB9gy63yZdmVpYJYobj86aj+PLKocjsEYjTxLrZP9QBF/+7St46vVNEESRUgnH6VGWOsgqD57WXIN7zz0KNcV+pkWZUrTkOIek2wiBjCIQ6VqN3S99Af3tG3jkIKs6mC75yjQsWJMkHcHiIbi8Mf7vpImVUVdluDN2/MEOLyRIwaMQaPkyBG+LczTMiMAa93rgkVhyETwzvw657Az2oI67L7qxsBAgAquw/G3FbBOZQurRU1H0mVMgFlPFQStwzkafRGBlA2ULxkiQASweqzus44/b+/GdNT3Y3B+DEtfFYsOOpY3FPxsMU2C7TBWxclYRLpoagI9p6LA7U6g2aMqRmLpZ/VoMP2vbhke2rkN7NBInv4i8ssD9tuhSNDSwvePZFdV4aNZCeCQzYm9MLSydVTEEXtiwCyv/+5/Y2T9EUVjj8CZ73thz2xjy4Z6zj8SJLbWcCCTh9nGASbdkHQEjNoC+rb/CnjeeQGxwb3z88Ss5JnSxRNFAoHgQ7jiJZRJZDkxRy7pHcjNgvCwMFN80eCZdC7n8TEBgmoo2b0RgTcBBAjiJpZbAzYTdK8+mdMIJoFlItxKBVUjezvxcecYTBKhz6xH89EmQ6ktTD/fOvDnU4wQRIAJrggBacXuqaYUJJpl99mu6gbVdEXxvTQ+e2TGAWFw/hJEJo0VkifFNcLlLwq1zinFuox9q/Fs/GRFh8lYmccXa/lgUP9qxGY9s2YABXYMhkgaJFWvDbn0KegxeUca9LXNwXk0DT/0Za+0k1kxH3xDu/MOr+PHrmyFIY+tn2W3OdrCHkVdqXLj9xpPnw6vKnAikRgjYHgFjCPtevQ9d65+Bpg2aelcZaDy9Pi4YHWQkli8a14MjTawMwGtZF+YhmABJ8SHYdCWEymsA0ean4kRgTXg9sMhJyVMH14yvQyle5kwttAmjQB2kgwARWOmgRdceigDbfygNpQheezKU1jpWCp1AcjACRGA52HkJ0xMkEiOx2od0vLB7EL/c2odX28PojelQ4w/pSCIrUW1wZpGK62YW4aR6L1jWYCLqKtljnRiTbaR3DQ3g+9s34Se7dqBHi0KmSoN5sKpSmwLTwooZOpYVl+OhWQtQ4/YkjcIydB1R3cD/rd+JW595GZt7Bnip7WRrLjWL8v8q9syx5/f0aTX42tlHor4kmFbqYKoEef4jSTPMNgLhrnXofvMb6Nr5KqBHuY5eRp97dqjCf8YORGKxDCVKJ8y2p9MbL0FhipIHauX58DRcA8Fdb9+UQiKw0nPwKFcbECEHZ8HFBP2DC5xblTIjaFAnyRAgAisZQvT30RBgsRYyqzh4xXFQj5sGyBRk4fTVQgSWzT2Y6mZzOBrLMMC0sfYO6vjbzgH8cH0PXuuOwC0xtQmzWiFr7PqWkIqvLizBonI3VMncRqSiPzIybXD30ADuWr8av9m7G0zWm6oN2nxBZdw8poVlwC/L+NLUmbikbnLS1FO+Vg2gezCMe/68Ck++uhGsmh5LgaM2NgIMJyGmoaU0iG9dsBTzG0qHn9tkVSBTebYJf0LAEgRYtG/vOmz53xsQHWiDwcuOZCby6nD28ncMI7GKwvD6oqZ4NH+/0DvGEv9mqFMWRSeIMtTQArinPQDJ25ihnjPcDRFYmQOUaaQGFiLQ+m0I7trM9Us95R0CRGDlnUstnxA/0GKjqDL8VxwH72mzIbgckKZuOTLOH4AILOf78KAZ8BSteMXCiGZg90AMf901gF9v7cO73VEM6ezMC1hY5sYdC0owq0SFLLIHfGztosQgZv8mSbahbz8e2bQWf+p4D5F4bjETbKdWWAjwjaih49hQKe6bOR+TvL7kUVjx9NUXN76Hjz/9AnYPRMwoItpgjrp4eP1RXUet34MvnDIf586bApfEHt7Unt3CWpU0W/sgYGCw7c/Ys+qbGOzZzhZxVp5yfvjDNLFCQ/D4o8NEL5FY9lkZhyUfeVSeDCkwF54p10MpPs5+kTlEYGVsEXE9LEZa1nwIauNtEJSSjPVNHeUXAkRg5Zc/szEbfpblVuA/ewG8H1oEIUQVB7OBezbGIAIrGyhPYIxEZNV4oid0nW95wf5v55COVfuG8MstZrXCz80rxiS/PPxRn0r/if4YQbahvxe3r3kL/+zax7V3DIHCMSfgZuffahjwiyJumToDF9dNhks0Bd1HawktrL5wFPf8aRW++eIaqIpMUVhjrARN1xFUZXx22WxcdewMuBU5rvFDUSXOf4DydQY69m/6FfauegDRoR5eViSbqzUR7RkqY8LuCRKLDlnsvtriiaBcI8nfci+k0FIWo2sfs4nAyqgveCymoMA79RbIdVcAAlN4pEYIHIwAEVi0ItJBwMxgArzHTofvEydALA+kcztda3MEiMCyuYNSTSEcbRqJEuPsg5BVf+uJmKffRS5WaXBswe2RfSYIVtNyRQAAIABJREFUh6hh4JXOdjy0dT1e6m7n5BiPmqHIK5uvJKvNM2DoGpYwLayZ81Hr8SaPwopXJHxrZzs+8bN/YH1XL9fCMlcmtQQCPKJS1+EWBVyyYCpuOHEOqoLJ8SUECYGcImBo2L/ux9j71uOIhrssTRkcdZ48W9kAq04YLBmEi5FYBisawXfMOYWHBk+OAI/FctXANflmuCrPAER38puycQURWBlHmf3OKb4auKbdD5FF3dHzmXGMnd4hEVhO92B27WfvFNesOgQ+fSLkyWU8W4Fa/iBABJYDfDmRKKzhTXC8WuDI6aYSdcWuPyASr+Ov7Xvw5fWrsWmwD4pAkVcOWD5ZMtGAaOhwCSLuaG7FxQ2Nw5+fo62zBCk6FNXw3edX4xt/exthwSwkxvTaqJkI6IYOUTewYm4jbj99ESqC5iZOFG0UkUDOIgRGIqBH0fv2g9i5+ueAHoFhaCnpK1oBItNVYmlKjMQqrhiErDBbSBPLCqyt6JNtQkQ5BG/z3VArzrRHOiERWBl3NXtG2c++UrQQ7pmPQnA3ZHwM6tDZCBCB5Wz/ZcN6c7/K9qaAq64Uoc+eDmlaJZFX2QA/y2MQgZVlwDM1XCZIrVRsSYwzqGn4056duGfTGrQNDZgfkcRmpwJhYV2jxzAnEMITc45ErcfUwmItGYn1zu4urHz6H3hrTxdYtUwm6G5WE+N3H4RhoVBbbP4sbdctCDi/dRJuPX0hakIUeVVYD5TzZmtog+hd/5/Y8+YTiEX747p21gm2p4KQwcKPAUiKjlDpIBSVlUNg7xcigVPBL5fXmJ4zIMrlcE+5Ae7qDwNijnVMiMCyYEkYMAym6SjBXf8xqFM+C8iU8mMB0I7tkggsx7ouq4bzaM7SAPyXLYHr+BZAIYmbrDogS4MRgZUloJ04DNe8EgSEdQ2/2rkD9258F7tiYagUeeVEd2bHZibOrsewctI0fG7qDCgiS9cZW2ScrbNITMMbO9rxpzU78FpbB7bv249dA2GENQ0S11g70Acjt3SDVbx8P7mVnUlaPwrfXus6XKKA82Y04JbTFqChxJ8Uy5GWZYvkth4NGsExCOhR7F/9AHa99RNe2IGXG7VJSzwPoqijrKaX/7aZ7xAisWziojHN4HIKLBJr6p1wVZ2b20gsIrAsXTKiHISbaZ+Vn5VbP1s6S+o8XQSIwEoXscK7ngVgiV4VoY8thev02YBiaj1Tyz8EiMDKA59OVCfrUAgSlQxhGOiIhPGfbVvwgx2bsTca4WmDOgm258GqsWoKphbWdG8Qj7YuQGuwKCnpMjJFdTCqYTASw3s9A9jW1YdtHfuxbm83Nnb0Ynf3AHb1DSIci6cjiSLfgOoC24IeiMtyeoQWI6+Y5pVPlnDJ/EZcfexMNJYHeVRaqmm/VnmX+iUExkJg/zsPY8/bP0YsMsjT9OzWzLRlwOWJIlQyxKUbzXRCIrHs5qvD2cP8J6plcNVfB3fdCgiiKzdmE4FlGe7mW0MwUwlnfReCq8aysahjZyFABJaz/JVta3n2oCzAf+Y8+C46BkJRjiN1sw1AgY1HBFYeOTxTEReJyKueaATf2bIB32/bjAEtZqZ1EXmVRyvGmqkIhs4jrz5V34Qbm1ogx7WakpEvifXLdpjsh4jlsGuajgSptbOnH1s6+rB6Rzue27ATb+/pAtPPkhQZiiINpx2OfA6cRmaxyDI2eY8o4KZls3HZMTNQ4jUrMqWqeZVpQtuaVUK95hUCRhT71zyJ3au+A12Pxgkhswqu3Vri/eD1RxAoHoqbR+Sw3fw0mj0miVUMX/OdkMvPgZCLbxIisCxdLkwPi5HK7uZPQKm9Mfcpo5bOljpPFQEisFJFqvCu47/rogjfUVPhu4ZVHAwWHggFNmMisArM4cmmm4i+2jk4gG9vWY+f7tqOiKExFdVkt9LfCQGOAFev0nW0eIO4f9Y8zA0Vpx89FK8eloCUETtsbWqGgWjMwEAkiva+Ibzd1oGXt+/Dur1d2N7Vj85wBJGYjggvnxvX3+JG2VtHi586M5sBTA56ce3SmThvfhMCbpVHmSUj/w5dekRi0cOYNQRYtcENT2PPqkegRXttlTY4KgYs1dnQESiOwO8Pj0hRdhrlnTUv22ggU6RXclXC23wH5NKTAcEk+bPWiMCyHGrmZclTB2/rdyEEFlg+Hg1gfwSIwLK/j3JhYaJGmdpah9C1J0KaRBUHc+GHbI9JBFa2EbdwvIluWnnkFYCtA/34xsZ38Zu9u/i+3xBEmFtraoRAaggIhgZGeV5R24ibmmfAJ8kpRxAlGyGxThM/WgYM9IZj6OgdQltnL17ZvherdnVg095utO0fQn80ZgrCSxLX02LNvNfIecVDZoYZEWJA0AwsqCvF7SfNwzFTq6FITHjSSAu3ib4DkmFPfycEDkbAQLjtd9j+9zuhxQbAKv6lS7bmBFHGsXOSW0dxxRAXdTdTCZk1lE6YE5+MY1DRVQX/zG9DCh3xvmIf4+gu9VuIwEodqwldKcJTfxHkxi8Bkn9CPdHNzkeACCzn+zDTM0hUHXRVFSPwmZMhz6tHXNwy00NRfzZDgAgsmzkkV+awl0DMMPBWTyce2rQOz3XuNbWFiLzKlUscPi4Tc9cw1evHt1sXYU48CitTkxpONxwmgMyedd3AUEzHQDSKPT2DXEdra/t+rN/bjU1MR6unD7v6hjAQ0zklK0hMR0vgJFKi4mG2qNoEecX0riq8Lpw3axIuXjwN0yuLoMiSaR9V+szUkqF+LEBgcPffseulLyHSv9eMvHRQS+hhybKG4opBiHL8nUB6WI7xIltxoqcJgRn3QwqyKJ0skY9EYGVljZgHTz54Zz4CqewUEnTPCur2HYQILPv6JleWsQLDamkAwSuXQVnaTBUHc+WIHIxLBFYOQLfdkPHUrE39+/GFd9/AP3o6zYgVUaLIK9s5yzkGsRQdtyjisZnzcWpVnSnmbqH5I0ktrqMVj7SK6TqGYhoGozra9w+grbsfb7W143/X7cDLbZ0IR6JcR0tVZR6hxQIRzbsTVcoybzTXumL2aTpmlQdx6ynzsXRqDQJuhf/3ZJUbD2cRRV9l3k/U4+gIxHo2YNuzVyHav489Ko5sCRJLVVkkVj8EMZF67NAJOdIL4zd6WM+sdBFczQ9D8Ewef2fp3EkEVjpoTehaAyJcZUvhmvktQC6ZUF90s7MRIALL2f7LtPUJ3avAR4+F94OLILhI6ibTGNu5PyKw7OydbNnGdIV0Hf+7bw8+vfoVDBo6RV5lC/s8HkczNFQoKp6cuxiLikp5pFMumrlJTRBaJnEUZlFa4Si6BsJYvbMDq9o6sG5PFzZ29mHfQBiRqIYoTzEUIDGCN06+MWH5RMXDdGfDEnQ5ycQIKsNApc+N82Y14KOLp/Mqg4okxiOumIBtLpCiMQmB1BAId2/F7hdvx2D7645fq4kUXl8wAl8wbBLXPJCHHsLUVoMdrhLhKj8Nnml3Q1BKrTeICCzrMY6PwI+S5BJ4ZtwHufzU7EXZZW2GNFCqCBCBlSpS+X8dOwMWFBn+M+fC+5HFEIq8+T9pmuFBCBCBVQALIllkBvt7WNPw853bcPO6NyGKTHuHPt4LYGlYOEUzhbDVG8R35x6JqT5/WlpOFho2TGYJcaF4tv5ZGDIjtNr7h7Czsw+vbN83rKO1o2cA+6OaKaYuihBFlnKY2OCOraOViAJjMV286Tr8ioSTmmtx1bEzuOaVS5G5yDylDFrpdeo7YwgYOva8cC06tz/Pu3Ra6uChOAzr4RlAcdkAVE9CDytL6WgZc0xhd8Qq13lrV8Dd9AXr9ZKIwMraYjMrEgLu2g9DaboDkKm6WNbAt9lARGDZzCE5NIfJhbiPaERw5cmQKumdkENX5GxoIrByBr19BmbpTL3RCB7YuAbf2bEpLh5NH+/28ZATLWFRfRpOLa3EQ7MWoFR1QTLDGmzVEikoI9MP2fMQjrKUQw3tfYPY0d2P7R29WLunGxs6erGjqxe79w+a4vAsIouRWkxHKx6dNVIJKBH9xRiy2oAHS5uqcMbMBhw5qRylfs+wqHy6KYPJSGlbgUzG5A0ChjaEjtcfxL61Pwf0qOOjrxKOSZBYkqyjuLwfkmymEJMGnXOWrgEdklwET+MtUKs/wo7nrTOeCCzrsD1MzyxuWVJc8M5+DELRclafMKvj02D2QIAILHv4IZdW8G9fUYRnRi1815wAqanifVXGc2kfjZ09BIjAyh7WORsp2WaXVXXbGwnjhtWr8GzHe1BFEbpAHwg5c1geDMwS9gxdw8dqp+CL01vhFSXbRGCNBe9hxeFZgQPdQETXeWrhe/sHsb2rF6vb2vGXdTuxamcH+oaikFVTRyuh9MWJsEgUJaqCixY04YIFTZheVQyvS+aEV2JznOomOUGGMcKMGiGQfQQMDO15HtufuxFadChvyKsDJJZJPbu9UYRKB+P/mUis7K+z8Y3IKmBCkCCpQXhn/QhKaJ51keREYI3PSRO4i/3+eWrOhtJ8PyAHJtAT3epUBIjAcqrnMmm3AKm2CEWfPQPytCqqOJhJaB3WFxFYDnOYFeYyAmt3eAiXvf4SXu/bD5WnEFIjBMaPgGDo8Agibmqcjo81NMEjSWNGM5jkjAbNiEIUFAisEhgPgjhY+D1Vsmf8lr//zkNJLUZMsYiNqKajLxJFd38Yq3d34vW2DmzY040tXb3oi2poKvZjaVM1Tm6p4xpXHiYSPw7iKpNzob4IgfEiEOt6C9ufvxlD+7fnbZXqhB5WoCgMjz8yrmIK48WX7psIAjpYqhkEEZ7S4+Cadj9EVyURWBOB1Ib3Cu5aeFsfg8grTlIrNASIwCo0jx88X/bdLZf6ELjkWKjLZ5Joe2EvB6YlHC+HVeBAFPL0GYG1sb8PF676J3ZFwlzAnRohMCEEDAPlqooHWubh+LIKyGJCoPzwvbLT8+6hXViz98/wq2Uo8U5BiacObjk04gZTl20kiZULQithEK8kmKgmyPW0gIFIDB0DQ4jGdJT4XCj2ukw1uQloXCWLoJyQn+hmQiAFBLShfdj5f9eif+9qCEw8Lo8b0+6TJAMllQOQJZ1VbaCUJZv724y+EqAEZsE349sQvU3WkVcMC4rAysmKYBUJ1cnXwj1pJSCRaHNOnJDDQYnAyiH4OR6aUxWqguCKo+A9bxFAFQdz7JHcD08EVu59kFMLTAFrA693d+Kjr7+EHkNDvE5aTu2iwZ2LgAAdmmFgujeAb7UuRGswlJQU1bQotnT/G3/d9A3E9DDccgABVyWC7ioUuxtQ6p2MoKsaQVcVVNk3rIluMlpcrSZnejWHTTtMuG8CxNXIFZAYI5eEnXNXJFk+IQQMHZ1vPoj2d38MXYuyWpoT6s7uN5vRoIDHG0WwlKVKGvF0STrYsaPvDpBX8+Cb9jWI/laeSmhpIwLLUngP3zl7LgVIRYvgbf0uBFdNDmygIXOJABFYuUQ/N2Pzb19DgKiI8J46B96PHgORKg7mxhk2G5UILJs5JNPmJNv4JgisZ/e9h2veehlDTIw6wQpk2hjqr3AQMDQcFyrDg60LUO3xcs2n0RpbgzE9gnf2PIO/b3sMuqGNuFRk8q2cAJNEGX5XBWoCrWgsXoLa4Gwoktusg8Y2nZx6TV9bqnCcQjMlBNJHoG/Lb9D24pcAIzYccZh+L866I0FiFZUNwO2Nmb+IFJlsOycy8oqR+mqgBZ7pD5rklRkyZ20jAstafEfpnRNYigp36/cgFZ9gPVGZk1nSoKMhQARW4a0NU7RdgP/o6fB9/HigIsAPrakRAkRgFfgaSBBYv9q9A9e9swqGIMIYg2wocLho+ikiIMPAhVV1uLNlDjySnFT/KqIN4N9tT+G1nT+PVytMbEJMOjWxoWTREOxARhIUeJUiFHnqUOGfhjLvFITc9Qi6KiFLbigiS92Ln8LHI7QSplMUU4pOpMsKHoFY71a0PX8dBrs2xr8Z8zv6KuHwBCHOUwkrBsCqE5rvDfpytstDYUokipAD8+BtvhNSNiKvEpMnAitny4CRWErFGXDPeAACibnnzA+5GJgIrFygnrsxzQAMAer0SgQ/dTLkaZVUcTB37rDdyERg2c4lmTUomX6O+aEO/GTHVty49nXIopxZA6i3gkRAEYDrJzfj+inTkwohMw22gWgnntvyMDZ3PA+Rr8HRTtHZajVTCQAm3Mv+nW0uZbgkH3yuCpT7mlDln4kybyOK3XXwKEXv23jaRUdr5OJIFi1ZkAuJJp1DBAy0v/Jl7FvzSx7dKBYYd6PrJlnnDw3BF4pw6oqisHK4HONDJ75p2D99xbOgtjwOwV2fXXKRCKycLQR+gOWZBO+8JyF4W3JmBw2cfQSIwMo+5rkckYu2V4YQWnkSlAWTqeJgLp1hw7GJwLKhUzJpUioEFhvv8W2bcPv6t4jAyiT4BdqXaOgISTLubpmDs/9/FBZLHxwt6okn/ukGuoa2408b7sK+vg0QhLErFh6ANRGdZUZoJaKzzHRDFSojtNRSU0fLVYdSbyNCnloUuWu4xlb8cGe4u1zqaBXoUqFp2xYBHf1bf4Nd/7oLsYipA1WIzazRYKC4vB+q20xtJhIrtyuBv+slH1xVF8I76RMA10LKMrtKBFZOFwGLvPLMehhS6Wk5tYMGzy4CRGBlF+9cjmZWHPTDd9kSuI9vgaBScEUu/WHHsYnAsqNXsmhTIurj0a3rcceGd6BSBFYW0c/PoXRDR4PqxvfnHIHWUPGYEVhmaqCBvf1r8bu1X0R/tCNOdo1Xx0QfBtXs2yTPzOQfEaKoIuAqQ01gDtfRqg/NhSy5+D2JaMRDiSyrUw6Tkcz5uUpoVnZGINa/G9v/93KEe3cwhTk7m2q5bez5VF0xFJcPmAUjKJXQcswPP4D5WyFIQfinXA+5ekXuUsiIwMrRGmC/0yZZ6W66CSqrRijQxjZnzsjywERgZRnwHA3H3vMSBAQuOgbuC48A3EqOLKFh7YwAEVh29k4WbEsQCA9vXou7N6+FQgRWFlDP7yE0PYZWfwhPzTsKtW5PUgJLN2LY0P48nt38DWh6NOPVBE2CyCSoEntxMyVKhlctQrG7HuW+ZpT4JqHIVYeAWsErHaoSs13i9xxKYk2U1CLSKr+fAUfPzoiiZ/XD2P3mf8LQtXgFPkfPaELGs1RCFoEWLBnigu5mVULSw5oQqGncbKqgMBrVgKtoMdwNKyEVLQZEVsAjR40IrBwBbw7LdbACU+Ce+xMIroac2kKDZw8BIrCyh3XORmLf26oM9+lz4LtoMaSQL+sBtjmbOw2cFgJEYKUFl/MuTrZRZn/XdB0PblqD+7auJwLLeS62mcU6YpqG00ur8MicRQjJCkRx9Ggqc/1F8dqun+Klth+C1RzMxq9VIvLQ1NNiqUFsUypDkbwIqGUo9kxGlX86ynxNKPVMgVctPUBixdOKRqYSTZTQspkTyZwCRmBo78vY9uzHoWsxCDgQ0ViokOgsitPQISk6yqr7hmGgVEJrVwSrMMgbT0FX4W34BNTaj0FQK7LyGzHm7IjAstb5KfQuiAq8c38IsXgpkCjYksJ9dIlzESACy7m+S2Z5Il2fFRELHDkVvmtPhFAeSHYb/b2AESACK8+dnzKBtXEN7ttGBFaeL4csTM9ATIvhE/VN+NL02ZAFYUwCi6UbRmMDeH7rt/Hu3t9DFFnlwOyQWAfAMCsbHgjPYkdATEdLhir54VNKEPRUodjdgHJvI4rctQi6a+BiFZB4dBbfZcX3WqNrsSR7FrPgHBqCEBgTASPcgZ1/vwH7d62CIOjZVhayrXcSkcr+UAS+YCQehTXeNGfbTtMGhpnxVubrmJVP90AtWgh37aWQipYActAGNgIgAiunfjDXhwD3tC9xUhOimlN7aPDsIEAEVnZwzsUo/FBZEKA2VyHwyeVQWqpJtD0XjnDQmERgOchZVpg6HIFFBJYV8BZenzyaCbh7+hx8rL5xTFKHZ/QZOnrDe/CnDXdid++7aQi4ZwNas8phQkeLicMnSCgWkVUbaEVTyTI0FC3kFRDNep7vTzfMhqU0BiGQCQT2b/ktdv7jCzCMGMQCFW4/HI7mu0qDLOsoqRqEKJokd5alwzPhYtv2MZzqzQgsQ4dLDUFtugNKyQkQ1NLcR12NRI4IrJyvI4NVKi45E4HZD0KQvDm3hwywHgEisKzHOBcjmN/ZgLeqBP6VJ0Fa0EDkVS4c4bAxicBymMMybS4nsAwdD25ci/u2rqMUwkwDXGj96RrKZRWPzz0Si4pLx6xAyKDRdR17+tfiN2tuwVCsFyLfEdotsuFAtUNmHU9tYZt7Vs5bVOBRQphZcSYW1V4IWfCMGXFWaMuB5uscBPSBHWh77lPo79ocJ2YKW7z9UM8l0o79wTC8wTCPvKQ0wkys73gErBnKCsU/FWr5WVDKToXomWbP6BoisDLh+An1YUCA5J8J75wnIbjrJtQX3ewMBIjAcoaf0rWSkVdSkQehi4+FesoswEWi7eliWIjXE4FViF4fMefER/lDTMR90xoisAp8PUx0+kzAfb4/hKcXLUFAVpIKuDMyaEvXS3hmzechSYk0ALsRWIdDJZF2COiIoSbQilOn3o6gqzolAovSCSe60uj+jCJg6Gh/4z60v/2jeE4saV8d9qnnaQ4GKqr7IEhmcQj7Ee4ZXRmWdmZwjTWRHwao3klQai6GUn4aRCbMzQpo2LURgZVzz7DIaNFVDu/sxyCGFufcHjLAegSIwLIe42yPwL6FRVVG4EOL4f7wERA8RF5l2wdOHY8ILKd6LkN2Jwisb29dj69seIcIrAzhWpjd6NANAx8or8Fjc47gG2Exfqp++M0gE3yP4NWd/4W/7/ge3JLHcZtB8/kx4FGKcFrz7agLLeAVs0jUvTCfAGfO2kC0ewO2/+3TiPbtdOYUsmR14vfS648gUDTESj/ArFFByYSjuyARwcoIP3E41ZppGMneWki+VrjKjodUtByCWgKILvvjSQRWlp64sYdhGmnelrsgVn2YhNxt4RFrjSACy1p8s907T80XAN+Js+C/8jiIxb5sm0DjORgBIrAc7LxMmJ74IP/B9k24bd3bELiINjVCIH0EeKUuGLhpynR8pqmFd8B0o0ZrbO2xtMH/3XgPNnQ8D1l0O5L44SdIgoijG67EwpoLzapZtKFNfwHRHTlCwEDnqq9h7zs/NXkYs6IBtVEQ0HUDomSgpGIAkqzHo0wJrgQCI6NLWYQtI/N51rVkagiytGvJXQd3/TUQi4+CqFQC/PDCQSQgEVj2WPCCAnfTTVDqrwEE2R42kRWWIUAElmXQZr1j/pkhCPAsaUbg48dDLAskKiJl3RYa0JkIEIHlTL+lbHWyVKVEdaWf7dyGm9a8AUFkJ6QO+pBMGQm60HIEDB0+UcS3Zi3AKZW1Zi3BMSKwmP5VX2QffrXmZnQNbYXIS2E7b+2Zz5COaWXLeRQWm4NohmUctiV7Ji33Ew1ACIxAINa7Fdv+tAKRwW7++DnvCcyeO0cWKw0UD8LjZxUJC1XM/UAaNXvNm/UDmQA7i7RiUagiDMENSQnAUCdDDbZADsyC6G2G6K6DoJQCgkPTRYjAyt5DN8ZITMhdrbsU7qbbARJyt4VPrDSCCCwr0c1e34nACVdzDYKfOhFSSxV9eGQP/rwZiQisvHHl+CbCXiQs7euZ93bi2tWvwuAEFmu0jRkfooV7l27oqFZV/GDuUZgbLOJk6OiryOAC7rv71uCZtbciGhtw9JJjVdvKfM04b8Y34JZDY2p/Fe4KoZnbDgE9jLb/uwn7d/zNdqbZ2yCDVyIsrekr2GqNPHk6UT3Ka0BRZBiohuBfCMMzHbK3HhFUwu0vhyGVQlJDI3StHP59QQSWLR5PRmDJFefA0/I1CHKRLWwiI6xDgAgs67DNVs+JAw6xzI/QylOgLpzMqiFla3gaJ48QIAIrj5w5nqkkCKy/t+/BlW++jEGmUMGjZhz+gTkeMOieCSBgwNA1LAgU41tzFmGSxwcpSRQSW3vrO/6GZzfdB12POXrJMfKOVSM8c9pXUBOYQwTWBFYS3ZpFBAwNWu8G6Hoki4Pmz1AshdCMPSrExr4RWNSsAkNwQVC8EFgal6jyyCpBYAnlUjwKN8++J4jAssmCF2D45sI/9/sQ3VU2sYnMsAoBIrCsQjY7/SbUCaQiL4IfXQLXSTMBF6X+Zgf9/BuFCKz882naM9J0HW/v78KKVS+hS6fqU2kDSDfwTVxM13BWeQ0emDkfIUVJQmDpYOvujd1P46Ud34dZjcq5xKlhaKyoN5Y33YhZFWfwFUFC7vRgEAKEACGQhwgQgWUPp7JCAO5iuBf8FoJnsj1sIissQ4AILMugzU7HusGEceE5fyECK46B4GUFO6gRAuNDgAis8eHmqLuSae6wVK5tgwO46LV/YEt4aEzhbUdNnIzNGgIGDIi6jivrp+DzU2fBJ8tj618ZBiKxXvxj22N4d++feWUqZxM+jJCL4ZiGq3Fk3SWmGswY+l9ZcwwNRAgQAoQAIZBZBIjAyiye4+5NgCQJcM3/PaTgbMocGDeOzriRCCxn+OlQKxMxyoIiwX/iLHguOQZiid/RWRfO9ER+WU0EVn75c1yzYQTWe+EhXPXmv/Hv/V1wCwJ0gaoRjgvMQr3JMOAXBHy+qQWX1DfCJSVSRw4PCCNV94f38PTBtp7X8yDNxEBUD2Nh9YVYOvmTEHkKTZ6lzRTq2qZ5EwKEACEwEgEisGyxHlhKEtNw9S98GnLRMcAYVY9tYTAZMSEEiMCaEHw5vZk9q64FkxC67lSIlcGc2kKD5wcCRGDlhx/HnEUqEVidkQi+uOZN/PfeNiiiBIM+BApgZWRuimyNVSgKHpwxD8eXV0HiVahGJ3B0XcO+/o34y8a70Tm4nVXTBeBsIceoPoSZ5WfgxKYboYhuIrAyt7yoJ0KAECAE7IMAEVi28YXlCTRWAAAgAElEQVRhCPDPfgRi+QcApsFGLW8RIALLua5Vm6vgv/p4KDNrSLTduW60leVEYNnKHbkxhkVg9WsxfHfLBty7eQ1cMittTdEjufGG80YVDB1MxHyqN4Bvz16IOcHipORNTItic9eL+NvmBzEU6+GCv05ujMCL6UNoLjsep069DarEBI3HJuSSEctOxoNsJwQIAUIgbxEgAss2ruUE1szbIFZdBQiqbewiQzKPABFYmcfU6h7Zd65S5EPg+pOhLp7KxGGtHpL6LxAEiMAqEEePNU32gonoOn69ewdWvrsKoigxBR9ChhBICQGBVeHSdSwtLsNDsxagyuMZU0eNrbeoFsZbe36FF7c9wQXck5E9KRmS44ui2hCaSo/Dac23wSX5xpwTw4A1SjPMsdNoeEKAECAE0kWACKx0EbPsesPQ4W/5DMSaGwGBRKEtA9oGHROBZQMnpGmCFPAgePExUE5pheBhwRHUCIHMIEAEVmZwdHYvjFDQdfyjYw+uXb0KXbEI1xKgNEJnuzWb1ovQsaKqAXe1zIGaRP+KpQ9GtAG8uOP7eHPXLyFJLOzf2emDiQgsk8C6PSmBlU3f0FiEACFACBACGUSACKwMgjmxrhiB5Wu4FFLTHYDonlhndLetESACy9buOcg4dkbLRNu958yH7+JjIHopOtI53nOGpURgOcNPllup6RrW9/Vi5duv4e3+HkhMB4uisCzHPV8GcAvA9ZOnYeWUaTyqaGz9Kx19kb346+YHsLXrX5BE5xNYzI9MA2ta6XKcMvUWqJInL6LK8mV90jwIAUKAEMgYAkRgZQzKiXZk6AZ89RdCar4bED0T7Y7utzECRGDZ2DkjTOPklSDAt3wWvJcdC7Ei4AzDyUpHIUAElqPcZY2xLHqE/W9fJIxb17yB37e/B5ZESBFY1uCdX70aEA0dpbKCr8+Yh1MqayCyBNSxBNwNHZ0DW/GHdV9B5+A2rn+VD6l0jMBqrTgTyxtvgEwi7vm1zGk2hAAhQAgkECACyzZrQdcNBGrPhzjtPkAiAss2jrHAECKwLAA1w11ybVdRhPfIqfBfcwKEiiBJKmcYY+rORIAILFoJHAH20umLRfHo5vV4bPtGxATAcHhaF7k2SwgYOia5vfjBnCMxPRjk+mmjEVImWapj5/638YcNX0Y41hNPH3S65hoTcY9gUe0KHNvwcYh5QsplaQXRMIQAIUAIOAcBIrBs4ysisGzjCssNIQLLcognPACLiFSnViLwyeVQWmtJtH3CiFIHoyFABBatjWECS2NC7u+14XNr30RY1+IRWE4nFsjB1iJgQNdimBcswVPzj0KF6oIojq5nZTDJdl3D2vZn8dzm+8EqYOZD9BWg83ktnfxpLKi5wDwdoGor1i496p0QIAQIgVwgQARWLlA/7JhEYNnGFZYbQgSW5RCPe4B4XSK4iwMIXHMipGMbAcnZ2rbjBoNuzAoCRGBlBWZnDKIbBl7t6sAn33oF70UjMDh3RQSWM7yXOytjWhTnVtTgwdaF8MnymBUIGWHFqg6+svNH+PeOH0JgUX6C83/kWFSZLKo4aeotaC5ZllQHjHmLh1oTyZW7hUsjEwKEACEwHgSIwBoPapbcQwSWJbDaslMisGzpFm4Ui7wS/W4ELl8KzymzAVWyr7FkWV4gQARWXrhx7EmwjTKnopJslhm50B4ewlVvvYIXezqhiPQCKoDlMaEpsoiqiK7hxoZm3DptFtgSE8cgpNgai+lD+NvmR7Cm/Y881c7pFQhNMkqH31WOc6bfjVLvFC7gPtbzRuTVhJYd3UwIEAKEQO4QIAIrd9gfMjIRWLZxheWGEIFlOcRpD2DuLwUebRU6dxE8Fy0G/K60+6EbCIF0ESACK13E8vh6FoE1qMXw4MY1eHjrerglCTonGKgRAqMgoGtQRRH3t8zB+TWTxo48MgDd0LE/vBt/WH8H9vavh8hJVadHYOl8XvXB+Th7xj1QRBdVIKQHhhAgBAiBfEWACCzbeJYILNu4wnJDiMCyHOJxDWBIIjzLZiDwsSUQywKUuDMuFOmmdBEgAitdxBx8fbJILPZ3RmL9o3MvLn79JcRYPTlKcXKwx7Nguh5DnerBU/MXY3qgiBNSYwu4G9jd+w5+tfZmaNoQj9hyOoHFnyvDwOyqc3BC43UcdBaBNVqj6KssrEsaghAgBAgBqxAgAssqZNPulwistCFz7A1EYNnLdYk9pae1Hv4bToVUW2wvA8mavEaACKy8du/Bk0u6cY4TWLvDg7jmzVfwr/3dkEUBBulgFdAqSW+qhh7DEaFi/HzhErglpn81umaaSZBq2NDxf/jdui9CldxxjTVn66xx/SvBheVNN6Cl/GQ+JyJ+01tHdLW1CLR3dOLN1WthJpNTswIBVn3VqGsCXG7nVV5ienyxGBRJgsfnRalHRq1bgCv+ao4niVgBmzP7JALLNn4jAss2rrDcECKwLIc45QE4eSUIUKaUI3j18VDm1JNoe8ro0YWZQIAIrEyg6KA+kpFY7O+aYeA7W9bhrk1roAgCdB5N4mySwUEucpCpOjTdwAVVdfjm7EXc7mQEVlQbwr92PIV/tT0Jt+xzfPQVm7OuRxFy1+C0aV9GpW/6mFUYHeRcMjVPEGDv9B///Bd44Kt35cmMbDqNyBB6rv8+opUNMETn/V5KMY2/vyVVhlcWUSYbqPepmF/qRmuRjKMr3PBLzpuXJauFCCxLYB1Pp0RgjQc1Z95DBJY9/GbKKhuQQl6Erj0Z6pJm5x3a2ANKsmICCBCBNQHwnHZrMvKKv5LiUVj/7mrHVW++jE4tRno+TnN0luwVDB0KgJsbZ+BTjdP4qMmEy4di+/HnDXdjc+c/IUvsbqfrXxnQdQ2NJcdieeON8ColRGBlaf3RMKkhMBSO4vwLLsS6N1aZNxAHkRpwaVzFD6O1CLrPvQkDx3wIoq7BcFj6PVsWOgCmesn+yd7OgmBAFQVIkohgyI/zaxUcXayiNaSi3iuiYPksIrDSeDqsvZQILGvxtVPvjMDquv/3CL+yxfwZM0ulH9yYooNwcIVnFh17+NexwdQfKGI+TSezfaLkc8N/0VFwnzEXgldNswe6nBCYOAJEYE0cw7zqgb2Y2P/2hIdw3duv4fmuvZBFkcTc88rLmZkMEy4PSiK+1boIp5RXJ/kIYESPjt7IHjyz5lZ0Dm6LX+90AkuDIKg4svYSLKi5gKcSCg6MvsjMiqBe7IYAOyhdv2UbzjnxBMQ0nT7UrXIQO/gRJYSbj0TXpXdDggFNYOn3+dMkwYBoCPArIso9Ei6ZGsLlU3wodYuFx4kSgWWbhU0Elm1cYbkheu8Qer77dwytfg+IRgCNfX8Bhh5/0+o6hJgGOWZmswk8VIhVvtYQ1XXoTBBFB0TRTIo+lLwS2H92+iepxV7ggRCKBN8HF8F30dEQ3OyogxohkH0EiMDKPuY5GzGVCCxmHCMahnQNT+3YjDs3vMM3PQZVI8yZ3+w6MIs8qne58dicI7GgqGTM9EEWbswIr7aeN/HH9V9BONafF5EgTP+qyFOHk5s+h0r/LIgCFT6w63otRLvYO/8Xv34Gt1+3EoZIqeCWrQF28ANAC1Ri38rHAF+IR2DlE4HFsBsZ7xCQBUzxKzijzo3Lphah3icVzt6PCCzLHqV0OyYCK13EnHt9d1cX7vz87fjXP//FvyfNVDbWWNgVp6Qg6oAsiFBlBYosg72VBM2ASxLgUjwogweVsh8+txeqZiCgeNEgBVEp++AWZKiGBJm9ydihhNmpOcKBwQr2IIhDIAjwHTcdvsuPg1gVdO5iIssdjwARWI53YfoTSEZkmTpYOt7q6cK1b7+GLUMDcRKLjibSRztf7zBg6BoWBorx6OxFmOT1QeIb5MO3RGTfmvY/429bHua6UWZzbj5T4jmaWXEGlk2+FpKoJiHx8nUt0LzsigBbo1+661784qknEYuxZ865z5tdMR7eQukGJwm7Vj6OcMVkdsyfdwRWYq4S+0YQzDRDFvwwu8yN2+eU4vRqV2GkFRKBZZvHkQgs27jCckO6Ojvx2RtuxAvPv8B/yd5/QGAeJAy/k9nBwqEEVOJgQWARWjokSYFfUOGXFbgEBR5RRUiWUOMpxdH+RkxXy1ACNwKiCk3TMahHoelML1CEyMK8YGatmMV7LIcgZwMkvnfl1loUrTwFUn0pfU7kzBs0MN89GiNpZcIk7xFIRl4lAGBRWN3RCL6x8V08tXu7GW5Lm5+8Xx+pT9DgP+Jnl9fgvpnzUKyoY2o/cVJUi+DVXT/Fy7t+xGK+HR+rbRga17w6eern0RA6gpO8VH0w9RVEV1qPwFA4gisuvxwvv/QSP1GmZh0Chq7DECV0X3YvhqYuzGsCK4Ei268xMotlTRe7JFww2Y/PzCxCnZcpaeVxIwLLNs4lAss2rrDckE5OYN2A5//v+Ql+ax1cV3XkvzG9LKbtx/Y7bNfDClkFXH5MUotQLgdQpvhQIXtR7SrhkVyT5SKouoioEYXO0uvYd+DIF6TlqFg/QAIfVnEw8HFWcbCBVWyyfmAagRAYAwEisGh5HBYBLuau63iufQ+ue2cVunQtfh29tGjJMOZb42K/V9Q14rNTZ8Ivy2N+ULAf9sFIN17Y+i2sb3+OhyE7neyJ6hHMKDuJi7erko8ILHowbIfApq3bcelHLsKe3TupSpDF3uFRpgB6zl6JyFEf5BFKhUIZsjgERmTJMDC33I2Hj6rE7BBPxMnPRgSWbfxKBJZtXGG5IZkjsFI3NXHon9j5JGQiNMGAT1JR7S7CInct5vhr0aKU8VREUQN0QeeE1shmRmg5cA+lA0JARehTJ8N13HRAzts3e+oLg67MOQJEYOXcBfY1gL189w4N4rrVq/Bc5x4oogRDoBeXfT2WRcsMgwu439Y0ExfWTYJLlJJWIOwZ2o2/bLwHu3tXx6914A95HGKm/xVQy3Fy862oC87llTpTIeRSjYDMoidpqDxG4G8v/AOfuvxyRFn6YD7nN9jBh7wACtB/5DnoOf+zkLQYF3IvpCay6lQCMK3IjTvmleK0mjxNKSQCyzbLmggs27jCckNyQWAdblKMlmL6p+ybj5WwkASJy0ewoKRKdwAL/ZMw21WJasGHalcRSiQP19Vi0iw8tstRvwsGBK8bwUuPhfu0OYBLttzPNAAhkAoCRGClglKBXsM22zFdx2/ea8Mn33oZqsxeXEzQnUisAl0Sw9NmEVhVLg8emTkPx5RU8B/vsX6UWbrh3r61+PPGu9EztIsTPk5tnIQCML/mQhxTfwVE0fxBd9ZHiVPRJ7tTRYCt08ef+AEeuPsuaJQ+mCpsE7qOpRFqdbOw79rHwFKMCyUCayRovCaVYaBUlfDosdU4vUbNP10sIrAm9Jxk8mYisDKJpr37sguBdViU4hG47KCIkVtemWlruRBGGNOCdTivaBZOCc6CGNUwGB2EIJqHngkizK7Is6/d4LlHwLPiSAgBt13NJLsKEAEisArQ6YkpJ40G4SfKBvaEh/DZd1bhL517eT64ThUJC3jVmGpoTMNqli+Ib7YuxPRAaEzxcrZ31vQINnW+gOc2P4SIxooCOJPAMiUDNVT5W3FC4w0o8zbytSCOIWBf0IuFJp8zBNha/fytt+F/fvpTir7KlheYDlZMw3tf+wsM1VOQBNYw1IaB5qAL9ywowWm1nvwisYjAytYTlXQcIrCSQpQ3F9iawDoMykwNSwfLvxPgFRWEVB9q1ACa1XJM91VgsaeeC8SzeoesGIbZch+hxb9zWQFGRYJvyXR4P7YEYmXIkdmPebP4aSLvQ4AIrAJdFAnt/mRRI1wLyzDwxz07sfKd1xDhVT1YdaXCSo0o0GUy6rRlQ8cJJeV4aNYCFLvcSQgsAzEtjDf3/Br/3PYf8Uwm5xFY5jNjQJWDOG7yJzC99CQefcU0EagRAnZDgGkYnnPOeVi3+q3CJlKy6Rj2jtjfhY6bf4Jw/QwYPFWkUH8rDagA6oIuPH18FWYGpPxBggisbD5VY45FBJZtXGG5IU4jsIYpKS7uzusUQocBpigsSSKqlSBmeCvwgZLZWKhWwwUJYS0W11NlgazZJ7NGBmu7mqsQuvkMiPUllvuWBiAE0kWACKx0ESuw67kwrWHgvfAgblvzFv6wbxcUUaQorAJbB4dOV4KOy2om487ps3n00VhEKNtIR7Q+vLjjSby5+5eQeMqd00gfU9+GzXNO5QdwVP3lJNxe4M+A3acfjcUwu6UVsVjY7qbmjX2c5A73o/fDt3EtLENkhz2F2xh1x0ishRUefP+YCkz2Oe29P4rviMCyzaImAss2rrDcEKcSWIcDJlGHmx2ASiIwyVOKRf4GzHBXYqqrFFOkYhi6mYbOyC/z+9NyiIeLFat1ZQhccwKUefXgBlIjBGyGABFYNnOIHc1hBETMMPCXvbtx05o3sF9jgsB5Xibbjo6wiU2CoUMRRNzaOB1XT5nGqahkBFZfZB+e3XQftne/DEFQHKcXxXQKDD2G6tAcnDr1NoRc1fEPi9SqKebiJM0my4XMyAECbL29uOptXHruWRAkeldnzQXswEePYvDIc9F97o2cwCr0psDgEbqfmFmCO2YH4WYq705vRGDZxoNEYNnGFZYbkk8E1kFgcZYKZiaDKMIryziuuBnnBVrRopZB1phwhSkaz5qVZBbrWy3yI3TNiZCOnQrIefC+tnxl0gC5QIAIrFygbrMxk22uE2mE7eEw7t3wLp7es4Nv3knM3WaOzJI5gmGgWJLw6KwFOL6iiodFJyOwuge347frvoSuwe0QWakWB0VgcfIKBmoCrVgy6VOoDEyDYJhRZ6mk4Ca7Jktuo2EKCAH2zn7woUfx3UcejGew0UdoVtwfT7kPzzga3Zd8FRBZrCphz+LQvBLwwBHlWNEYcP6eiAisrDxOqQxCBFYqKOXHNXlLYI1wD5NsYT8ZsijBI8qo8Zbg5GAzjvLWo14MQRUksGIh7JpMf1uy7wbRrcL/kcXwnLMAgpfFz1IjBOyJABFY9vSL7awySSwdL3W249q3X8G+WJS0sGznpewYxNZBncuDn84/GlP9/jEJLEb8sB/bnfvfxO/XfxnhWD8EgdGfzohM4OseMZR4JuOEKdejLjSXMbcc6FSE21PVmsuO52iUQkEgpun47E0343e/+gVAGm3Zczt7XwgiYhVT0HXtd2CICrRs5H1kb4YTGmlBmRc/XlqBKV6Hk3pEYE1oHWTyZiKwMommvfsqBAKLeWBkUAEjtBRRgk9xodYdwtXVx2Cp2ohIbNCMxMrQ5zQbU1IVBD9wBNSLjiDyyt6PAlnHghaNxA6L4CAExkAgoYXVr8Xw4Ka1eGTrengkiUisAls1LH1QM3QsChTj+/OPQoXqGjMSySQ+Y3h371/w3JaHePXCTJ8aWeMCU/OK2Rt01+DohivQVLIUsmieSCWbAxFX1niFek0Ngf6BAVzzyU/hpReeL2gNptTQyuxVuiAgFqpG+2ceh6i6icCKw8sid12igFvmlOKGmUGozjjDOPziIAIrsw/NBHojAmsC4Dns1kIhsA7nFnYYzL47/bILDZ4SzPXX4cyiGWgWixGLsoCC5N+lo7k78b3qXdoC3+VLIdUUOWxlkLmFiAARWIXo9cPMOVkaYeJUgO3p2wb6sfLtV/FST0dc0J2rIBGSBYJATIvigso63Ne6AB5RGjMSia0rzYjhXzt+gFd2/gTSsHaandeLSV7pegwhdw2WTVmJyUVH8oqDqZBXiWclGclVIMuFppkDBLp7enDllVfj7VWvgm3wqGUPASbOq4VKsG/lDyC5/ZzAIg+Y+LsAVPhdeHZ5KeoDLud+NRCBlb0HKslIRGDZxhWWG1LIBNbB35UCYoKGMlcAi4umYEXRPEyXShDTYnEfMHmL1NxhVh004GqpRvD60yBNKqPtXGrQ0VU5RoAIrBw7wC7Dp0JgJV6gLALnr3vfw+fWvIG9sQhECKSHZRdHWmwHOwXStBhuaZyB65ta+IkQF54cpbF0w3C0F89uvh8bO16AJDJB6RR/WS2ey+G6N0+iDG5hdXA2jqi9BLXBOfHIq+SaVzkwmYYkBN6HQHtHJy79yEewYeNGno5ALXsIsJQPw+NHx6f+A7GSahip7iSyZ2LORmJHXRIMXD2zFF+bE4LbqfUFiMDK2Ro6dGAisGzjCssNKXQCy6SaDnxBs+9xWWDphQqWlE7Dcf4mzPFUozim8APYVFgsQzcgNZSg6BPLoSyYzJTkLfcjDUAIZAIBIrAygaLD+xhJXiUjshKphD2xKB7atBb/sX0jJFYqnKoSOnwVpGi+HoNbkPBw6wKcVVnLyavRIo3YvpkJoHcPteGZtbegc3AHJBtXIEyQV4ahobF0CY6uvxKlnknDel2paF6liCJdRghYhgBbx207d+LiCy7E7t27hstiWzYgdXwQAkzzzxAldH36O4hWT6MUwkPWB6tKOD2k4n+WV6OeKbs7sRGBZRuvEYFlG1dYbggRWO+HOLFnY9/hLkVFqb8E11QvwTKxCmKMxQMD0E3p1pFnKeZeDpDdCoLXnAzXiTMAxcl53ZYvPxrAZggQgWUzh+TanGQEFj8B4GlhBtb19eD2NW/h5f2d/EyAqhLm2nsWj29oXHr9/Ipa3DVjLvyKOmb01fBa0aPY0vUi/t32FDr6tx5UFc0eaXbmDzkj2zxKCK2VZ2F25TnwqaUQBBZfSJFXFq8s6j7DCKzbuBmXrliBjr17MtwzdZcUAV3naZtdH38Y0SlzoYm0KUhgxs72JcOARxLx6DEV+NAkLxxJYRGBlfQxyNYFRGBlC+ncj0MEVnIfMKLKr7jRGCjHOaWzcayrASFNhaFrhxBYgOhT4f/wkfCcPR+CjyV4UyMEnIMAEVjO8ZVtLE1EYTFu/9m9u3DTu2+gS4ty+ygSyzZuyqghLFQZuobZvhAemDUfs4JFY0ZfJQZPpC8xIffOwW14te2/sKHrBehaBAKP2sslOXSAuBIgojIwHYtrL0Vd0QIeKcYaI9jsQbJl1J3UWZ4j8Oa763D5JZegu7PdIfU+88ghnMCKoePiOzDUehxE0XyXUDMRkOKaK+fUe/H4sRXwyQ4k+IjAss1yJgLLNq6w3BAisFKHmKWyexQX6gMluKR+MU4UG2GEwxB5FW1TVsB/7hHwrlgMMehJvWO6khCwCQJEYNnEEXYwI5Xoq5HEBLu+NxbFE9s24eEt66Cx96IgxhWE7DAjsiFTCLC0ujLFhVsbW/DBmnq4RCllcieRmsf0sAaiXWjrWYW17c9i5/43EdGGIAkyPxniJYGzoBdjrnNAMzSudVXmnYrm0mWYWnIcijy1EGDOLUFgZQpD6ocQyBYC/375FVx1xRUY6O3NyjOVrXk5YhxOYEXRc+5NGDjiLEA2K5dSO4CAauio9Lnwl5OrMckv2VgVcRSvEYFlm+VMBJZtXGG5IURgpQ8xk/nwqipmFk/CCSXNONM7HepQDO4jG+G9ahnE6iI7y9KmP2G6o2AQIAKrYFyd3kRTIbMSkVjdsSjuWb8aP9i5FYogQRBZ1SUSAkwPcXtezT1p6JAFAVfWNeHGpunwSmY1vnQ0oRL59ubJj8GJrO37X8OqXU9jV+87UAU3T9fjAur8n5luZrRVokWNIXiVEiyquRDNJcsQcFWakRJxEi0bRFqmZ0j9EQIMAV3X8Zs//Bmfu+4zMKIRCJTClt2FwTSwtBh6T/sE+pZeCCgqVSE8xAPsDe8SgJ8sq8KpNR7n6QYTgZXdZ2qM0YjAso0rLDeECKzxQcw/fQVAURQcUd6Ii2csw9LPXQrvdHZgS40QcCYCRGA502+2sZpF1bCX47re/bhlzRv4d08nJFY2nETdbeOj8RrCi78bOtc7O7W0CvfMnIdqlztt8mrk+AnSk2+0EcNApAtbu/+FjR3PY2//BoRjvfHLeTgf//8TQVlmhNbI3hL/MkqVteFyLYy84kmQkEUXity1aCw+hkddFXnq4+mCZqogEVfjXS10n10Q0DQN//WL/8FXbrsVQizKmGa7mFYYdjACKxZD//ErsP+0qwCJCKxDHc9WJEusXNlajC/PCfEDEkc1IrBs4y4isGzjCssNIQJrYhCz72DV70PZuWfgqFOX48zmmZhfVo2QQlHCE0OW7s4FAkRg5QL1PBqT0QKsDGvs/5McL3XuxW1r38KmwQFOYumWRNLkEXi2nooBkZGThoGFwWI8MHMBmvwBTimlE3k12hQThJIZFmUgog+io38TtnT9C9t7XkPX4HZE9AEe/WVqZZlSvwcIJvM+k+Ri/zQ36Yn0QJbyyKqBsT+LogtBVyVqA3MwpeRYVPmnwaOUgOleJfok4srWi5GMSwMBRmA9+cOn8PW7vsZ161IppZ1G93RpMgQ4gaWh/+iz0P2BGyFKMkUkHwYzVo1wUU0RfrOkCAGnVb8iAivZU5C1vxOBlTWocz4QEVjjdAE7ixYFXjHed9ZyuI6cy78LAoqKuQ1TcPXMBZjqL+L7NmqEgFMQIALLKZ6ysZ2JqJohXcdv32vDVzesxr5oBBLTwyISy8aeG900Rhyx6LoWbwBfmtaK48oqwOvxZThKKSHybhJaOmJ6GEPRHvSEd6NrqA2dA1vQM7QLfZF2DMZ6EI71QzPCvKIKI64SulmM5JJEBYrogUsJIqCU8bTAYu8klLgnochdBZ9SBlli6SoSJ7aouqAjlyYZnQQBlkL4re89gW/eew9hlQsEGPEf1TC44GT0XHAbDEkiAusQP7BtEqP1mkIqfndiDWo9DosSJAIrF0/WYcckAss2rrDcECKwxgFx4pxXN+BZshC+k5cALhYVzL6AWVaCiJpACMdNmYZzp7Sgxu1NWl18HFbQLYRAxhEgAivjkBZmhwdILA2/aNuGm9e+wbVXRCKxHLcgeOQVDC7afkdzK06vquGi7aylEqmUin7aoaAcTGTF46oMDXN77I0AACAASURBVJoRhW5EEdYGEI7t5/+MaWGwqobsb+xKRkiJggKF/U/2wiX74ZL8kEUVoiDzvyVaJgm48czTcYuBDHYcAqz60JceeQw/e+heXlSDWpYRYKx6TMPQ3BPQedGXeQrnKEnOWTbMfsM1eGT890k1mB00f18c04jAso2riMCyjSssN4QIrPFBbAgCPHNnwHf2iRDcLt4J+28jGyOyphaXYUXrQpxQMxkKO6we33B0FyGQFQSIwMoKzM4cJJ0N+kgCok+L4antm/Dg1g0Y1GLxdEKHfaA602UTtppFXhmGjiLFhc83tuDC2klwiWJakVfprJuxDE6sKf5jGyfVDr4+sS089GeWkVrsygOb91SItwmDRx0QAjZAgBFYN991P379+KNAnHi2gVkFZAIjsGIYal2OzouJwBrL8VUuEU8vr8URJWZhEMc0IrBs4yoisGzjCssNIQJrHBDrOtTGBvjOPQViRemYHbAsi6DHg8W1k/CB5lmYW1TuPH3CcUBEtzgTASKwnOm3rFmdICNSISWGSaz/L87aER7Co5vX4/G2Tfz0maUTkiZW1tw2roEYecW0zDyShBsnN+PqSVPhHhF5NRoJlPD7oX9PZc2My9Dhm0bGNVh3VjSSSCMibGIeo7utR4Bt6G784tfwux89TgLu1sN92BGMaBSRWSeg46NfAWPTqSrv+2FicbHFLhE/W1aFo8vNqADHNCKwbOMqIrBs4wrLDSECK02IDQNSyI/ginMh1deYshsp6Fyx79xSrw8fnjEXH5wyg2tlWfeFneac6HJCII4AEVi0FDKKQGKzz6IAdg4O4IltG/HDnVsRiwtukyZWRuHOWGcJzatiWcW1k5uxom4yQrKZepcs7W40AitjxuWwI+tJuBxOjobOSwTYhu6627+KP/7kCYrAypGHGYEVnrkMXZfdCZ1vGOjz/1BXsF+XkCLgv46rwNIqb448Nc5hicAaJ3CZv40IrMxjatceicBKwzOGAdHvg//cU6DOnJoScXVQ74YBn6piYe0kfLC5FfNKq+ChisZpOIAutRoBIrCsRjhP+k+HpDgQiWWgIxzGtzatxSM7NsIjyVw2kEgsey0KpnnFVK8UUcRNk6bh8oYm+BWF5e0lJa/YTNIhedK5NtcoMTHsZORdrm2k8QmBQxFgG7obbv8qfv+T71MEVo6WhxGLIjJzGTo+eidFYI3iAyKwcrQ482xYIrDyzKFjTIcIrOS+5vsvVqTIMBA45yS4Fs/nFQdTibw6tHcmwsGOXopdbqxYcDQ+NHk6XKSrmdwJdEVWECACKyswF94gIzWxOiJhPL5tI55o24oBLUqaWDZZDiyxhZFUTF8qqLjwyYZGXFHfhICi8B8tSpeziaPIDEIgDQRY9OuNX2AphN+jCKw0cMvopdEohmadgE5KIRwVVrY5KmMphMdX4+gyNaPwW94ZRWBZDnGqAxCBlSpSzr+OCKzUfMi+3T3HLoRn+TFAXLQ9tTsPf5VoGHDLChbUNOCCGXOxoLQSChFZE4GU7s0AAkRgZQDEQusinSiaRHXCrmgEP96xBd/atgH9WoyTIywSi7RBcrd6EmmDFYobn2tqwfk1DXDHQ4Stijyys55UOlGGufMajUwIjI0AI7A+f9eD+NXj36QIrFwtlmgMQ3NOQOcKEnEf3QUGyl0S/nt5LY4kEfdcrVTHj0sEluNdmPIEiMBKDpWhG3DNmorAh04HPJ7kN6RxBYvqqvQGcNG8I3BWQzP8ksOKb6QxV7rU/ggQgWV/HzneQkYMsE3V/mgUz7zXhoe3rENbeJCnrLEy70RiZdfFXFLY0KEZBlq8AXymcTpOraiGJwXB9kxbmg4ZmumxWX9EWlmBKvWZSwTYmv7yI4/hvx76Ok8doJZlBFhUa0wbQWCRBtahHkggUuOV8esTazEreKBibJa9Nb7hKAJrfLhZcBcRWBaAatMuicAa2zGsrJFrUu2BioMZ/v1PvLf9LjeWTmrCBdPnoDlQBIk0Hm36xOS3WURg5bd/bTG7kemEEUPHPzvacdu7r2NLeICnE5ql3mmjlQ1nJcgrVm2wxevHPS1zsaC4DCojE1PUvMq0nSNJrGwRWtkaJ9NYUX+EQDIEmHbbY48/gYfuucckaDP8EZts/IL/u65zAmtgwcnou+A2aJJEhzSHWRSSYWBaSMXvTqpBjYcIrIJ/bsYJABFY4wTOgbcRgTWG01jFQb8fwY+eC7GhhmtgjUf3KtmyYDs1s7K8gMnFZfj4vKNwTGUtVEopTAYd/T3DCBCBlWFAC6m7dEiAkSQWI09e6erAI1vW4cXuDsQAsDgsQ2BEFjWrEGBRVzB0uEQJy0oqcP2UaZgVKoIkiLbXvEo1UirV66zCmPolBHKNgKZp+MFT/4l77voqBE0nAivbDmEElqah/6iz0P2BGyFKCv/gp3YwAkzE/ai6EP7n2CL4ZSKwaH2MDwEisMaHmxPvIgLr/V7jhBIjrzxuHnmlzGoGJGv3UsMkFoASrx9nT2vFB5tmoMzloVAEJz5YDrWZCCyHOs4uZqdLGCSu1wwdbYMDeHzrRvx41zawyCyR6WJRlUJLXMvIqygMFEsyrqidgssnNaJc9QwHZ9hZsP1wulnpkKeWAEqdEgI2RYARWD/571/hjltvgRCLkg5Wtv3EI7Bi6Fv2EfSe/nFAUonAOsQHLPqKcVafbS3GLbOLITstALvvHfSv+gii4Y5sry4a7yAEzIXjbzgHUvMDgOglfCxGIJePKhFYBzuXfQeLLHtCFuE7bRncixfAELPrIRbppUoKjprUiGvnLka9N0AklsXPIHVvIkAEFq2ECSEwHiIhIezOTqX3hofwxz078WTbFmwc6DMXJaUUTsgnI2/mUVcANF1DayCEqxuacFJ5FYpVFwSeXSRQtcGMoU0dEQK5R4BFJPz+T3/BTZ9ZCT0aoQisbLskTmDtP+VK7D/hYkgyEViHuoBtsTwC8LPjK3FitRdZ3nNNeEXsbXsHP354BXr3d024L+pgoghocM8/Cf4lnwQk10Q7i99vQFBdEBUVAtuOZ5cTyNAcMt+NKgg4vrQSU7yBzHeeQo9EYB1CYLH9kq7Du2QRPCcugeBx5eSwhD0eTNN4WmUNLp4xH0ur6sHk3emxSWFR0yXjRoAIrHFDRzdOFIFEZE1E17Gmtxt3rn8HL3TtgyLJ8fxth6UVTBSQDN+v85RBAzFDx9ll1bh9eisme32Q+QcZEVcZhpu6IwRsg8Brq1bh8ssuQ19vH+gtmmW36Dp0LYq+c65H3+JzACU3m4oszzqN4QyoAMr8Hvz1pHJM8vFfJEe1d995Fys+cgk6OhiBZR4SUcs+AoxcEmIxeE44CkWnL4UgZyZ1yoABOVgE2eenXfgItwYkBTe3zMfSytrsOxsAEViHwm7A09oC77mnAt5Mkbfjcy0/DDcMlPgC+OjcI3FOfRM8bC83vu7oLkIgKQJEYCWFiC6wEgEmOMyaBmDXYD9+3rYNP3tvB3aGB/nGi6UV6qSNlZYLWNSVHj+Hme7x46KaSTi/uh4lLtfwjwkPO6ZGCBACeYnAm++uw+WXXILuznYisLLtYUZg6VF0XfQVRGafAJ1KjQ97gG1mWPogax+cEsS3F5fC77j8QWDd2rW47JJL0N5OKYTZfrwOHs+AEYnCffxR8J+2DJBZ3McEGxO/NgwooSIoPj9FqI+A0y/JuHn6PCKwJrjEJno7I4pYpLU6uQ7+806BWFU+0S4zdj/bWQRUN05umo6LZsxHrdtLJFbG0KWORiJABBath5wjMCzwDiCsxbCquxPf3roBz3fu40QMI7HYMZhOVS7G9BUjrpiKGBPJZ6Hep5dV46pJTZgTKoYqHih0m67e1XjSRHO+qMgAQqCAEdiwaTM+etEKdOzbw4IwqWUTAU5g6ei48kFoUxdAo8OCg9BnBJZbFPDEkgp8oMHnyM3N1i1bcOXHLse2bduyubJorEMRYBv5SJRHYGWKwOLfo8MElg8CfXcOo04Elj0eQRYhKHm8CKw4B0pjvSXVBsc7Ux5xxZ4fUcSihkZcN+coTAqEHPmeHy8GdF92ECACKzs40ygpIJDQxtIMA7uGBvHX9vfw9M7teH1/N6vZCk7BxIXeU+iuYC5hpBX7wYgaOphiw9FFpbiwpgHHllSg3OXi5W5J66pglgNNtMAR+H/sfQdgVFX2/vfa9JlMeiUhoYciRVewgr3/7GW76KprBxQbdopdLFiw7OoWdVdd7B1QUVwVG6i4gvQeSCA9mfL/n/tmYsCUyWTmzZuZc3+/LEjeu/e+75xX7nfP+Q49R9dv3ITfnH46Nm3YSPVd0xwRYy8/SBpYkLHjwjloLRmMgNiA4UYIEBJqMIhBWVa8ML4ApY7YpHwZje7GDRtw3jnnYvny5UYPzeO1R4AJLEP9gQksQ+HueDASbnfY4D7xCKhDB1GaigkmtfsUKEKMmqppGF5SjrOHjsYoTxY0fheazlbJPCEmsJLZeiafe08rFIYvJ5xWSJFEm5ob8fSalXh47Qq0SpKILApKsqhWyI0WBEFQ5FVzMIgMScL5ZQPxuz7lyLHoxBU1ThdkT2EE0guB7Tuq8bszz8CKH1dCaOFxMwyBAC2qrQ7s+PNDaM0tZRH9dshT9JVfAi4cXoCZwxywJmkme1VVFS4473x89cUXhvkVD9QBAkxgGeoWTGAZCnfHgwWCyDjpCGhjhgOKbKroK5owkVcia4MILE8GVJcLRQ43zh84DAdm5ocyakyAI08h6RFgAivpTZiaFxCOxqKrq/f58OWuavxn03q8v30LNrc0w08im2mrj6XvbtDCVANQYnXgkOx8nFRYjEqPF/ZQFUfir3qSLhgmHMVLiHdKUvPG4qtKCwRqdu7EOeeci6VLloAIFW7GIUCJ3AFXBrZf/ATg8sIvooa5CU3LYBD9M+14/qAcVLi1pN2GamxoxCUXXYT5C+ZDTtqrSAGfZALLUCMygWUo3D8PRu9wSkWXJDj2Gw37IftBslrMSV6FZq04HNDcHlFVnoLEcuxOnFhcjv8rKodTSc7I2wRZn4ftBAEmsNg14o5AtJFYbdpYxOgTkeVvxdKdNZi3cT1er9qEqtZmKCF9EapGk+oaWXKQUlOCQvDeFwigyGrDSXnFOKGwDypdHthCL4Uw+dQTEorJq7jfBjwAI2AYAvUNDbjwggvx0QcLQ2NyxKpR4FPKoN+dg+2XPQlYHYLA4qYj4JCA60Zm45LBbmgmTH2J1E5+vx+XX3opXn/1Nd7siRS0eBzHBFY8UO20TyawDIVbDEZvD1r/SH4/tCH94T7tWMBpN34i3YwYThsU0VdWK6yZWYK80l9/+lU4FRWnlw/BycV94RIb7dwYgegRYAIreuz4zB4g0Fsh8Pb6WLt8rVhWuxMLt23BO9s3YXl9nYjGkim1UAhuisd9D2Zn3kMpPZCuif70Bfwi/Ha4KwOH5RRgfE4eBjjd8Kia+HfWuTKvHXlmjICRCPj8AUy94iq8/J9/p8yz0Ej8oh6LFtSyjNbsElRd8igUxcoEFkVekegwJOyd78ST43LQ15mkuYMhxwgGgphy+eV4+eWXo3YVPjEGCDCBFQMQI++CCazIsYrVkWI1Q4WZSovgPOVoKLlZpou8EtcaCjSQVRWaNxOKZtmD3NfjkB2aBUcXl+O0or7It5qPiIuV3bif+CPABFb8MeYRwh99xMz3YjeaHn/hCjH099ZAQGhkvbtlE55Y9xNWNtYJxl8LcVeCzKKHapJVkQlXEww7DqUAtQaAYS4Xzu/THwfm5iPXYoUq68kL0RJXvSUV2bEZAUbAnAjQvX3v7Afx8H33gBSwUoPONyfWu82KFtSQ0Vo+FNsm3iPeR6Et6CSYfPymqALQgn48sn8+TunrpposSd9unDYNzz33HHytvqS/lqS9ACawDDUdE1iGwi3WL/T+UJw2eH57EpS+JaAXetBkz8+w7lVQlmHNyoJisQmgOlvvWRUFE4r7YmLZQOSoVHqKGyPQcwSYwOo5ZnyGCRAIE1m0OGsJBLC1uQmf12zHoh3bsGRnNdY2NaIpQB+WFJklHqWmJbLaoqxomkE/AkHAhyAyFRVldid+lZGF/bNyMcqbhSyLBZYQIRctcWUC8/EUGAFGII4I0PPxi2XLcdoxR0FWkjvaJY4wxb5r2jAJBNA44jDsPPM60Ad9OutfCSFf0qtUZFxUmYmrhrjh0lLDH++87Xb89S9/QXNzc+z9iHuMDAEmsCLDKUZHMYEVIyAj7IYkQxSrFc4TDoN1xBAETfguF+SVzlZB9Xig2Z3i710FK9B7waao2DenAGf3HYRShytCRPgwRuBnBJjAYm9IGAK9jQBq08gSxI/+EG3w+URUFpFZH2+vwuKdO7CuqV78jiKWKJmB6H7Sk9I1sxLF/Qfb5kAEFulatfr9sMoy+tldGJuZjXHeHIzOzEKexSb0rcLRVmGD9SaaLWFG54EZAUbAEAR8Ph+GDhoKv7/FkPF4kFCEsK8ZdRP+iNojz0EwzXU+LKLYSBCjch145uA8FNtSg7wiX39s7lw8MPs+NDQ0sOsnCgEmsAxFngks4+AWG9SQ4DzqYFj3Gy1E3M0WeaUvvfSKg4rTBc3thkSSJ226V13hpRfi2ienAH/uPwwlNmfCVmPGWZVHiiUCTGDFEk3uK2EI/ExmUQlXPSqLRN+3NDdjVX0dltXWYOmuGiyr24kNzU3wi6IeMixCO0snsfRi8xKCwYD4N/2xHH0TtadCFcAojVEWsb8UXaWLsIsqgpKMvjY7hnu8qHR7McKTgVKHE7maFQ5FgUYiiO1CcZm0it4efCYjkE4IBAIBnHjyqfj+qy/TOgrIUJvTRkrDLtRMvBtNww4Su9DpKuKuBIO0XYRhOXY8NDYXwzPUlEgdDPvTv559Drfeeisa6+sNdTEerB0CTGAZ6g5MYBkJtwTHvnvBdvgBkByUkte79UisZx6OvKLgAMVuh+bJgLybaHt3I+prNUFi5Rbg7IpKDHS4uzuJf88ItCHABBY7Q0IR6G0UVkeT18ks/eFIz/xAIBSd5fdhW0sz1tTXYWHVFrxfXYXVDbWo9wcQkCVYZBlaSAI+3C+RWLTrQeW/u2q0y0ykF0V16RpWOhkWosTQLFJLKOoKcKkK+jvcmJCThwOyclHicIooKxpfF2P/eRJEssWqxQPrWM2N+2EEGIHYIkD3+3XXXYd//eOfoUeRuT6AY3u1JumN3hM1Ndg64w20evPTVv9KeFoggH4eK+bsm4MD8m2hVH6T2CkG0/jw/Q9w8UUXob6uLga9cRdRIcAEVlSwRXsSE1jRIteD8+gdEgzCNqgCzjOOBRyOHpxs3KFEYNGmv6pZhGi7pFJVwa5TBzuenb522icnHxf2H44+HIllnBGTfCQmsJLcgDz9rhEIR2bRUaFMbZHS0Oj3i58dLS1Y11iPjc1N2NTUiKrmRmxqacZOXwtqfX40BPwiWsofCKA1GIRfPLR3J7NISl2VJWiQoBAJpihwyArcioIszYJ8iw15NjvyLFaU2OwiwipDs8AuK22pgSJnPHQpevQtLzbZtxkBRiB6BOg7+Mmn/obbbr5RRJWabQc3+isz75mkfxWw2LD5+lcgKxoCafYYF9HCoaqDAz1WzBqTg/EFFlh0IcqUaj+tXInTTjkNO2uqU+q6kupimMAy1FxMYMUZ7lA6ntqnCO7Tj4GUkxXnAaPsPkSySaqmVxy0ULJ456Lt3Y8ShAoJo3MLcH5FJSo4Eqt7yPgIqs7ZTWgJg8QIpBACe7o7kVqhQh8iUqspEEBzwI8WUOW/ABpbfaj3taLe7xNkVlPATxvLuzXSVbQqGlyyDKeiwqFqcFApWVmCKsmwSbLQthJpiRKVxNUf9KEAMV3wMIUw5kthBBgBcyDw4Qcf4U9/+J14lnH6cZxtQlG2lL5ePgo7zr8PwWAr9CS69GmqWIAFUe6x45H9crFvtpZykVdha9ZUV+O4o4/B5s2b08fAZrtSJrAMtQgTWHGGm56fdjs8vzsJat9iXYIkhlkYsZp9OJtD82ZBtVF6I1WY7+27LggSTBmVk49LBgxHqc0Zq+lyPymKABNYKWpYvqyeIxCubBjaStDjrEJhshS1JSK46P/3YJt0QkoEz+opgO12IsIkFS8ee24PPoMRYAR6h8CadRvwuzPPwob1a5nA6h2U3Z8tCKwgavc/DY3HXwJ/cM9Y3e67SMYj9FIoenq8JgVxQpkbFw3NxEivBjWFd2b8fj/OP/dcfPjBh6C/c0sAAkxgGQo6E1hxgjtUhIoqDrpOOgLa8EGhRYXJHqChedJ6RvVkQHU4xLonlusb0sQam5OPcyuGooyrE8bJ4VKjWyawUsOOKXcVYYafhIhjqQPVa6DC4VrtO+ro33o9UM87YI2rnmPGZzACqYxAc0srJv7hj/jvJ4vbCkqk8vUm9Nqosi0U7Dh5KlpGH65XjUrohOI/uBq+wmAQbk3B+ZWZuGigGznW3u7Gx3/uvR2B3rf33n03Hnt0LlpbW3vbHZ8fDQJMYEWDWtTnMIEVNXRdn0iRV7IE5xEHwnbAPghSWocJ8zLEGoOCwtwuWFweQVzFkrzSQdIjsQ4pKcefygcjV9XTE7kxAnsiwAQW+0TSIMAETdKYiifKCDACJkCAnpk3z7gNz/7lcfhElIjJdnRNgFGspkBFOoIysG3i3fCVjzRl6kesrjVco1cNlVE/ssSNiYM8ODDXCqeaPinx7771NqZMnox6rkQYK9fqWT9MYPUMr14ezQRWLwHc83SKaAqRQI6xo2E/dBzgsMd4kBh1F1IbUmx2aBkZkETFwfh9T1gUFYcWleKPffohz2pOIfsYIcvdRIkAE1hRAsenGY9AmMBiIst47HlERoARSE4EXnz5NVx50QWQFL1KELc4IBBKrQhIGqouewz+nD4pGIEVhCLy53VlL4siocxlwcVDMnB8HyeyrelDXJEHUXT4sqVL8aeJ52D79u1xcCruslsEmMDqFqJYHsAEVizR1PsKBvywDuwH92nHAG7z6T5RtUHxvKOKgxYLVG8mZIW2Lnoj2h4Zjpos45jickwsHwxPaMzIzuSj0gEBJrDSwcp8jSmFABN4KWVOvhhGIG4I0LfnirXrcPxhh8LX2sIEVryQpoW0JMOfVYTqCx9G0OaEP1SoI15DxqtfIqdosUJ/0tIlnAxIGpBUcTffoWJEphXHljhwUJ4VpS4NaZAx+Au46T28evVqnHv2RKxZs4ZTdOPlkF31ywSWoagzgRVDuEObHpY+BXCdfDSU/BwRjWWmFiavhJavqsKS4YUsKg7GI3Ww4yu3qypOLR2A04rL4VY1M8HDc0kwAkxgJdgAPDwjwAgwAowAIxAvBFpafTj5jLOw/MslCASJmjDXR3K8rtvQfoWGiYbGIfuj9jc3wRfwgz61ifBJmiZLgriigiUBSQItUwRpJaqSyPB6M3D5ABsOylbQx6kiyyKnWY3FX1qyalsVLv7zn7FkyRIh4M/NYASYwDIUcCawYgO3eFYIIXQXPL85EXKfwth0HONeiMASRdclCTaKvLLp6Y3xTB3c8xIIK6dFw3kVQ3F8YZkolMWNERB+GOS3LntCiiGQKhFKqXIdKeZefDmMQFIhQM+Rf/7rBcy+a7ZeSZVbzBEQO9T+VrQcewFa9j6GWKBkoq4QDPqgtjRCVWU4XU7kOCyosAE5NhUFDhklDgWDM23It8oi2oqXELoLkXj7pMsuw1tvvMkEVszvqgg6ZAIrApBidwgTWDHCkjY8LCrcJxwOy6ihCMomLHpBJJsg2mRobg9Up0P8XeePjH8D5FpsmDhwGA7NKYLGJFaMHDG5u2ECK7ntx7PvAQJmJoTMPLceQMyHMgKMgAkRqKurx9oNm2nLyoSzS5EpBQKQsgoBIThr/Ad+r1CkuQeaIdNixWqB0yIjS5PAqmndo/q3vz6F226bheam5u4P5iNiiwATWLHFs5vemMCKEdyyBNcRB8Gy/5iQNmWM+o1RNxR5FY4SU1wuaHGrONiTCQdR7PTg0oEjsI83J9nesD25UD42QgSYwIoQKD4sdRGIN3nUWf/h4Ecjw3FT14p8ZYwAI8AIMAKMgLEIrFixAr898yxUVVUZOzCPJiJEAi2tsE8YC9dRBwOqLi7dmya+y4JBaBleaE4nJMmE0TG9ucBenMsEVi/AExUH9fQ7++hhsB81HpLTfBUHhe5VSJ9LVBz0ekMVB+naE7sxQ6Pv5c3GBQOHY4DTk1wp+r1wHT61YwSYwGLPSEsE2pNKHRFJe/6+K5IpEiJqTxIr3qRZWhqVL5oRYAQYAUaAETAQgcaGRvz6zDOwbNkyBAMc4Wgg9ExgGQo2wARWLwAPaeRZB/eD65SjARdF6pqvhdczimaBRrpXIVLYPBvtQYzNK8ZlA0egQLOaD0CekWEIMIFlGNQ8ECPACDACjAAjwAgwAoxAqiBAC74bp12PZ597DgGfL1UuKzmugyOwDLUTE1i9gDsQgFacD9dpx5qy4qC4snDklaKKyCvZohNE5iGvdPwtiowji8pxTvkgZChcmbAXXpnUpzKBldTm48kzAowAI8AIMAKMACPACCQCASKw3n3nHUy69DI0NzezmLuRRmACy0i0OQIrSrQp9U3O9MB92jFQS4tFVb+gyYTIw7pXNC+KvNLslN4omY68otq41ByaBRMrR+G4zAJYTYZllG7Cp/UQASaweggYH84IMAKMACPACDACjAAjwAgQAmvXrsX5556LH/+3gsIYGBSjEGACyyikxTgcgRUF3JIExaLBeeIRsAwfZMqKg4K8Cl2a5smA4iDtNzOSVz/jT6Rgjs2OiweOwEHZBVEYhk9JdgSYwEp2C/L8GQFGgBFgBBgBRoARYAQSgkB9fT2unDwF7737Lvx+f0LmkJaDMoFlqNmZwOo53FIgCOeh+8E2YRyCKtV1NVdrI6+CN238uAAAIABJREFUQShOJ4jA0skr8xcvIBKrf2Y2LhswApVOT4Il5s1l13SYDRNY6WBlvkZGgBFgBBgBRoARYAQYgZgj4PP5MOeBB/Dow4+gtbWFpGS4GYEAE1hGoNw2BhNYPYObMtvs48bAfuh+gN3Ws5ONOjpUdVC222HJCFccTGy1wZ5cuiwBB+YW48KBw5HHou49gS7pj2UCK+lNyBfACDACjAAjwAgwAowAI5AoBL7+6itMPHsidtXUsA6WUUZgAssopMU4TGBFBreoMg4JlvwsuCeeAXhcEJFOJtJqovlQC5A+l6bBmpkFSVFCmlfJQ2DRNVgVBWeUDcJZpf1gS4LIsci8iI/qDgEmsLpDiH/PCDACjAAjwAgwAowAI8AIdIIARWFddMGfsXDBAk4jNMpLmMAyCmkmsHqANBFYluICOE8+ClpRntCXMltQZli0XdI0aBleKBarCQXbIwc922bHOf0qcWhOESyy+dMfI78yPrIzBJjAYt9gBBgBRoARYAQYAUaAEWAEokSAFq3P/OMfmDl9BpqamqLshU/rEQJMYPUIrt4ezBFYXSNIzwCqMKi6XHD/5gS94iDMFXnVdgUUJSbJUDO8UEV6o7lF2yPx3QpXBq4ZOgb9He5IDudjkhwBJrCS3IA8fUaAEWAEGAFGgBFgBBiBxCKw/PvluOC8P2HdunUihYhbnBFgAivOAO/ePRNY3cMt261wHjkeltFDAZOKtgcEeSVBcXugOanioEy8myCxkrcFocoyJuT3wXkVlcixWJP3UnjmESHABFZEMPFBjAAjwAgwAowAI8AIMAKMQMcItLS04OqrrsIrL7+MoJ/UZbjFFQEmsOIK756dM4HVNdyyLMFx+IGwHbA3IMum0rzSZx4EAnpEGFUctLjDFQeTnbz62S4WRcY5FZX4v6JyWDmV0NDng9GDMYFlNOI8HiPACDACjAAjwAgwAoxAyiFA5NW0665DfW1dyl2b6S6ICSxDTcIEVudwk6aUbe/hcBw9HpLDbjrNK52/Cop5kd6V5vVCVpSUSB3c3SpBFDpcmDx4FMZkZCd1TJmhN3cSDsYEVhIajafMCDACjAAjwAgwAowAI2AuBLZu2YITjj8e27dVcTXCeJuGCax4I7xb/0xgdQw30UK2IQPgPPEISG6noTaJdLA20XaLBRZvFmSR3pj8ule/vP4gZEnCfoWluLj/UOQrlkgh4uOSDAEmsJLMYDxdRoARYAQYAUaAEWAEGAHzIRAIBPDk409g9j33oLm5mUmseJqICax4ovuLvpnA6gDuQEBUGnSddiyUQr3ioNmaIK8AEXFFou2KlUTbSW8+mTWvukI5CKui4IyKwTirqAI2mcg6bqmGABNYqWZRvh5GgBFgBBgBRiACBJoRxLtbNqDRT7oYZvz0juAiEnhI+PM/y2XOXfd4Q0MLIM1ihVtW4IIENyQ4qbKVLEOBBCpmLhZJIdHgeM/HDP1TJbJVP/2Es/94NjasW2eGKaXuHJjAMtS2TGDtDjfRQqrbDffpx0LrVwozqt4ReRWel4XIK4dDFJhIXfIqbKMgCp1uXD5kFPZxZ3EqoaFPCmMGYwLLGJx5FEaAEWAEGAFGwFQI+P7/ruwt33yKOV98jqBMdEyq7sjGCfZgEHlOBwbk58ZpgOToljgqJRCErKqwO53ItTlQrGjIUq3I0jR4bXb00WwodmfAKqV+fb76ujpMnjQJ8999jyOw4unCTGDFE91f9M0E1u6QUMVB1zEToI2sFKLtoVJ+htqkq8HCkVd0jOr2QHXRNkM6kFc6KvRJ86u8Ilw2YAQKNK5KaBrHjNFEmMCKEZDcDSPACDACjAAjkGwIbGlpxugX/obNdbUizYAqFHHrHgFaHBBSQ/LzkONyiFLk6d3Ie372HYpEUmQ9GkuTJGSoVpRmZWG0OwsjPVkotDvgkBWhV5KK7ZPFi3Hxny9ETU1NKl6eOa6JCSxD7cAElg43vSOlVh8ch+0P+4RxgKYaaodIBmsjr+g57HRC81DFQTkNIq92R8eiKPjDgGE4uaAUtrR/R0fiOclzDBNYyWMrnikjwAgwAowAIxBTBAL//wP31mVfYPp/F8FnSgWPmF5uzDqjBYJT0zCiuBCaoqTdwqAnQIYpKiKrqLS5Q7Mgx2LH6KxcjM7MQX+3Fx5FTan4v5aWFky5fBLefust+P3+nsDFx0aKABNYkSIVk+OYwNJhpPQ7+7jRsB+2PySrxXSbPvRuClcclG12aBkZkBWdZEv91MHdXZ3ePaUuDyYNHom93JkxuQ+4E3MgwASWOezAs2AEGAFGgBFgBAxHgOJmVtbV4pjXX8SKXdVMYUVggXBFp76ZmSjL1j+K021hEAFMHRzSXmdNp7UyVSuKPRk4orAPDsnKF+K7agrslFME2nvvvitIrPr6+ujg4rO6RoAJLEM9JK0JLCKFQnp+tn5lcJ5+DOBxG4p/pIO1VRxUVWhZ2VBULa3fUYoETCgsxYUVQ5GpcVXCSP3I7McxgWV2C/H8GAFGgBFgBBiBOCLQGgzgjuVf44ZFC8VuMsu5dwN2IACbqmJkSRGsqsrkVS99k9aFDlVDhdODSm82xheUYJCdJOGTu1VXV+PqK6diwcIF8Pv8SX89prMGE1iGmiStCSxCOhiApbgQzpOPglKYa7rIK7GRQkQb/UkbAR4vFBtpP6WP7lVnN4RT1XDx4FE4LKcAaoqmrRv6MDDBYExgmcAIPAVGgBFgBBgBRiCRCOzw+3D42y/jy/VrTPlhnkhs2o8d1r7qn5OFIm8GC9/HzDC6phgttoocLhycX4QTSvohT7UkLfETCATw0ryXcOMN16OhjqOwYuYq4Y6YwIo5pF11mK4EFj2XKKJSdjuQcdb/QS4vpX8xFPtIBmvTvZIkqJ4MaA4Hk1ftgBuYkYWpg0ehn8MVCZx8jMkRYALL5Abi6TECjAAjwAgwAkYg8Ny6n3DOu6+h0e83ZUlwIzDoaozw7jbpOA0vLoTDYuHoqzgZxSLJKPV4cXxRGcZl5iLHak9KIquxsRGXX3oZFsyfjwBrYcXWW5jAii2e3fSWrgQWwSJrKtzHHwpt5FAEVcVQ3CMeLKR9pbg90KjiYBqKtneFlUWWcXrfQfhNaX8WdI/Yqcx7IBNY5rUNz4wRYAQYAUaAETAMgVq/D6cveg9v/e87jsLqAPWwtkhJhgf9crN5dzuOnkkRD5TpYVNUDPZkYWLFYAxxe5NSH+vD99/HpMsu54qEsfYXJrBijWiX/aUjgSUir2QJ9vH7wjFhPwRVc1YcJMMFACgOJyweT1tVXNZmbO/SQeTZXJhaOQqjM7KTckPE0Bve5IMxgWVyA/H0GAFGgBFgBBgBIxCgpIhPq6tw3Bsvorq+XpBY9FHMLYRAIACrImNkn2KhgUU73NzijwChnGu144iiMpxQ3Bc5Gum6JE/btWsXrr/2Orz5xhtckTCWZmMCK5ZodttXOhJY8Pth32cv2I86CLLTYcqNnfDGimyzQcvwQlYoQox1rzpyaFL4PLy4HBf3q4Rb0cXtuSUnAkxgJafdeNaMACPACDACjEDMEfAhiPv/twxXkaB7wA9/zEdIzg7DpcnLsjJBP9R4d9s4W1IkhCbLGJadj4v6D0W5zQklicR4P//sM1xy8SWo2rpV6OlwiwECTGDFAMTIu0hHAss6uB9cJx4Oya3rJtGmjpkavZdok0lSVVi8mVA0ImWYvOrKRlk2Gy4ZMhoHe3M5CstMztzDuTCB1UPA+HBGgBFgBBgBRiCVEdjY1ICj3vgPvq3ahoC5vtcTAntY+8quyBhRUgyrqnD0VUIsQUszoMydgVOLKnBEQYkgtZKhtTQ34+GHHsJjj85FU1NTMkzZ/HNkAstQG6UVgRUIwlJSAOdJR0IpLkDQrKLtRIYrCjRvJlSrjTdWIrkjgkGMyc7HlMEjUWi1R3IGH2NCBJjAMqFReEqMACPACDACjECiEKD4kPe2bsJJb85DQ0tz2qcRhlM0yrwZKMvJov1tjr5KlHOGxnUpGs4cOBQn5pXAKZtUVLkdRhR1tWH9epz/p/Pww/LlCUYvRYZnAstQQ6YFgRWKjlScdnjOOhFyRYnOmpssVqctilOSYPFkQHE4xAw5rT2yW4KkAC4auBeOyi+BxlIAkYFmsqOYwDKZQXg6jAAjwAgwAoxAohHwBYO48etPcfeST9Dy//+erklP4egrt6ZhREkRFFlm8irRzhka36lpOL5PP5xS2Bc5FvPrYvn9fjz916cw+557UF9fbxIUk3gaTGAZary0ILBICN1qhfPYCbCMHoagbL4QZLGhEqLUFJcHqqg4yJsqPbsZghiYkYVrKsegr83Zs1P5aFMgwASWKczAk2AEGAFGgBFgBMyFwKaWJpz0+ov4rGqr+GBOSxIrEBA724Pz85Dn1hcK3MyDgKbIGJdTiEkDRsCrWcwzsU5m0tzcjCmXT8I7b7/Ngu69tRYTWL1FsEfnpzSBRZFXRAL5fHAecRCsB+8LaOasOCjew1Qd0eGAxeOFxJsqPfJj/eAgXJoF5w4YhuPzS5EciehRXGYKn8IEVgobly+NEWAEGAFGgBGIFgESh313ywac/sZL2OVrSTsCK5w6mOOwY3BBPkdfRetIcTyPqkopkoyxWfm4ZPBeyLPoOjBmbl9+8QWmXnklVv+0igXde2MoJrB6g16Pz01pAisU0WTfZwTsRxyoVxw04aZNWLSdosQ0TwZkrobbYz8On0BbUQO82bhi0F4Y4HBH3Q+fmBgEmMBKDO48KiPACDACjAAjkBQIzP5hGaYtXogmny9tqhKGUwcRCGBEnyJ4bUSMcJqGWR02GAxgQl4fXDJgKLJMLsxLqYRzH52LOQ88gOamJiaxonUqJrCiRS6q81KWwAql5NkqyuA8/WhIGZ6o8DHiJNK+kmQFlqwsKKGIU44Kjh55IrEm9h+K04orYE2SgiDRX21qnckEVmrZM+qribSsMz8oo4aYT0xhBPj+SWHj8qVha3MTLvz0fbz4/XeALJuyIlOszUQEFn3c9vF6UJbNwu2xxjce/VkUBUcU9cWf+g6CR6Vy8uZt27Ztw60334y33ngLfr/PvBM188yYwDLUOilLYEmApSgfzhOPgFyUp8dimS1VnFIcQxUHLV4vFKstlM7OKe29uQkIvQpPJqYOHomBTvMSl725xlQ9lwmsVLVshNdFO4Hr1q5DdU11t9oebrcbZWVlUFXz5YVHeLl8mAkRENWZNmzA/5b/gECgE5UdessEg/B4PNhr5F6wWK3d+qsRl0pzJzHexoaGbuejqCq8Xm+3xxkxbx6DEegpAisaanHiay/iu5odOokVqtbU036S4fhw6qBDVYVwu1WkafBCIRlsp8oSJo4ah9M9OVBMVjlsT/y+/fZbXH7xJVi1alUyQGu+OTKBZahNUo7A0mWvIDvscP/6BKj9ykz6XgsC9G0sydA8HqhOEh3naODYOH8QFlnBb8oH46w+/aHxez42sBrQCxNYBoBs5iEaGhpw79334P33F4rS4B3L9EpQVAVjxozBpClTkJWVZeZL4rklGQK+1la8+uqrmHP/A2hsbBSbTB01+udhw4di+owZyMnNhWyCcF8ir154/nm8/sqr0OM1Om6SFMSQykpMvfpq2O32JLMQT5cRoO/nIN7bsgG/m/8GtjXUg/SxUrWF0wcH5+ciz8WLhWSws0itkSQUO92YNuJXGGRzmZy+Anw+H/793L9wxx13oG7XLpMunk1sfSawDDVO6hFYQchWC9zHHQJ15FBIioKgCfcpKD2amup0Q6OKg7LCGyox9Hwy+dCsXFw+cAT62V0x7Jm7iicCTGDFE90k6Luurg7TrrkGr736aqfEAX0UUtTVwePHY/qsmcjJyUmCK+MpJgsCra2teOH5F3DHrFmorasVC+WOGhFWe48Zg3vvvx95eXkJJ7BowVRbW4uHH3wQT8x9vFO5z/DVjB03Do88/hgcDgd/fCSLc/I8d0OgNRjAPf9bhhs/eBctEqUSpl4LlygvcDgwqDCP0zSSxMS0CHFZrZg0ZDQO9uZCTpKd9KamJtxy8834zwsvgjZzUjmyMeauxARWzCHtqsNUIrAETxUE7OPHwn7YfoCiGIplpIOFN1MkuwOWjIy29xFHBEeKYGTHycEgziYtrJJ+rIUVGWQJP4oJrISbILETIALruquvxhuvv0ZatZ02TdOYwEqsqVJ29N0IrNraTj/gqVTwmL33xuz77zMXgTVnDp547DFBAHe2+CDybey4sXh47lwmsFLWk9Pjwur9Plz9xcd49Jsv4QsEEEwSoiAS64QXC3ZVwdCiAjg0C5PNkQCX4GP0oIkg/lAxDKf2KYdTNuditDOY1qxeI6oSfvH550xg9cSXmMDqCVq9PjaVCKygrxXOX42E7ejxkJyOXmMTlw5Cm7myxaqTVyFdPyavYo82vUOGeLNxfeUYFJi8CEjsrz45e2QCKzntFrNZM4EVMyi5oygRSBcCa99xY/EIE1hRegmfZiYENjc14Jz338Yba1cJEZFUiMQK617JAAbl5iAvg8pqs86Imfyuo7nQwoM41MOLK3Bxv0q4koy8omsKBAL46suvMOnSy7Bx4wYmsSJ1OiawIkUqJselDoElwTawLxwnHWHaioNyIAC/JEFSFVi9WZA1KkrB76OYOHInnTg0DecPHIHj80pMn34eTxySpW8msJLFUnGaJxNYcQKWu40YASawIoaKD2QETIEAEVbf7arBeYvewScbN4g5Jb0mViAgPlqLMtzol5MNSZI5+soU3tb1JEgfZmxeMS7qPwwlNkfSLjyooM68F/+D22fNQvWOagS6VFVMAsMYMUUmsIxAuW2MlCCwAkFYCvPgPOUoyMX5uvKv2aKIg0GxKURp0Jo3E4rNxuSVIZ4exN65hbhi0Ejka1ZDRuRBokeACazosUuJM5nASgkzJvVFMIGV1ObjyacxAp/u2IZfv/MK1tTuhB/JG4kVTh2kqoPDiwtCVQcpFoub2REodbpx07Bfoa/D/KLt3WFJelj3z56Nvz75FzS3tkCmeyqFq312h0e3v2cCq1uIYnlAKhBYQrT9zBOgDiwThavMRl6FNRgp2krJ8EBzOMU8OW0wlp7ceV9ORcHVQ/fG/tkFSbsZYgxSiR+FCazE2yChM2ACK6Hw8+AAmMBiN2AEkhMBXzCABds24dyFb2HDzp0iCstsC4JIkKVFA+3EDyvMQ6aD9FB4wRAJbok7RrdXH6cHk4eMxnBXRtKItneHWfWOHbjzjjvx8rx5aG5uZgKrK8CYwOrOnWL6+2QnsBSrFa7jDoE2qlJPfTdZ5JXYSKHoK0mC4nRBc7s5EjimHtx9Z7QNN66gDyb3H45szdL9CXxEwhBgAith0JtjYCawzGGHdJ4FE1jpbH2+9mRHgFIdXti4Bn9e8BaqGxvgT7ILCpNX/XKyUJThYfIqSeyXabXh2soxGOXNhpJie+WbNm3CFZOn4LP//hdBKpSQJDYxfJpMYBkKeVISWEQKyRIkfwDuww+E5cB9ELSQnpS5WjgKmPTwFKo46PVCkhWOvEqAmTItVlw7bB/snZGdgNF5yEgRYAIrUqRS9DgmsFLUsEl0WUxgJZGxeKqMQAcINAb8eH7dKlz04buoa2wUH93JoIkV3vHOcjgwOD8XqsILhmRw8GzVgosGDscBuUXQ5NRL9aRF7Pfff49bb7oZXyxZgkCAaGG91iK3dggwgWWoOyQlgUV3js8P+6ihsJ94OGAnbSPz3Uv6uwiA1QotIwOKqoniFGacq6FOl4DBLLKMM8sG4nelA6Cm4PslAZDGZUgmsOICa/J0ygRW8tgqVWfKBFaqWpavK90QeOin5bh+0XxUU+qTydIz9rRFuOqgU1MxoqQIFkUVh7DWiDm9VogtIwiPZsH5FZU4vLAUmpR65FV79L/+8itce+21+PGHH0SlQm57IMAElqEukZQElt8PW0UpnKcfB2R6IJ77Zns3hUXbZQVaZiYUi5XfQ4Z69u6Dke5geWY2rhk0EgMdVI2YmxkRYALLjFYxcE5MYBkINg/VIQKpQWA9LjbPukr12G/sWDz82Fw4HA7+OOF7ISURaPD7MXfl97jpvx+itrnZtFFY4XQNqyxjUH4uvEL3iskrcztlENkWK/7cf5iIvLLKirmnG4PZ+Xw+LPrgQ9w2axZ+WrmSSaw9MWUCKwZeFnkXSUVgUUSTJMGSnwPXyUdBLikwH3FF7xzyYfpTlqF5vFBtNkgy0fXmixKL3FOS/0iKvDqv/zCcWFiWklG+yW8hce9wiZNUMGS018AEVrTI8XmxQiCZCSy6fx575BE8/dTTXRJYFCew9z774L4H7ofD6WQCK1bOw/2YDoGWYADPr/sJF3/wLmoaG3WxXBPNMhx5RffkwJxs5Hk9XOXJRPbpbCpuTcOlA0bgoNwiUIpHujT6RF84fwFuvvEmbNiwXlw2f7aHrM8ElqG3QbIQWOL+ICF0mwbPGSdAGVRhysirtoqDkgTN44HqcLIGo6Ee3flg5ENji0txdb/h8Krm00wzCUwJnQYTWAmFP/GDM4GVeBuk+wySlcAiu/n9fqxbuxabN2/ulpRyuVwYPGQIFCX1IwfS3afT/fpJE+vptStx40cLUNXQAL9JtDx08kpo+qI0MwOlmV6u8mRyZyX6M9Niw4Ui8qowLSKv9jRJS0sL5r/3HmZOn45NGzcxgRUGiAksQ+/eZCGwCBRZU+E6ZgIso4cBqmLK6CtRcRCAShUHXW4ReaWnsHP0laGO3clgWTYbJg0ehf0z89giZjDIHnNgAsuERjFySkxgGYk2j9URAslMYLXfDe9OO4d2dLo7hj2EEUgVBALBIP61YTWmLlqATXW7RHXChEdiBQLiHsxzOjAgLxeKLPM9aVKHE5pXwSAKXG5c3HcIfpVTkNapHLRZsmD+fMyaMRNrVq82qdUMnhYTWIYCngwElvjOsmhwjx8HK1UcVM25YRhOHZStNlhDFQfJmPyNaKhLdzFYEIok4/g+FTiv7xDYeePZLIZpmwcTWKYzibETYgLLWLx5tF8ikOwEFtuUEWAEOkagORDAm5vWYdqni/Bd1VYEEiieG9a9ol3Vgfm5sKgqLxZM7LjBYACDvDk4b+Bw7OXMgJpA3zELTBSJ9f7Chbj7jruwcuUKjsRiAstQ1zQ7gSVIb38A9jHD4Dh6PGS303Q6jOHKt6R7pYiKg17IoRQ1Jq8MdeduByN/GpyRhalDRqGv3dXt8XyAsQgwgWUs3qYbjQks05kk7SbEBFbamZwvOI0QoB3xj6q24NLFC/D1ls3iyo0mssLklUNVMbSoAHaNyKv00VFKJncjf1EkCZUeLy4cPAqDnB6wpX62IOHzyeLFmHHrdPywfHl6k1hMYBl6a5udwKKUPGs5VRw8BnKG25Rpg2ENRigKLN5MKFabsCGTV4a6csSDWVQFl/YfjiML+kDlb4aIcTPiQCawjEDZxGMwgWVi46TJ1JjAShND82WmLQK+YBDL63biyo/mY/76dWgNBoxbXFBKCQCnomBQQR5cNl4wmNURiZxRFRkH5Bfj9yUD0NflhszqI78wF1Un/PKLL3DnHXfg6y+/ElqMadmYwDLU7KYmsIJBaHnZ8Jx6DCSqOKizQobi091gYdF2IqtUL1Uc5IrU3WGW6N+TCx2a3weXDBgOD4u5J9ocu43PBJapzGH8ZJjAMh5zHnF3BJjAYo9gBNIDgbWN9bj080V4+4fv0STU1OW4RZCEo64IWZssY3BBPjx2G+90m9jVLIqM0/sOxsnFZchULCaeaeKnRmTfjz/+iOm33IpPP/lEkFhpV52QCSxDHdHMBJaqqnCdeTzUwf2EBnrQZORVWLCdKDXVkwGNKg5KYdF2Q83Ig/UAAbJXqScDN1bug3I7VYnkZhYEmMCKkSXafzjsGQra2e/MIOqcDgTWnh91YfuYAf/eul9n1xbut6sP2o5Clrvy497OtbPzmcCKF7I967c723f3+56NxkenIwK0K76tpRlPr/we93z1OTbX1emLjRiD0Z680mQJg/JykeXUPz45VSPGYPeyO3quUFXIfJcHZ5YPwoTMfHgUtZe9psfpgUAAa9eswd+f/hv+9dxzaGhoEEEnxA2nRWMCy1Azm47AIkeXJMiaAvfxh0EbORRQZFOTVwpVHHS7ufqtoZ7bu8EcmobzB47ACXklveuIz44pAkxgRQkn7XbRwptENWtra1G1bRu2V23HrtpdaG5qgs+nh3QrigKb3Qa3242srCzk5uXB4/FA0zTxQ7sGiSRSjCSw6uvrsejDRdi2datBkb0SVE2FzWqDJ8ODnOwcZOfmwO1yQbNYBP5kn0Ti3xP3CxMI5HPke02NTdixYzuqqqpQvaMajY0NaGluEYtB+oi1WKzQLBrsNhscDifsDjucTvrTAZvNBqvFAiUkZCxLMmRaRdDHgEx///mn/RyjITG62xWma/nPCy/i9lmzxL3U2fE0pzFjxuCe++9DXl6emGMsW7QL2+6ur/0cox0jltcZ9nd6hpEvUTpKY2MjqnfswPbt27Fz5040NjSgubkZAX9AEAxW8iG7HRkZGfBmZiIzM1P4khq6h+g+oh+ySRgPM1xrLHHjvmKHQEsggFe3bMDVH7yDlbW7xIKjJ/dRdzMJE1iaJGFgfg6ynboAK/tkd8gZ/3sJQfTLyMS5/YZhH08WZLNFThgPSY9HrN21C489+ij+/vd/gP5OLZb3U48nZNQJTGAZhbQYx1QEVujKScvQOWEsbAfvC2iq+cgr/WYUP6R3pWVmQhLVb2P7/WqoI6ThYAeX9MWk/sORwXYzjfWZwIrQFOGPgW3btuHzzz7D/5b/gNWr12Djxg0gYoYWey3009IKf8CHYIBqTOjhoYqiwkKElc0iyBS73Y68vHz0rSjHgP79MHyvvVBeXi4WgEY3IwmsjRs2YNq112HpyXAeAAAgAElEQVTpN9+AKgzFv0mQFBmKrAiyirC32qxwOhwoKi5GRUUFBg0ehDH77IPs7Oz4T6cXI+zatQtffvmlEG1ds2o11q1dK4gG8jvhey3NaG31IxjwI4igILAkSYUiS4KkIqJUVRWoqtZGWqlEUmma8E3CxOFywul0weV0wuZwwGm3w2KzCuyIgKUfIl/pz5ycHOTk5na7IKR5E2HZ1ce0PxDAgvfm45GHHhL3UlcE1rDhwzHthuvFHGK5GCVCs6CgAFartUdWoh1wIhBrqmt0ArCTRqQiEYZ9SktjOu8eTRYQxOfaNWvx9ddfY83qVVi7di02b9qMuvp6QWa1NDWhuaUFfp8PAfKlgL7Dqciy8B3NqsEiyF+L+NPpciEnRMxnZWfBm5mFwsIClJSUoLCoSJBc4cVULO3V0+vm482HQEswgKU7qnD7si/x0sof0Or3i3uj12+GQED0Y5FlVORkIdflCj0PecFgLi8IQpMVTMgvwSllA1Bhc3KlwSgNRO9Mir565+238ejDj2DFjz8ygdULLIlsoOpwmtPJREM7HM1EYIkNzGAQjtHDYDvqYEhOu6nJK9lqFamDiqaFvgHNpc8V5e2SNqcV2J24pnI0hnuyWJXRJFZnAqsbQ9AClUieFT+uwCvz5uHjTxZj6+YtaGpsRCBAVIHOrIuol5BbB6Qg9B1gCUEJkOl/qPKSCJUP/Vso95kiZHJz8zBs+DCceuppGDK0El6vV5AGRjQjCawN69djyqTJ+HLJEgTiTmD98uUgSuySoK/Y/dDJRVpgl/Tpg0MPOxTHHHusIBhoYZ7oxTb5XVNTE1avWoX33n0XC957DxvWb8DOXaEIJRJBbttl1T1P90JBF+i/Ex5IP7JYFIoAK+GXQVEFTA6HatG/h8hWQXyR35JPhzsARMSaxaLBSlFdVgsOO+wwXD55Mlxicdj5i/itN9/E/ffeh4bGhtCM9vRqfe4NDfUiiozukc4ILBqGxs/Jy4thBB/t/wMVFf1w5VVXYvDgwRHbnuZJhNtfn/wLnn/++dDd33nuxl577YXps2YJnzPKv2iOrS0t2L5jB5Z9sxSvvvwKln27TJCKRLiTtQVR1e75FXpy7ZbWRTbSK8fp1yfRHzJ5VkjDgZ5rgYAgSu1Op4hypB+KOu1TVop+Ff0wdPhwDB8xXET/cWMEwghUtTTj9h++wZNff4Gapsa2Z1c0CIUjr1RZwsC8HOSECNTwZlI0ffI5sUUgHAHqtVjxf2X9cXJhGTyKMd87sb0S8/VG3w3txd0pulZ8EaRqTiFHYBnqhGYisOgbxFrRB67TjwW8HkNxiHQweh+Jb29ZhpaZBcVCun6sexUpfmY6jr4pLh88CkfmlfBGi0kMwwRWJ4agF37Vtip8+ul/8c7b7wjShSItKDohvFzXyasoLBnqQP9D/19a+FF0y5AhQzD+kENw0MEHoaxv37hHZRlPYE3CF58TgRUNcFFg3ckpAnUisYisQVBExZWWleLg8RNwzLHHYOCgQYaRiO2nSH63Y8cO4W8L5s/Hp//9FJu2bEZLU7PwtTBJFc8P0vZ+Gdan0Ykw/cVLP8ccfyxuuuWWbiOhXpo3D7fceFOXqYH69f9MjnSp29V2y8Rw90qSMHToUEyfORNDhw2NmFyieVLK48Nz5uCJxx7vcpFAmI0dOxYPPzYXDocxlWcoMo8i9t5fuBCLFn2ElT/+KAg3iq5qu/va+VS0d9eemnL6f+vPRiKLVUURKYj77b8/rr72WpT0YR2BaLFO1fN2+lrx1oY1mL38GyxZvw4t0bwfQtUGLYqCimyKvNKJYqPI4lS1TayvS5GAEdn5OLO0P4a5M+GQjY88j/U1mak/Sg2nCO1//O1vePGFF7GTUgqjuZ/MdFGdzYUJLEOtZCYCy5qfA8cpR0OlioMmTDsWFQdDG32axwvVbmfRdkO9NbaD0Upx/4I+mDJgBLxcjTC24EbZGxNYHQBHC78vlnyBZ/75Tyz++CPs2rkrFJGiL/tiTR7oyz360NajGlwOB4ZUDsVpZ5yOo44+WmgYxTDkZLcrTlcCKwxCmDYJL3IsVquIwvn9H/+Aw484QhBbRi2AKIXr66++En7338WLUVW1XUS1tMVVmeQjlFIyjzv+ONx4a+QEFqUSxvq+ifKZ94vTKCqycvgwzJg5E5VDoyWwHgvJHPySmA0vovcdNxaPzI0/gUW78Nu2bsMLzz+P119/DatXrUZTc3Mo+i50+TEgrrrDv/19QxGlhx56KK678QaRqsmNEegIgdUN9bjr+y/xl6++QHPAL957uppk501EA+pvZthIsL0gHxn2cJQfE1jm8DTxhQOrquC0PgNwbFFf5Fqs4KTO+FmHNis+/ugj3DZzliC0SLbBJJ8QsbtoJrBih2UEPZmFwFr0yWK4zzwB2sByE5NXuvyCqDgoIoH5XRSBi5n4kCDyHS7cMHg0hmRwGqEZDMUE1h5WIAHMZ555Bi/8699Yt26d0IwJfRu3S9GKn+nEoo/SDmUFuTk5OOTQQ3D2Oeegb3l5XIiUdCew2oisdjs4pEWWX1iAM886C+ece66IxIo3ibVl8xY8+89/4pVXXsamjZuEHlHbssxkX52KpOC4E1KHwCLbUnrbjJkz4kJgkR0phNwIAoueV5/+97/46xNPCs202tpdItU5vHJJVNwjpeUefeyxuHbadabXm4vf0517jgSBal8L3qBorG+/whcb1osUjM522NuqDQYBt0VDeW42vHYb69ZEArQhx4RTjiXsnVeIowv64FeZuXBylUFD0Pe1tgq9w+eeeRavvvqqSCc360ZSVIAwgRUVbNGelHACa/t2XDl5Cr50KdD2HSk0bs0WfSUir8R+ShB6xUFPSLaE/jGGmQPRGpHPixoB8v+LBwzHEYWlbMmoUYzdiUxghbDUoxa24vHHH8e/nn0G9Q2NQt9F1wIydtkXJkvoUWexWfCrfcfiqquvxoCBA2NeeY0JrF/eTGH8SavovD9fIEiseOlikd+tXr0acx54EG+/+aYQZBcFAGJclSt2jwyACawQp71bCmHnEVhGEVikabVw4fu49+678dNPKwVxRWHPgsBKcCNx/BNPPkmkEJIAPzdGoCsEyGP/V7cLj/+wDE999w22tzTr7+I9TxLFUgCnxYLK/Fw4bVbB1cZ7w4GtFwkC9PwBPFY7jissw/ElFcjTLPzhHwl0MT6mproaL817CU/95S9Yv359Qr5rY3xJ4ZcwAi2tsE8YC9dRB5MWR6+HEd/7LOLeIY6JJrCqd+3EtH//A5/JLZCspCdlwkZZE6Qxa7XC6tUrDnL0lQntFMWULLKCM8oG4A99B4ET36MAMManMIFF4sSBAFasWCGqoL311ltC3JjSEn4Wye4cdfGh3EZw6QLt1NpS09qfGupzd8HtrvrWpWSoVP2oMaMx+YorsPfee8fUBYwnsCbjiyVLjCMFQ7bpyRK+PYFYUFSEKVdMwTHHHRdzTSz6UPr+22/x4AMPYNGHHwrRdv3bqSezjak7RNQZE1jhb+f2GliJJbAaGxuFQPvjc+cKQpQqO4aLFkRk1DgfZLXacMZZZ2Dq1VeziHucsU6V7ukpWOtrxftVW/DUt1/hzbWr0BAWpQ4XqAgGkeVwiMgrh0aLV07TSLT9w98+DrsN4zJycVRRGSpdXtgVhcmrBBqHNsd+/N//8M+//wNvvvkGasMFYdrKvSRwctEOzRFY0SIX1XkJJ7Cam3DzR+9g8aa1cZNViQqY0Enh6CuJqntneEWVb34n9QZRs50bxOj8Elw5aC8UcOGRhBsn7QksinahHamHHpyDV195Bc3NOolArTsioY3oCKWfhSNnKAWNUoao0h51FfCT9kBARHSFQ0gjFeMOi40rqopRI0fi2uunYdjw4THbYU4EgfXVl18gaGRUSIhj/DkSpXuCSOgWhVK/ho8ciRtuvCGmuJNvbd60CXfcfjvefvMtkTKo+133cws/NdqiDEJz7fxp0q6cYNi52yK8wuPp0YaRNCawzEVgEQH/7jvvYOat07Fh/cZQicDun1972npPMXZRQVUctGfYOz299OqN5DO0E9Xec/b0I+rXarHgN7//Pa68aqooWMGNEegJAtuam/DcmhWY8+N3WLl5E3whgjbb5cSAnCxoCnkhk1c9wTTWx9J9T3qCiiyh2OHGaeUDcZA3Dy5VY+Iq1mD3oj8qPLJw/gI8/PBDospxa0trW8pTL7pNzKlMYBmKuykIrI/fxScb15gzdZCegYoC1ZsFxWrVv55MKDBvqNOk2GD0LXtN5RgclJnH77UE2zbtCaydO3finjvvwn/mzUNjfb1YinW5jg89jPSKbKS5LiG/sBBDhgxGWVlfuFwu2B12aJpFrPtIk6apsRF1tXVCU+uH75dj/fp1IuqLOqBqfG1VDTsbWFRSAqyaFQcdMh7XXHMN+pSWxsR1jCSwtm3bhjn3P4BVP/1kSBVCwszv86Nq+3Zs2rgRDY2NAjOyWXiR3WXFuxAxZLPb8evf/haXXHYpKK0wFo0EVmffcw+efeZZ4R/dEqZtfhd6IQpf0WlQ+lEVDS6XU8yPIvZEfwgKzYvm5hY0NzYJkqzVF9J0oxerrFdhBIhgpejBcDSh7pP67/RqjaEJhqqoyDj2+ONw0y03d1uF8OWXXsLNN9yEurrargkykR7Uzb0X+hiI9QcBXV3lsGGYnoQaWPQc+ebrrzFzxgx889VXCPjDOHZPRuoVOMkPdCIqbO8wkWrRNLjcbjgcTiiqHjAdCPjR1NiExqYmUNQXlWkXvhK6V4j0auNIieYSnQMWqwV/nDgRU664QvgdN0agpwg0BfxY2VCPf65Yjv+sWI6ADOR6XFBkOfSIYr/qKaaxPJ7QL/Zk4MiCPjgwqwCFNjssdP9zMx0CRFpt2LBebNr+5z/zsG7NGrHhKirHtk8qMN3M95gQE1iGWogJrE7gDqW303eQmpEB1e5oq9ptqIF4sLgjQN/Kv+1fid+W9IdNpIdySxQCaU1gEbn0/L+fx22zZobIK0knljpoeqqgvujXLBoK8gswavRoHHHUkejfvz+ysrPhcbsF+95eNytcgYz6JbJox/btWLlyJd55620s+fxzbNy4ES2tLbuFMHREqlA/tDB0u1340wXnC10m0pXpbTOSwKLyzrT7R8Ki3S+ve3tletwIEYSUmrezpgZLv1mKd99+C9999z2qq6vbbB0JiTVw8CDcfuedPRL57uwKyBcWLliAaddci6qqqm71KHRhfyIbgtAUVfhAXmEhKvpWYPSY0ejXvz8yM72wWKzQNLVNJy0c/Ue4h398fh9amltQV1uLXbW7ULtzF2p21qCmZidqqnegproGRK7RvUFRDkRQ+H0+QX6R3ei/W1pbccghh+C6G67vlsB6/bXXcM+dd6KuoaFjOEKO0NLcJEhekULZiXcQDnR9Hk+G/pEdq52tANB/4ABcN+06DB4yJOIdM/Ib8ueH58zBE48lJoWwalsVZt97ryg6Qbal1l0kndxGIEmgaFGbzYbs3FwUFuRj0JAhqKysRGmfPnA4nYKIJ8zF80fvHD6fX/cL8qWWFlCFSXqukS9v2rwZmzduxI4d1WhqbkJLU7Mgjumcs359Fi665OLe39jcQ9oiQD7YEghg+a5qzK/ZindW/YgmnfpmgVyDvSIshaBIEpyaFceWVGB8XhH62pywxOrZbPA1pdtwIq3wxx/Fd/DL8+aJ7wL9/dH9ZpIpsGICy1AzMIHVyWdsKBBBdbuhOV1tG72GGocHMwQBej4eVFyGK/oPg4fTCA3BvLNB0pbACvj9+PTTT3HDtOtFRFD487dT8ghBqIqKiooKHH7UkRg/fjz69esPh9MRcUpMuG8iMIgkWPXTKiyYP1+IdxOpJcizcPpiB4t4nQwDyvqW46abb8a4/ffrtai7kQRWJIvreN4NRMrs2rlTaHC9NG8ePvpwEeoaKOqu6y1Hwt3hcOCSyy7Duef9qddT3LplK+684w689sorgijqkkCj0UgQUpZFJcpx++2HcfuNw5AhQ5CZmSUiW6hKIv0+0kbjka+1/2n/b5QKSxpKtEvb3NIsCK/GxgY0NTWLFNvGhgZkZedgxF4jutUF27Jli9DdILKjwxaEGOu/iz/Bs888g4b6hi4JrEGDBuH8C/8sSLyYRGKFdOmcDqcgr9yeyAXGE01gEYn05htv4I5Zt2HTpk0RkVfkS7TwVBQZFeUVGLP33hg1ZgwGDR6MoqIiWG1WaKoqovgiwTdM1ocJUvKp8N/Jb4jg21lTLf4sKinGgAEDI3VTPo4R6BQBek02BPxC6H1x1Sa8tXE1drW2iF1vJrPi6zgiWjMUppNttePQolKMyy3AQIcHdpl1ruKLfux7J3vSJsSXS77Ae++9h9dffQW72vSxYj9eTHtkAiumcHbXGRNYnSBEUgoOJzS3GxI9A3Xtl+7g5N8nKQJ93RmYMWIsiiy2JL2C1Jh22hJYpD80a8ZMvPHa6+KDl9SqSLj9F43SE4JBWO02HHLoofjDH/8oyAO73R7RAq8rN6EPB0rDWfrNN3hs7lx89MGHYvEXnsYvtWT0fDFZUXHkkUfg1pkz4MmgaJToH5RGE1hmuG0I4/Xr1uHvTz+N5559Fg0NTaGw+c7jwqiSyNhxY/HI3Lm9SiMk0uH9hQtx8403YtPGrkmHsF3J1w497DD89ve/E0QDpQn2xuZmsEH7OVAUz7wXX8RtM2cJoqMzQo9IOipicM/99yEvL69HpF08rjmRBBaNvXXLFtx6yy0imlPo7HUR19hery87O1sUJTj+hONF9B75U08I0HhgyX0yAtEiQPG839Zsx9tbN+DzHVuxvakBJLGoEy28kIgW11+ep2/z0VZJjt2B/XIKcEheMQa5vZwqGDuQE9pTQ0MDFn3wIV56aR4++Xhx2/u4u6jehE2aCSxDoWcCa3e4aW1IX16KxQpLJlUc1KPVuaUuAmRdh2bBxYP2wlG5Ral7oUlwZWlJYFHUy+uvvopZM2Zg+/YdnYpnhx9EpIF0+hln4OxzJqKwsFCk3cSyEalBYpoP3Hc/KOWKWndROVnZWZh5++2C2OhNS0cCi/CiSBHS5HpkzkN47pln27ShOsZdj3zLzcvF9JkzMeGQQ6J+SRHejzz0MB5/9FERedSZncO+5/F4cOrpp+MPZ/9RkDapKIBN9+MLz7+AO2Z1TWARiUgRQ7OZwBJE94L33sPUK65EbV0tyZh1GbkmdKpkGZVDK3HBny/EvuPGivTPWD/LevMs4nMZgWgRoEUEVShc31SP+VWbsHRHFX6srYbfHxDPaqE1yQuLHsPbps9JG3z0/PDmYIQ3G4fkFqHQaodDRBvwgq3HwJr4BPoepUj1r778Em+9/TY+fP8DbN28RQ8oaa+HaYZrYALLUCswgdUO7pDYp6RqsHi54qChjpjgwUiF48SSfji/XyVv3iTQFmlHYBFhQGlNN99wI+a/9x4oXYo+bvdsYVFim9OOk08+FZdefhmysrLiZiqa1+pVqzFr+nS8//5C8eHdWRNCgaqKgyeMx+z77+9VWfp0JbDCJOGa1asx6dLLsGzZ0p8rRHbkD7TzrEhi8X/Z5ElRRayQjani5bRrr8XiRR/r2lddRM1YLBYcceQRuOraa1FQUJCyCwUmsHr+WKmprsb1100TKYS6Ph5plnQSQSgDiiRj8OAhuOKqqSINNRWJ0J6jyGekEgJhGYDWYBBVLU1YvHM75q3+H6qaGtAc8IuoLD1HnwmXyOweFM8Nqywjx+HAaSUDMCYrF7kWK1TGMDIIk/wokrqgzdWnn34ai97/ENU1O4QGpqgiTdKcRoiZdoUhE1iGehgTWDrcFHklXF+WYfFmhioOchVcQ50xQYOFI7sPzCvGpAEjkGnpvRZ1gi4l6YdNOwKLFsvvvP02brhuGqgCYZjI+AWBBV3gePwh43Ht9dejT58+cScQKKri448+wi033yz0sTorhyiqH8oyCouLMX36DOx/4AFRzy2dCSyyOQm8P/OPf+Luu+5Cc1NTF5FvkqjWdtTRx4hqdRQZFc3OM6WLXn7JpVi3dl2o6l4H5GmoHHxpWSluu/NOIdSeyileTGD1/D2y5LPPMemyy7Fp08ZOn2HiQ4uW7LKEAf3746prrsH+BxzQrW5Zz2fDZzAC5kOgJURkrWioxVfbt2BJdRU2N9ShJeAPTZaJrI6sRh/oVkVFicuNEZk52CczF30dLuRabNC4qqD5HN2AGdG38to1a/DZp5/h/fffx7fLlonvZ4pkT+hdxASWAdb/eQgmsELkFW0WyjI0j0dUHKTFQTTrAUONx4PFEIEgBrozcXXlGJQ7XDHsl7vqCQJpR2DRS5eir15+5WVIFOQk9Lt3JxGouhnpPJSV9cU9992L4SNGGPZwIjHNOQ8+iKf/+pSo+tYRwSZkmCXA5rDjnHPOwQUXXhh1FFa6E1j0Afbdd9+JioDLli5ti2bp8CaSZQwbOhQPPfIwioqLe3KfiWOJoHx/wQJcc9U1qK7e0WXFS4q+OumUk3HTLbekfLQME1g9cyXyo6f+8lfMvvtuNHZBuoY/qFxuFy6+9FL87ve/B/kVN0Yg3RBoCvixsakBRGbNr92OZevXocnfCr949yd0CZ5AU4TF2HUIZEiwaxaMyi/Cwd4c9HNloMBqh41JqwTayFxD07tn69at+GnFCixYuFAUotlZsxMtPp/YcBUbJp1FAsfjUpjAigeqnfaZ7gSWiLwi/6YsGKo46CLygiKvIi+iZKjBeLC4IZBhteGaytH4lTc3bb8g4gZuhB2nFYFFD56lS5fi8osvwbr160Q2QYcvWwlw2B24+NJLcM6f/mSoTgwRKqQ9cMWUK7Bu7Ro9VLuDFta0OeDgAzHrttuRn58focl3PyzdCSxCY/v27bhtxky88vLLIP2HzhoRAiUlJZj75BMYMGBAj/Gmj79/P/cv3DZjBhoaGzslsOjl6M3IwH0PPiAiZlK9MYHVMwtv3rwZ02+5Fe++8zZ8rV35q17wYf8D9sfNt9yCEgOiSHt2JXw0I2AcAvQmJcKKqheuamrA0h1bsaJ2J76trcb25kYE/f7QBoZxczJ+JP17QpZkPXpGlpFlt2OvjBwM9HgxJDMPZRYrnLICJVSx1Pg58ohmR4B8h6oRr1+/AZ9/9imWLl0mqjuTJAN951DEuKiqHe/GBFa8Ed6t/3QmsNrIK6riTBUHKQuDinwxeWWoD5plMFmS8IeS/jijfKCIWOZmPAJpRWDRi/VvTz0lqp0F/KSJ0Qk5JEkYMWIv3H7XHaJKl9GhoRSFde9dd+HZZ54VUVhdyQyU9+uH6TOm41f77hvVPJnAAqjyDkW8PTxnDkjzoSsCi7So7rlvNvbeZ58e403+9/ijc3Hvvfei1ecTefQdNllCRd9yPPbkkyjrW2b8U8HgEZnAihxwIty//uorXDnlCqFNQq2rHe+MjAxMmjIFZ/76rJSP5IscRT6SEYB4/zcEAkL4fWltNb7ZthXrGutQ1dKIel+reD4LqZ+QxpzR3wGxsJGu1yHiYnS9IlmCQ1GR43SLtMCh3iwMc2eh1O6EXVZE5Dk3RqAnCISraW9Ytx5LlizB5599huXLv8eG9RtQR99ToaiVYDw0s5jA6ompen1sOhNYoKJLkqRXHPR6IYliXqx71WunStIOgsEADijqi6n9h8Gjakl6Fck97bQisKqqqnD1lVPxwcKFIQHtXxqPPvZsNht++/vf4ZJLL4PD6TDcwrRz9dYbb2DatdeByKxOK9XJEjxuN66YehXOOOvMqHSSmMDSU/tef/U13HzjDSIcvjPCkHwjNzcXN0+/FYcdfnhUBNaD9z+AOQ8+ICLrOrMr7V6OHDVKRGBRZF0q61/RzcUEVuSPGMKKIgVvmzkT1Tuqu6xiScvWwZWVonLm8BHDe+yvkc+Kj2QEkhcBet43BwJo8fvQGAzgp5ZGLKneivW7dmF7Qx02NDeioaWlHZElli1dbiwlGo32xJXT7kCBYkGe3YE+GV6M9mSjwu6CjQSIFUVUUUrXJMpE2ynVxm9ubhZaovX1DVix4kdRwfDHH38ERQ2vW7cOjY0NIvovnIbVmc5rxLgwgRUxVLE4MG0JrJBou6Kq0LxZkDWdsEjGTY1Y+AH3oQsPVLgzMGv4WORabQxJAhBIGwJLpA9+8w3+8Ps/oHbXrp+rSLQDXVQelCTkFRTg1um3YvyECQl5QNFc165Zi3MnThRRFp0SWJIEi8WK0888A1deNRV2u73H82UCS3eA+e/Nx7VXXSXSCbvCOzMrE1OvuhqnnHZqj7H2+3y4b/ZsPDznITFm5wSWhH33HYu7Z9+LnNxcJrBC9yiFa4/Ze2/Mvv8+5OXlJRwXsl9tba2I3HviscfEt3hXpOS+48bikblz4XA4euw74ccURQvOeeABPPHY44J47cpXNVXD0ccdg2nXX4/MOFZQTcB7i4dkBGKOQHs1LEo1rA36UdvUhJ2+VixtqsOCdatQ3dqMptZW+AJ++BAEJUkFqGJwGwPUngpqvxXSW4qo/exCfw9VsSVCQJVlIBgQ5IBFlmFTNeTZHDi8tB/62ZzwSjJcNhs8kgJKfeDGCBiBAEkyUMXcXbtqsWPHDhGd9fZbb2LT5i1oaWpCS0uLkG2gTVt6n9GNFJRC0YKRTJAJrEhQitkxZiCwbln8LhZvWCOioYxqYkOARNszMqHadLKCySuj0DfnOOR9eTY77hl1AIpsxge6mBMVY2eVNgQWvSj/9cyzmD79Vvh8/k4r/Gmqin323Rez7rgdxVEIdcfKfESyXTF5Cua/916nZAftAsuKLNLZHpjzILKys3s8PBNYOmSLFi3CNVdOFTuFXZECngwPLp80Cb/9/e97/AKjD7QH778fDz44B0HSh+gkhVCPwBqJ+x58kCOw2nk0E1hA1bYqEX310rx5Ii2os0LQDmkAACAASURBVCxU+rhyu92YNGUyzvz1r7nyYI+fjHwCI/AzAlTRsK61BbUBP3Y2N6I6EMDW+l2o8rVgQ10tttRUo8ZuQV1Dg5An8In0QyK2RMkVSuDTFz3i79TC5FZ4EfZLsmt3KozYcUCVJVCiH0UCuO02ZPmDyHN5UOxwIUezIdvhRIYkIdvmhFNR4NI0aBxfxa5sEgSo6jN92xKZRQWVNm3cJL65Nm7cgDVr1mLrli3ih46j7yX6EVptlMbbdt/o95TQsKX/a2mFbfxYuI86GEGV0rp618T3XzAILcMLzelkjaN2cJqCwPr4HZ3AEj7QlcBK7/zg57OpwgWJtnugkj/EqlvuJ8kRkOC1WjF71IHo63Qn+bUk5/TThsAioubWm27Ciy+82DkhJEnQrBaccsqpuOmWmw0Vb2/vPvQCJcLtb089jdtnzeo6TUgCyssr8NiTT6BPaWmPSRUmsHTkF3/8Ma6+6ips3LChc+F8IgVcLlx0ySWY+Kdze4w1fYw9/NBDePC++7uMnpFlCaVlffH4k0+grG/fHo+TbI8iTiGMzGL0XPhp5UrccN31+OyzT7sUySUStKiwELfOnIEDDz44sgH4KEaAEegSgT1rFvoRxK7WFtQ3NqLOoqG2sQGNfh9qAwE0+FtR39yMBr8PDRJQJwVFKmJtYyNafa1oFjqcAbEGo6goeu5bZAU2zQKXwyG0qmi55AwADlWFw2qFW7XASRFWsooMhx0OXwBuqxVO1fKzflWoShYvtNiZzYpAOMU1/CelHtbU1KCuVo/UIi1Sks/YSf9WV4+62l1obGhETe0u1OyoRl1dLRrqG8V3sr+5Geo+I+A4+FcIUiRiL1uYGNFcHqi9iJbu5TRMebpDUXBBxVDskxNd0ajeXlST34ePN6/D5oa6UFcGEViKAsVmFxsS3BiBMAJ5FhsmZBcwIAlCIG0ILBKUvGbqVCxevLhLQohEj6dMnYqzfn1WgkyiD0u7Th8tWoRzJ54Df8BPirMdzodSBvLy83DbnXdgv/3373FaFRNYPxNYV02dik0bNnbpH4LAuvQSTDw3OgLrb08/jbvuuAPNTc1dphB6PBmYdfttOPzIIxPqh0YMzgRW5CiTgPsVl0/G6jWruxRvVxQFo0aNwl333oPikpKUJ0EjR5CPZAQYAUaAEWAEGAFGgBFgBBiBZEUgbQisb77+BldOmYJVP/3UeeSCLCM3JwcPPvwQxowZk1Cb0s7Ut8uW4dyzJ4odKfrvjlLbKNLC5XRh6rVX44wzz+zxQpUJLGMJrFdefgW33Hij2F3srFG4vKqqOPTww3HXPXeLogKp3JjAisy6dP9/tOgjXDl5MqggRaeprpRaLMui0MDsB+/n9MHI4OWjGAFGgBFgBBgBRoARYAQYAUbA5AikDYH14Ycf4spJU7B9e+cLPwrh71NWhseffBLl5eUJNR1FYK1atQqTL70M333/fVsp4j0nRWQHRVtccNGFQpupp40JLOMILCIcFn/0Ea6YPBnbtm4T4cgdkRCk8EB2zcrOwqQrrsCJJ50Iq9XaU9MmzfFMYEVmKhK7feO113HzTTdhZw1VIOz4PPIdzWLBb373W1w3bVpknfNRjAAjwAgwAowAI8AIMAKMACPACJgcgbQgsGiB/Oqrr+L/tXcfcFJX5/7HvzNb2cJWQJqiKEUFFcWosWEhGmNiEk1RgyYm0QgWTKQsvQuoCAoasUTE5MbExCiWBIyRGDFGRBTpvcPCwu6ylS3//3NmZllxZ7bvDuzndy8XhNmZM+9zZu7r93095zkTx4xzjSODdeHzRHhd5dWsJ55QmzZtal3N1JBzbcHGnt27NSIjwx1FHKwCy52EUS7d/rOfavjIEWwhrOMkWA+sxt5CaENbvWqV7h04yJ0uWRaiAaULsbzSqaedpoGDBunSyy9XQkKCe3fH2+knBFg1W7TW7+Ol+fM189FHXY+QUAGWrZUHhw7Vj2+5+bhbLzXT4lEIIIAAAggggAACCCBwvAm0iADLjp6f98ILmjPrCeUX5AedQ9t2c3X/qzVl2jR3gldzBwXW1HLiuHF67dW/+QKsICP3eLy68Qc3ucbz0dHRtRp3S63Aqlz5ZPPsmrgPGaKdjdgDy15z165dGj96jN6x0yVDzqmvWWRkRIQ6dOigfldeoSuv7q8ze53pgqzmXpsN+UVIgFUzTWt0O/vxx/XM03NlZqFOy0xJSdEjM2bo4ksvOa7WSs2keBQCCCCAAAIIIIAAAggcjwItIsCykOaxR2e46oWSIDd+gbMlvv+DmzR+4kTXN6a5QwIb99TJU/THP/zBhVfBbljl9epb112niVMmK94d+1vzkzKO5wAr4BX43QJKu2x7pp0IaCGAbcuyX//76CNNGj/BBUyhgoH6NHG317bKmblP/VZPPfmkSkvsDKvgp6hUnsfY2Bi1adNWp595hi67vJ8uvOhCWUjRqlWrivmuzbyH05cZAVbNZsOOFp/20EN6ad6LKikvkyfI0rF1npaert/Nm6fuPbrX7Ml5FAIIIIAAAggggAACCCAQ5gItIsCybYMTxo7Ta3/7W9AG7oHI5ye3365RY0bXKgRqrDm2sOORadM1f958ldtx20HCDjuC+9J+/TT9kYeVnJxcq7EfawHW0ZVTgUAqEERZKFRaaqFUqYqKCmXvLyvrgA5kZengwQM6lHtIh/Lz3PHMmZn7lLV/vzu++eCBA+6XnfgYamtWfQOs0pISffDBBxo9cqS2b93ulk6oECuwtnxbCn39zqJjYpWc3Fo9Tz9DvXr10mndTtNp3bopJTlFMbExrl9WIMw6FkItAqyafYPYMeJWkfnyH/8YIvb0PVf7Du0176WXmr2XX83eGY9CAAEEEEAAAQQQQAABBKoXaBEBlp3YNWbUKL399ttBqxaMym727/j5HRo2YkT1ck3wiPy8PM145FG3/bGkrDRkxUXfr52vx2bOVHote3eFe4Bl1VIWcFjFlP0yk5zcXOUdOuSqmQoKCtzfWUi1LzNTu3fv1p69e3Qg64Bsy5VV3BUWFam4sEiFRYUqOVyisvJS2bZLl1S5FmL2f46UszRmBZYtm8zMTE2dMlVvLHhdh4uLbeW5GKu668thlMf9WITXq/iEBKWmpKhz587q3bu3Tu3eTe3atVPbdu1clZZVE1rwZScbBqrQqnutpvx3Aqyaaedk52jsmDF6/W9/8wWfQZJWWyddu3bV3Oefc2uCCwEEEEAAAQQQQAABBBA4HgSO+wDLbvJ27tihUSNHumboofoORUZG6K5f3a37f/1A8O16TTjrFs5Yz5tnn3lWh0sOhwywzu17nh6bNUtt27Y9ZiuwbK7s5tuCqj179mjjxo3atXOntm3dpl27durgwWwV5OW5wCqvoMAFWEUFBW4LoDVELyu3rYFlKiktkUoDFWtHtlO6Sqfqc6KgM2xjq28Flj25vb8lHyzRyIwM7di+3Z+d1W1gLvrySLY50hsR6cKq6OgoJSUlu21kKampapOerk4nnqgOHdurXdt2OvHEE9WmbVsXaAWC2yZc1l95KQKs6vXts2FVhKNHjdbf33or5PeYhZRn9uqlJ56co/bt29fq+6D6kfAIBBBAAAEEEEAAAQQQQKB5BI77AMvCAjvxbVRGhv73v4+dcpWVCx5rmB2p/t/or379rnBb9pr38uhwSYneffddvfvOOyErsOT1qG/fvsdsgGXzYZVWBw4c0KfLlunvb73twqvde/a4wMqqpopdFVaJy58stLEwqbzMP0cuo/KdxugrpqpbGFTdfDdUgGWvY+Hkn/7vj5o6daqKi4qCr8vqBlXp322boZPwSiZjPZJszBGRkYqKjFJkVIQS4uNdyGm/zu5zri686CJ16tzJHVpgVVrNEWgRYFU/ybam9+3L1OgRI/XOwkUhe+JZgNXn3HP12OO+QDscq+6qf8c8AgEEEEAAAQQQQAABBBD4skCLCLDWrV3rql2Wf7o8ZLhhN/sx0VbBEhMW68RimOLiYhdwhIpk7Aa17/nna8asmWpzjG0hLMjP1/oNG/TOokVa/K/3tGXzFhUU5LuqKl/YWOZKjHzvv3GCqZpOdkMGWPaa1ofrxRde0IvzXlRWVpZvGP7wrSHfqfX0d7slrVLL0i3X5N+jmJhotYqLU6dOndSnTx/1Oqu3evXu7aq0WsW1arIwiwCr+hUYqCQdPmyYPvxgie9U0iBBrX0ffP3iizXtkYeVnp5OBVb1vDwCAQQQQAABBBBAAAEEjgGBFhFgffHFFxoxdJhWr15dbXVOODa9rq6iyJq4X37FFZr68PRjpom7BXMbNmzQG68v0NtvveW20pWUHPaFJi6q8lQ7V039+WroAMvGb43jX3/9df1h/u+1efMm1+/LLtsAGeyUuYZ43+Uejy/Hsubw/nArLj5enTp21Plf+5ouvuRitw0tNS2tYqthQ7xuVc9BgFW9rH0H2Gdk+LDh+u8HH1RbgXXpZZfpoenTlJaWRoBVPS+PQAABBBBAAAEEEEAAgWNAoGUEWCu+0PChQ7V2zZqwC0UaYo1YQ/Jvfft6TZw8SXFxcbW6YW2OJu7Wu2rB6wv055dfdnNi2+kCIV11YV1dvXxZzZF+WIHnsb+x/lm+yMz378GqnxojwLL3a6fLrVq10oV57737L23bvs1XYWN92t1grNqmru+8Zj9XEdx6PK6HVkpKqnr07KlLL71E/a68slGbgRNgVT9HgQBrxLDhWlJtgOXRpZddToBVPSuPQAABBBBAAAEEEEAAgWNIoEUEWJ8t/0zDhw7RhvUbjtMAy6Mf/vhHGj12rGviXZsqsqYMsOwm/ODBg3rmt7/VK39+xTWlLrU+VoE9bnX84Lh+WIGKJRdSWTN4ry8Acr2gfNVGLqby76WLiIxQtPWGiopWhDdCJaWlOnQoV2WlpU0aYAXesvUAs7mw7a4LFizQor//Q/v37/f1/bLe8zU4JbGOfBU/dsTLdm163AmHCYmJ6tmzp267/XZdctmlio2Nre/LfOXnCbCqJ/1SgLWkui2EHl16+eV6aBoVWNXL8ggEEEAAAQQQQAABBBA4VgSO+wDLgoFPl32q4Q8+qI2bNh13AVYgrPrpz36q4SNH1iq8skXaVAGW3YDv37dPc59+Wn96+WUdys39SjBT1YfmK5VTlauoXLIjeSO9ioyMcuFdTFS0IqMiXUP+6NgYJSQkKDU11Z3Gl5yc5JqVx7ZqpeSkJCWnpCo1NcVtu1y7bp2mTpqsnbt2VfShOno8jVGBdfRr2KEDhYWF7uTMD5d8qE8+/lgrV67Uvn373FzZevY1qvdVZ7ngzgK8Bi7RqhyCWpCVlt5G377hO/rxLTe7nlkN2RicAKv6/3dR6wDLbSGczhbC6ml5BAIIIIAAAggggAACCBwjAsd9gGWBwBe2hXDIEK1du7bBb/Sbe54tz7Gw4ed33qkhQ4fWejhNFWDZtsE//P73emr2HGVnZ1c7D4EAJXDAoAVU0THRio+Ld2FUUnKyEhMTFB8Xp/j4eCWnpCgtPV1t2tgJe23UunVrxcTEKCo6WtHR0YqxXzExioyKqghfKoc+Hy5ZoqFDhrrgKNh+vaYIsCpPoIVVubm52r1rlz5bvlzLln6irVu3aOvWbcrJyXGN7q2XWOB9VBVk1TfYCvQjs3VmPbKuu+46Dbz3HnXs2LHWay3YDxBgVU9Z2wDrkssu11R6YFUPyyMQQAABBBBAAAEEEEDgmBFoOQFWDXpgudDEbUfzbz07RqYxKipSA++5V3cPGljrETdFgGVBzIcffqjxY8a4xu0GHCpYqVz9Y9VRfc49V2eccbpO697dhVSJCYmu11dcfJzb0mbVQJV/RUREuFCvNlspra/Q0CFDtGvHzqBja+oAKzCZZmUhT1FhobIOHFDm3r3au3evtm7Zou3btiszM1M7d+7Urp07lZuT43p6VWyrdE/i8f2d/dF6a9V6lfhCUvf+W7fWD374Qw28Z5CrbmuIiwCrekV3CuHOncoYOkwf/Oc/7geCnkLo8erCr1+k6Y8+UutTSasfCY9AAAEEEEAAAQQQQAABBJpHoEUEWKtXrnI3ftYou6IPUhXedoMfExurVq1aBa3CaZ5pCvWqHsXERuvugQP141tvrVVoY8/aFAGW9b16aPIU/fUvr6i0pLRGPa8soLrwoov0k9sGuGbiFpbYFkELpypXHDXUfIRzgFXVe7TKQgt+AlsOLbiyqqz9+7O0ZuVK/W/pUq1dt1YFeXmuSXxxSYmvh32pNYS3/Ye+Z61NhZb1yLITL5OSkjRk2DDdeNNNDbKVkACr+lVs82TbSEePGKFFCxeFnDtPhFfnnnuuHps1S+3atav1d0L1o+ERCCCAAAIIIIAAAggggEDTC7SIAGv9uvUamZGhT5ctq/aG/dpvfUt33PEzVyVUmwqepp86fwDhr6fp2KmTq7ao7dXYAZYFLO8vXqzB992vnEOH7Mi/oOf8uYbrHo/S27TRj2+5RTfedKPatmvnQpLGnotjLcCqPM/uxEJ/1ZVVu1kgZFsL7XRHq8pav369tmzerI0bNmrD+nXKyjrotibaFsSKMxddDy1fM/yQcam/EuuCCy7Q1IcfVvsO7Wu75L7yeAKs6gltfrOysjR21Gj9/e23fadUBul7Zp+XM3qdqdlPPqkOHTpU/+Q8AgEEEEAAAQQQQAABBBA4BgSO+wDLbui3bt2qURkZsj5HwXpdB3qD/+jmWzRm3NgmCU0aen3UJeRp7ADLgpLRI0bq9ddfd2/X9VSqYhICY09PT9evBg101T1WhdVU17EcYIUyCgRbFlbZXFgIsnH9ei1btlwrVqzQujVrlJ190IVe7qpmi2GgqX5qerpGjRqlb337+npPEQFWzQitwm7smDF67dVX/Z+jID/n9ahr11P1zHPPqnPnzjV7ch6FAAIIIIAAAggggAACCIS5wHEfYNkN/K5duzR65Ei99+6/gt+g+7pV6wc/+pHGjR/vTrKrSyAU5vP9leE1doC1auVK3XfPPdq8aXPoqhGPVzGxMbr51lt098BBSkpOalLK4zXAOhrRPg9WFVdcVKz9Wfu1edMmLVmyRO8sXOhO6fRVyFXTo0y2bTVG37/pJg3LGO7bcluPq6YBllUW9TnvPD02a6batm3bINsX6zFst54tFHxy9mw9O3duyFM1bexfu/ACPfX00y6Yrct3S35+viaOH68//fFl92UV9OBJj0cd2rfXvN+/pC5dutTnLfKzCCCAAAIIIIAAAggggEDYCBz3AZZJZ+3frzGjx+jtN98MWWFiN5XfueE7mjB5smsOXpebzLCZ2RoOpDEDLLvBX/Da6xo9apTy/n8lljUSD3Z5PV5179FDUx+epp6nn97k9i0lwDra3yoUbavhhvXrNffpp/XOwkUqLj4ccjOhRx5FREbo7HPO0cQpk3XqqafWcLVV/bDaBFjnnHeuZroAy7e1tDmvpg6wCgsLNXXyZP1+/kvusxR8C6GUltZGL8yfr27duzUnEa+NAAIIIIAAAggggAACCDSYQIsIsLKzszV5/AS9+te/qrSsLHiI4vXqiquu1NTp09W6desmD1EabFZr8USNGWBZ8/Bnnn5av33qKRUVFQbfvikptlUr3TpggO67/z7356a+WmqAFXC2qqxtW7dqzuw5emPBAhUXFQUNSMo9HkVIsr5rEyZP0kVf/3q9wqQaB1gej3r17q3H58xxvbeaO2Bu6gCrqKhIj8+cqWfnPuP6lwULsMwlJSVFM2bNdHPT3E5N/Vnm9RBAAAEEEEAAAQQQQOD4FGgRAdah3EOaOWOGXpo/3/X6CdX8+Lzz+2rmrFmukXhLuPFrzAArMzNTE8aN16J//EOHDxcHDbDsZLt2J7RTxqhRuubaa5vFvaUHWPb1Zp+LpUuXuu221hvLNXUP0TQuLTVV9z8wWN+78UbFxMTU+RuyNgGWVefN+e1v1aFjh2ZZJ5XfZFMHWNaY/8UXXtDMx2aqIC8/aMN9+96KT0xQxogRDXZSZJ0nlx9EAAEEEEAAAQQQQAABBBpIoEUEWNY7Zt7vXtCTT8xWXn5ecDqvx22HmvvMM+p84okNRBzeT9OYAda2bdv0m/sHu9MfQ1a+eTzq1r27qxg5rVvzbHkiwPKt09ycHM1+4gm98PzvVGJhb4jl2youTrfdfpvuHjSoXg33ax5geXW6BVhPP6X2HVpegGVOC15/XZMmTFD2weyQFVgWKA746e0aMnRoeH8BMToEEEAAAQQQQAABBBBAoIYCLSLAssqFBa8vcDd+OdnBb/ysp067du30zPPPuX5MLeFqrADLqlPWr1un+++7X2tXrw5eySO5fkp9z+urR2Y+5vyb4yLA8qnbvJnFPXcPVG5ujsr8Td2rmpOIiAh993vf1cjRo5WQmFjnabNg5i+vvKKpk6e4puihtsZ169ZNTz0zNyxO12vqCizrV/bv997TsCFDtH///qBzYxVY9l32jWuv1czHZzV7pVqdFwY/iAACCCCAAAIIIIAAAghUEmgRAZbdaC5e/J6GPPAbZWVlhbxBTktL08TJk3Xl1Ve1iBu/xgqw7GZ7xeef68EHfq2NGzeGDLCioqJ0+RVXaOLkSTL/5rgIsI4EWBs2bNDge+/TGn/wGCpQuu766zV+wgS1Tmpd52k7XHzY9aebMnmycnJy3EELVV5ej07u0kXPPv+8TjzppDq/XkP9YFMHWDbuT5Yu1a/vG6wdO3aorLzqfn52oKo3wqvzv3aBHp35mNq0adNQb5nnQQABBBBAAAEEEEAAAQSaTaBFBFimu2zZMv3mgQe0dfNWlQe78bPeMQnx+vkvfqFB997bbJPSlC/cWAGWNQX/5OOlGj50qLZs2RIywIqOjtY137xWo8eOVXJyclO+/YrXIsA6EmDty8zUmFGjtHDhIqmsPGSvpWuuvUbjJk50TcPr2jPOKiT//vbbGj9unLIPHJSFn1VdHo9X7dufoBfmv6iTTzmlWdZJ5Rdt6gDLXm/tmjUaMSxDn322PKiTjdEqsLp06aLJUx/SeX37NrsVA0AAAQQQQAABBBBAAAEE6ivQYgKsrVu2aNiDQ/S/jz9WebCTCD1SVGSUrv3mNzVpymRZj5/j/WqsAMtOSfvgPx9o1IgM7dyxswYB1jc1euwYAqwwWHDWB2vihAn6yyt/qTbAurr/1Ro/caLS0tPrHGDZFsJFCxdq7KjROnAgK/jWOHmU3iZd8//vD+ratWuzSzVHgLV7925NmjBRf3/7LZWH2N7p9XqUnJyi4SNG6DvfvaFep0Q2OzQDQAABBBBAAAEEEEAAAQTsmLHyoMeMHV8+1ltn5PAMvblggXtjwZpTR0ZGqEePnpoyfZp69ux5fCFU8W4aM8D66L//Vcaw4dqxfXvoACsqStdcdx0BVpisNju10/rF/flPf3Lb+YJ9Vmyr2tX9+2v8pPoFWFatt/hf72n4sGHKcr2dqq7AKvd4lJaSornPPauzzj672bWaOsCyN2yf10cffljz573oPlNBt3dKio2N1Y9uvln3Dr5fifXoUdbs0AwAAQQQQAABBBBAAAEEEGhJAVZRYaHmPv20npj1uEpLSoKfrub1KDUlVcOGD9e3b/iOIiMjj+uF0lgBloUSyz75RMOHDNHmzaG3EEZGReryy/tp0kNT6IHVzKvNApGc7BxNGDdOr736qi8kCTGma665RuMnT6rXFkILrCzs/PXgB5S5d2/wLYSSWicl6aHp03TV1VfXueKroYibI8AqLCzU7196SbNmPKa8vLyQ/fxsS+f555/vPlcndenSUG+b50EAAQQQQAABBBBAAAEEmkWgxVRg2U3ykiVLdNcdP1dRUVHQG/NyjxQdGaVv33CDMkZkuBvmuvb2aZYZreWLNlaAZTf3X6xY4Zq4r1+/PmQFljWcPu+88zRj5ky1O+GEWr6Dhnk4PbB8jjZvtuUzY9hQffjBEhcmBa3A8nj0zeuv14SJE9S6dd2buNvrfrZ8uQbdPVC7d+0K0QPLo/j4eA3+9QMacPvtzf65bI4Ay4LhD95/XyOGZ2jXzl1B+5OZqX1vtW/fXiNGjVL/b/SXx+ttmA8Lz4IAAggggAACCCCAAAIININAiwmwzHb79u0a9KtfaeWKL0JWltiNn51yNm36dPU579xmv1FuzHXRmAHWxg0bNfiee7Vq9arQAZbXox49emjG47PUteupjfl2gz43AdYRGgse777rV9q109e7rMptah656sTv33iTho/IUEJCQr3mbfWqVbrn7oHavHlzRZB29BPa59JOrLzxBze5vlvNfTVHgGXv2QJhC7CWL1sm6zUX7DKv6JgYff/739dvhg6pd8jY3N68PgIIIIAAAggggAACCLRsgRYVYFnl1ezHH9dTc54M2T/G6/EoMipKN3z3uxo7YbzslLzj9WqsACsQGP5m8ANatnSpa8wdbDOa3Wh37NjRnULY78ormiUwJMDyrfDioiK98sormjJxkgoKCkIGjwkJifrZL36uX/zyF2rVqlW9PiIbN250hyx8umyZa05e1VqxnlvyeHTxJZfomeefU0RERL1es74/3FwBVt6hQ5r52GOuD5ad4BgqwLKK0pNO6uKq5C648EKaudd30vl5BBBAAAEEEEAAAQQQaDaBFhVg2Q3n4vfe04ODH9CBgwcdelXVJXaj7BpGp6XqwaFDXZB1vPbCaswAa9++fS4IeevNN3S4+HCIrWhyW8Pu/NVd+sWddzWLdY0DrMREDRw0yAU3x+PWUmu4P3bMGNdU3W0fLK96A6G99zZt2mhYxnBde911rjKqrpe9hlV7TRw/QYv+8Y9qqyPPOOMMPf7kbHXufGJdX7JBfq65Aix73b+9+qomjB2rnJzckCGjzZNt0f3mdddpWEaG2rVr1yDvnSdBAAEEEEAAAQQQQAABBJpaoEUFWIa7d88e3Xfvvfr4o/9Ve+Nnw0/GLQAAIABJREFUj+/Rs6dGjxmjc/ued1xWLzRmgGUNp5979lnNeWK2iqyaJ8jq9nikiIhIXfT1r2vCpEnq0LFDk4dDvgBrqHbu2OFO3qvqsjDAKo1uHTDA9WGqT2jT1B/0mryeVVz99S9/0cwZM7Q/K0sqC96+3aqfTjnlFE2a+pD69OlTk6cP+hgXBOXkaMajMzT/hXkh+zp5PV6lpadp7Phx6n/NNU2+Tiq/ieYKsGwMmzZt0sA779K6tWtdVVrw0wg99s+KT0zUbbfd5oLX+vYrq9dk88MIIIAAAggggAACCCCAQB0FWlyAZaHKS/Pna9rUqbKGyJ7yIFVYdtdXLkVFR6tv3/N09z2DdO5557ltS8dT5U1jBlh2U/3mggUaPWqUCyhsG2Gwy+P1KCU5RQ88+KBuvOnGRq/CsrHZPNrvFty89rfXNOPhh33BTbAAS1KEN0Ind+2qgfcM0lX9r1ZsbGzVVXy2fo6Rywysl9K7//ynHnvkUW1Yv15lwXpfuepE30EHV1x1lQuSrBKrvpcLO595Rk/MnKXDdkpoiBAxJjZWP/nJrbrn/vsVFxdX35eu8883Z4Bla/apOXM05/HZkn1VBfGyN2dbosu9HqWnpukHP/yhbr1tgNLT04+r77E6TyI/iAACCCCAAAIIIIAAAseMQIsLsGxb1JrVq5UxdJhWfLHChVShbpYthrDQqnuPHnrgwd+4EMuqcLzHyYlejR1gmfV9A+/Rps2bQvYdszDJfp3Zq5cemjZVp3Xr1ig32Db/pSUlKiwq0r7MTH24ZIlef+01bdqwUVlZWaFP3bOkwAIBr0epaak6t29ffeeGG3TqqacqLj5esTExrnearY2YmJiga8SCU1tz9rjmXkcWXNkaWPSPhXpyzhxt37JFgXMHg2UirqInPkG/vPNO3TXw7gZ5D4cPH9Zbb7ypSRMnKmv/vmAZolsT9vpnnNlL4yZM0Jm9zmyQ16/LN3ZzBlgGZP3Cfj14sLZt217NZ8vencdVaiUmJOjqq/vrpz+/Q11O7uL6+zX3GqyLPT+DAAIIIIAAAggggAACLU+gxQVYNsV5eXn63XPP6+mnnlJ+fr4vxAqywS1QbWU3eWnp6ep3RT9ddXV/9erdS2lpaV8KWQJVPbVZRkeHZ8Gqu6p6nAUhdtWnmXVjBlg2tpycHI0ZNUoL/vZa6K1O/ool25b39YsvdhVOFmbVt/dYwM0qfPbs2SPr8bTi88+1YsUKF2Ta3xXa9kbXONzKi4KvBYftcgBfdZ43MsJVACW1bq02bdoqOSVF8XFxat+xo2655WZ16tz5K0vBAqMvvvhCW7dsUYo9Pj5BMTHRsqoiC0atF5j9bg6BCrHKT1LV+ghVfRP42co/Z4+35t9msfzT5XrnnXdckJeTnV0R5lYX6loV2vRHHlbvs86qzXIP+lh7PZsXa+S+bt1aF2AF609nMWJ0bKwuv/IK/fKXv9TpZ5xR7ToJPNfRfpVfo7aVlc0aYPk/W1axZhWlxcVFQUO/ijXg9VeVRkWpy8kn65JLL9XFl1ysU087TW3btq3ye6Q+30/2uhYYWzhpB2jYd2h9T6tskMXGkyCAAAIIIIAAAggggMAxKdAiAyy7KVu9erXGjBipTz/91G0Zc/8TZIdbxY1tuRQRFal2bduqT59zdM6556n32We5E/RsK5mFDha4VLXNsPKNoP05cNJaoBrHbvRc0+yycpWVl6mstNT9t/17QWGh8vPylJubqwMHDrjKIQuGLAy57PJ+6n1W7zovvsYOsGz87yxcpAfuv9/dxLqMKMT2MAsnzPCss8/WzT+5VRdddJELhsw0VFATmCN7PTtJzwIaCyd37Nih1atWa/OmTVq5cqW2bNnitjNaoHX089UkCDoa2rbTuaogf/hlN+nWZHzK9Gnq3r37V+bFwtNn587VvHkvKioiwq0ZC8ESk5JcoJWamqKkpGTFx8eplQvHkpSSmqKU1FTXuyghPl7R/uouMwmsNRtDIMi0Mbg1Vl5esYYCLpl792rtunVau2aNln2yTOvXr3drydZb4ArmYAcbeF1g6tWPb7lVQ4YOcWNsqMv6040fO07vLFqokhJflVpVV2CuI6Mi1atXb33nuzfo4osvdgGzVRRVDv/sfQd+2Xsstc+Z//fSklIVFOQrLz/frc0TTzzRba2r6dXcAZa9/n8//FDjx4zVurXrQvYOs/cUcLM1a5dtA23bto16nH66zjjzTHXr1s31NbN1aI4RkZEVVYKBMNUsfVWMfteyUmdn3yP2ucrOztbBgwd1KDfXbc21z1lBQaH7LJ59ztmuYvF46x1X0/XC4xBAAAEEEEAAAQQQQKB+Ai0ywDIyu+l66403NHrkKF8FTohgxUfs27pkQZc1krawID4uXsmpyUpKSlLbtu2U3raNWie2VqtWsa4puavWKZfbklXmvyG3m0f7s/X5KSsrVWFBoQuiLHApLCxQYVGx+zv7swVXZaUlKrGbxtIylZQcVnFRsRt70eHDimvVSkOHD9N3v/e9Oq+Cxg6wbGAWmlgV1qKFi1ReVubv2VP1kO3e2py9kVFKS09Vt9O665xzztHJXU/RSSed5G9A7c6JdJUdh3IPKTsnW1lZB3QgK0u5OdnKzMzUzp27tH/fPuXlHXIBTUF+gUpKS1RaWvalF65LaBUKOzIiwm0znThlsk4+5ZSvPDT74EHNnPGY5s+bVxHQePxbCV0Q5vXK+oFZ3yIL8qKiohVroUx0jAtPI7xeRUdFuYqtuLhWbuuiBWAx0TGKjol2IYVtYzRnW1eHi4uVm3tIB7MPKvvAQRck5OTmukDU/s3WVk0N3Djl0Zm9e2nSQ1NcQFfbqqVQdjafv3v+ec2a8Zhb/yHaOlW8rvUka53UWie0P8FVvHXo0EGtk5JcSGJbRfMLClSQn+/CFFvreXn5KsjLc58te+/2GAtkzHPwA4N1xZVX1viz1NwBlg3U1vaLL7ygp5/6rfLz8qvthxV4cxXz5g5QiFB0dIwSExNdhZR9r6SkJKt1crIvMLVthhERzsle49ChXLemDuUdct9Hpfa5Kin1f48VuRNH7futuKTESrDcS9pavuF739WDQ4a4NcuFAAIIIIAAAggggAACCNRWoMUGWAaVdyhPT86ereefe86FIYGqlRojWtDiqm98wYNdX6nq8e1Kk8eahsvj+7P98j1cZbKqFl8FT7lFXa7oxKMy+xd/AYr9ne8nfc8VuBISE5QxYoRu/MEP6hwkNEWAFajCGjd6tPZmZlbpVNnct5vQVybisbDQ41FsfJzr3+Or3vC4RuKukiYQ/hUVuptpu8n23Zxb9ZGvCqmqeanxHNfygXajbtuyxk2c6CrzKl82lv379+vhqdP0yp9fccGmrYujL1fV5Xv3/t/9j/A/1AKugJA3wutL/Mrsf31hgfXKj/BX2ZifXVZ5FAgTymzNhmjSXtVbdqYe6YR2J2jk6NG6+hv9G7x3kvksX/apfjN4sLZu3eoayVd3uZm2yjD75Xep/GPuc+Op9Alz/2hVjpU+lx6PC25GjB7lwuCa9oQKhwDLxmBWUydPdk34LbSsAVsFq1trRuQONPB/z1hQ6f9eC5QWmpfj9W+frfiudNWrlb+ZfAvPp2zr2/fcFoJZ9dWwERmcgljdoubfEUAAAQQQQAABBBBAoEqBFh1g2U3Ytq1b9ci06Vq4cKFKAiFWLRdL4Ly5wO124Ka68n9XnElX8ZeBYOVITBGsD1ewQMFuun8zZIh+dPOP69wHqykCLBu/bXt8fOYs/flPf3LVZu4mt4Z32r48KxDhBcIdn4qLeAKnsB31fNXHH0dkK7ZXVTqdsJbLwD3cAjY7nXD02LFfOZ3P3u+e3bs1acJE/f3tt30BTQ0NQo2lql5ZlR9f3b9X99yBn09NS9NPBgzQT24b4KoOG+PKzcnV9GnT9IeXXvJFILWaRP+IAkFfYN1U/HfwT5j1Hrv3/vs04Pbba7zFLRwCLHuLFtouW7ZMUyZOdAGgBXr+D1i9p8gXun8J1Hdya5CegcFe0AKsb1x7jUaMGlWrbZr1fgM8AQIIIIAAAggggAACCBw3Ai06wLJZtOqgtWvX6snHn9A/3/mnig8faYZc04ClOVaDhQrxCfG6f/ADunXAT6ptYh1sjE0VYNlN9upVqzRl0mT996OPVGbbi8LkOrKdylfx5KuMqnnAVvlt2I369d/+tqvmsZ5VlS9bT9Y4ffSo0frP4sUhTzwMB5qK3l4eKSUlVTfffLNuuW3AVw4vaMixmpFr5j5kiOvrFKika8jXOPq5LO+JjW2l23/2Uw285x53gmRNtkaGS4DlvsdKSvS/jz/WzEcedWGWVWL5ot7aJICNp2yfi379+mnk2DFq3759470Qz4wAAggggAACCCCAAALHrUCLD7ACIdamjRv17DPP6OWXX1ZExYa9uoUYTbFa7AbbKrAG3nuPbqtF1cjRY2uqAMte126qP/roI00cP15r16x1Q3G32LUqs2kY3Ypwxl9hYv9tTbw7nXSiPv7vRyqyJu+BHVO1yACsF9X3bvq+MkaOdKcJHn1t2bzZhTNL/7fUf3BALZ68Yd56tc9SObyx+bHeUr/81V3q/41vuAbfNQl3qn2REA+wHm9/eeUVPTL9YVnPMLsac41YgGU9oL53443KGDnCHchQk/cYTgGWGdk26C9WrNCTs+do8eLF/u2EtnW5cf1qMtdWmXjhRRdqzPjxrpcdFwIIIIAAAggggAACCCBQWwECLL+Y3YzaCX+2xe2leS9qz549rjrL9QoKPKa2uo34eKsVik9I0J2/uks/+/kdrmqkLldTBlg2PqsUWbp0qSZPmqy1q1e7m+7GDigCLoFT9Oy/LaCIioxUbKtW6ty5sy7v10/XfPNaVzX1f7//gwtQDh44oGL/tlI3xko1LYG+ZpXN7fmt4fqPbr5ZwzOGu2bqR18bN2zQ4Pvu18qVX7gTJ8PrCvRi8500aAHpWeecrZ//8pfq27dvjbfW1fc9+T6LWXr6yaf0x//7o+tV5wuwvtoHrr6v5VsL9n4j3Ra3KQ9NVVx8zU5WDLcAy32+Sktdld+8F17Q22++pX379rsm677PWGAVN4Ra7Z7DesPZGho3aaI76ZALAQQQQAABBBBAAAEEEKitAAHWUWJ5eXla/umnenPBG3r//fe1fft2fx9j143YfyPduFtzKvedcb2zXSPur/YDsr49t99xh+68684qq31qshiaOsCyMVkl1sovvnBB0bvv/NM1Ni8rDzRf9426vhU3gQqawEwFoiJrTt2mTbpOPvkUndGrl/r06aMePXuobbt2rvLGLjOx8S35zwdavny5du/apX379ik3N9cFBHZZu/RAY/6AszXEjo6J0YABA9zpkFVV8axds0aD7h6ozZs2HhUo+Jtf+wccaO7emBFXRV82f88kCzisEXpaWpp6nXWW+vfvrwsuutBt+bKT6prysvm3vmmv/vVVF2Jt2bzpSILoH0h910jF+7HDGLxeXXzxJZo1+wkX3NXkCscAK/DZsbX6yccfa+E/FmnJB//Rjh073JbVL12VwvmavN+aPCZY5Zr59u7d251e2a1795o8FY9BAAEEEEAAAQQQQAABBL4kQIBVxYKwG1OrvrHw4l/vvqv3F/9be/fuVUFh4ZHtOJU6tNfqRrpSx/fAaXmBvWruebz+Uw3daXJl7qY9IjJCUZFRioqKVnRMtGKiopSUnKyTupyk666/XldedZU75asuV96hQ8oYOkxvvvlGxUlkVT1PVFSkLr3sck2cMrlBmjDbzXRWVpb+vfjf+usrf9bnyz9Xfr6v0ubo0KY630CTcd8haS7xqzjJMdIb4cK9hMTWOrXrKTrrnHN0+hmnq0ePnkpLT1NcXFyVQZO9ZkFBgXKyc7Rz5w5X1ZKVdUCFhYUqKijQYavOqzgr8YiYJzJC5/Tpo8suu6zK6dixbZsee3SG1qxdo+ycXBUXFqmk5LCrRLNfJXayYmlJRXN6r7wq9Z8u6DuV0t9U+8tH7dWo1dHRWwOdm/X78nidQ3p6uquS+fqll7j30LZt2zr3VqvLWqzqZ2x9fvzxx3rlz3/Whx98qJycgxWnhVYQ1LSpuP90y8rBXWDNlJeVqW/f8/Xk3KfVOunLvcuCvZdAgDXnidl6bu5c/2ECVT/arC+44AL3/MHWXEOZBZ7HPmO2BfPzzz7X4sXv6YP3/6Ndu3cpPy9f5fbd4jv94EiFaS228n4pqAqso0rnZpqnNyLCVe1ZqBsbE6PTzzxDwzIydOqppzb0W+X5EEAAAQQQQAABBBBAoAUIEGAFmWS7ObVqG6vGsQoca/S+8ouV+mTpUq1euUr5Bfnyery+SiF3R+y7EfTdHFfcIh85Zc5/82wnz7mMpdwjd4S9/wQ9e5rICK9aJyWrXdu2anfCCWp3QjsXIiTEJygpOUl2CpxVx1iFiPXsiYmNUWJiorshrutl788CrLdcgFX1s9jYIiItwLpMEydPdmNqqMv6HVmlzapVq/TRh//V+//+tzZs2OCrFvGDmnHgJMLAsXQV+WGgxKrSyWutk1ura9du6tGzu+trdeJJJ7ltgsnJKUpsnegqrayiqKZ9jmws9svGYb/buggVqkX7b9qrMrLqMwvuLAizP1uvrZycXB08kKWDB7N16FCu8vLydfDgARea7tubqczMvdq7b58K8wsqXvfI2CtvbKy0z9HfwLsik/D4tgf6tsR63Fyf0KG9zuzVSz17nq5u3U7TKV27uhArITHRBVc18WmodRDqeSzYM7M1q1brvx9+qH8vfs99HktKfCGivRnfaZQ+C3804zBcU37/Vk1fYBeIAD0uXOnYvoNO7nqKunTpop6nn65rr/tmjasZAwHW47Me1++efdb/+amiZs7/V1/72tc0Z+5c9/ltSltbZ/l5ecrct0/W68+qAK1RvgX0mXszHb0Ljv3fTb6/8J3u6bv8IZevCNXn7X9P9jD3c16vkpOT1aljJ3Xq3EkdO3RUSmqqUlJT3PdFenobJackuz/XNWxvirXGayCAAAIIIIAAAggggED4ChBg1XBu7CbN3Ujv3++2vG3fvk3r163Xls1btH/ffhUWFepwyeGKG7uKWz+PBVOR8njthjlaMdFR7gbWmmEnp6YqLTXNd6OXkuJOFbQm4FYxFNsq1gVTFrbY9psjN5j+iMy/nbG+N8J2c/v5Z59p9+7d/q2KwUDKXXjW+6yz6txvKxS1vT8Lsyy02bl9h1atXKnVq1dp7569KigqVGlpmWwjZeCySqfoyCjFxsYoNT1dHTu0V8dOndWpUyd3o9w6sbW7oY6JjfXfmB9J5+prVpOKsOrea+UxVJ7bQDVZcXGxCgsKXNWf/W429iv7YLb2Z+3X/sx9Lvjbu3+fDuXkKL+wUKWHD6u0pLRSkCq37iLNKSZWqakp6nhiZ9dE25xsPpNTUlzfL3tdW2fhfAU+g3v37NG2bVu14rPPtXLlKu3NzHQ2JUVFOlxS4j6nFlBaD7Ko6ChXvWhVQElJrV2w0vmkE12gmWZhXXyCWrdOVEJCoqturO1lnx8LhDZv3hLar7zcrcu+55/f5NsxK7+nwFrLzs5232XWI2vrls3atHmTdm7fqYM52SouKq5oAB9YERZUWahp4WyruDilpqbqBH/I3q7dCe6Uyri4Vu7f7PvNvrssIKz8Wanv5662c8PjEUAAAQQQQAABBBBA4PgSIMCq5XwGbsisCsduXu33Mtv2VVbmbpzdv1faXmg3bXbjZ72XrErBnX7nDwssMDj6V0Xw5S+daYqbvkCFUXUUNpam6IVk43Hb6fy+Jf6tdQFXqwIxU1dF5Te0Pwd+hXsQU51zqDXgKsBKSmSVfK4SrKzcbTV1FYMlvjXp6mX8hVkRXq8LcszErUVz8tsFgtGmWGM1fc81fZxbI8XFLrCy9VFQUKiiwgLXdN/CLFsfUdHRbuuahZhW9ePWh9db8f4Da9lXeRSk/LAGA6rp58eeysYVTpe9d1szFd9l/mrDo7/L3NqJ8n/m/N9fZmnbBC2g90b4oq7A92N9PMPJh7EggAACCCCAAAIIIIBA+AgQYIXPXDASBBBAAAEEEEAAAQQQQAABBBBAAIEqBAiwWBYIIIAAAggggAACCCCAAAIIIIAAAmEtQIAV1tPD4BBAAAEEEEAAAQQQQAABBBBAAAEECLBYAwgggAACCCCAAAIIIIAAAggggAACYS1AgBXW08PgEEAAAQQQQAABBBBAAAEEEEAAAQQIsFgDCCCAAAIIIIAAAggggAACCCCAAAJhLUCAFdbTw+AQQAABBBBAAAEEEEAAAQQQQAABBAiwWAMIIIAAAggggAACCCCAAAIIIIAAAmEtQIAV1tPD4BBAAAEEEEAAAQQQQAABBBBAAAEECLBYAwgggAACCCCAAAIIIIAAAggggAACYS1AgBXW08PgEEAAAQQQQAABBBBAAAEEEEAAAQQIsFgDCCCAAAIIIIAAAggggAACCCCAAAJhLUCAFdbTw+AQQAABBBBAAAEEEEAAAQQQQAABBAiwWAMIIIAAAggggAACCCCAAAIIIIAAAmEtQIAV1tPD4BBAAAEEEEAAAQQQQAABBBBAAAEECLBYAwgggAACCCCAAAIIIIAAAggggAACYS1AgBXW08PgEEAAAQQQQAABBBBAAAEEEEAAAQQIsFgDCCCAAAIIIIAAAggggAACCCCAAAJhLUCAFdbTw+AQQAABBBBAAAEEEEAAAQQQQAABBAiwWAMIIIAAAggggAACCCCAAAIIIIAAAmEtQIAV1tPD4BBAAAEEEEAAAQQQQAABBBBAAAEECLBYAwgggAACCCCAAAIIIIAAAggggAACYS1AgBXW08PgEEAAAQQQQAABBBBAAAEEEEAAAQQIsFgDCCCAAAIIIIAAAggggAACCCCAAAJhLUCAFdbTw+AQQAABBBBAAAEEEEAAAQQQQAABBAiwWAMIIIAAAggggAACCCCAAAIIIIAAAmEtQIAV1tPD4BBAAAEEEEAAAQQQQAABBBBAAAEECLBYAwgggAACCCCAAAIIIIAAAggggAACYS1AgBXW08PgEEAAAQQQQAABBBBAAAEEEEAAAQQIsFgDCCCAAAIIIIAAAggggAACCCCAAAJhLUCAFdbTw+AQQAABBBBAAAEEEEAAAQQQQAABBAiwWAMIIIAAAggggAACCCCAAAIIIIAAAmEtQIAV1tPD4BBAAAEEEEAAAQQQQAABBBBAAAEECLBYAwgggAACCCCAAAIIIIAAAggggAACYS1AgBXW08PgEEAAAQQQQAABBBBAAAEEEEAAAQQIsFgDCCCAAAIIIIAAAggggAACCCCAAAJhLUCAFdbTw+AQQAABBBBAAAEEEEAAAQQQQAABBAiwWAMIIIAAAggggAACCCCAAAIIIIAAAmEtQIAV1tPD4BBAAAEEEEAAAQQQQAABBBBAAAEECLBYAwgggAACCCCAAAIIIIAAAggggAACYS1AgBXW08PgEEAAAQQQQAABBBBAAAEEEEAAAQQIsFgDCCCAAAIIIIAAAggggAACCCCAAAJhLUCAFdbTw+AQQAABBBBAAAEEEEAAAQQQQAABBAiwWAMIIIAAAggggAACCCCAAAIIIIAAAmEtQIAV1tPD4BBAAAEEEEAAAQQQQAABBBBAAAEECLBYAwgggAACCCCAAAIIIIAAAggggAACYS1AgBXW08PgEEAAAQQQQAABBBBAAAEEEEAAAQQIsFgDCCCAAAIIIIAAAggggAACCCCAAAJhLUCAFdbTw+AQQAABBBBAAAEEEEAAAQQQQAABBAiwWAMIIIAAAggggAACCCCAAAIIIIAAAmEtQIAV1tPD4BBAAAEEEEAAAQQQQAABBBBAAAEECLBYAwgggAACCCCAAAIIIIAAAggggAACYS1AgBXW08PgEEAAAQQQQAABBBBAAAEEEEAAAQQIsFgDCCCAAAIIIIAAAggggAACCCCAAAJhLUCAFdbTw+AQQAABBBBAAAEEEEAAAQQQQAABBAiwWAMIIIAAAggggAACCCCAAAIIIIAAAmEtQIAV1tPD4BBAAAEEEEAAAQQQQAABBBBAAAEECLBYAwgggAACCCCAAAIIIIAAAggggAACYS1AgBXW08PgEEAAAQQQQAABBBBAAAEEEEAAAQQIsFgDCCCAAAIIIIAAAggggAACCCCAAAJhLUCAFdbTw+AQQAABBBBAAAEEEEAAAQQQQAABBAiwWAMIIIAAAggggAACCCCAAAIIIIAAAmEtQIAV1tPD4BBAAAEEEEAAAQQQQAABBBBAAAEECLBYAwgggAACCCCAAAIIIIAAAggggAACYS1AgBXW08PgEEAAAQQQQAABBBBAAAEEEEAAAQQIsFgDCCCAAAIIIIAAAggggAACCCCAAAJhLUCAFdbTw+AQQAABBBBAAAEEEEAAAQQQQAABBAiwWAMIIIAAAggggAACCCCAAAIIIIAAAmEtQIAV1tPD4BBAAAEEEEAAAQQQQAABBBBAAAEECLBYAwgggAACCCCAAAIIIIAAAggggAACYS1AgBXW08PgEEAAAQQQQAABBBBAAAEEEEAAAQQIsFgDCCCAAAIIIIAAAggggAACCCCAAAJhLUCAFdbTw+AQQAABBBBAAAEEEEAAAQQQQAABBAiwWAMIIIAAAggggAACCCCAAAIIIIAAAmEtQIAV1tPD4BBAAAEEEEAAAQQQQAABBBBAAAEECLBYAwgggAACCCCAAAIIIIAAAggggAACYS1AgBXW08PgEEAAAQQQQAABBBBAAAEEEEAAAQQIsFgDCCCAAAIIIIAAAggggAACCCCAAAJhLUCAFdbTw+AQQAABBBBAAAEEEEAAAQQQQAABBAiwWAMIIIAAAggggAACCCCAAAIIIIAAAmEtQIAV1tPD4BBAAAEEEEAAAQQQQAABBBBAAAHdBaUYAAABYElEQVQECLBYAwgggAACCCCAAAIIIIAAAggggAACYS1AgBXW08PgEEAAAQQQQAABBBBAAAEEEEAAAQQIsFgDCCCAAAIIIIAAAggggAACCCCAAAJhLUCAFdbTw+AQQAABBBBAAAEEEEAAAQQQQAABBAiwWAMIIIAAAggggAACCCCAAAIIIIAAAmEtQIAV1tPD4BBAAAEEEEAAAQQQQAABBBBAAAEECLBYAwgggAACCCCAAAIIIIAAAggggAACYS1AgBXW08PgEEAAAQQQQAABBBBAAAEEEEAAAQQIsFgDCCCAAAIIIIAAAggggAACCCCAAAJhLUCAFdbTw+AQQAABBBBAAAEEEEAAAQQQQAABBAiwWAMIIIAAAggggAACCCCAAAIIIIAAAmEtQIAV1tPD4BBAAAEEEEAAAQQQQAABBBBAAAEECLBYAwgggAACCCCAAAIIIIAAAggggAACYS3w/wCbXAoMnZnwmwAAAABJRU5ErkJggg==;" vertex="1" parent="cy1oQO3DxAkA0THGuxHd-31">
          <mxGeometry x="760" y="550" width="178.46" height="87" as="geometry" />
        </mxCell>
        <mxCell id="cy1oQO3DxAkA0THGuxHd-33" style="edgeStyle=none;curved=1;rounded=0;orthogonalLoop=1;jettySize=auto;html=1;entryX=0;entryY=0.5;entryDx=0;entryDy=0;entryPerimeter=0;fontSize=12;startSize=8;endSize=8;" parent="1" source="cy1oQO3DxAkA0THGuxHd-1" target="cy1oQO3DxAkA0THGuxHd-2" edge="1">
          <mxGeometry relative="1" as="geometry" />
        </mxCell>
      </root>
    </mxGraphModel>
  </diagram>
  <diagram id="ZMcqwWB6qdydIzDCMh3V" name="PATRON">
    <mxGraphModel dx="853" dy="1423" grid="0" gridSize="10" guides="1" tooltips="1" connect="1" arrows="1" fold="1" page="0" pageScale="1" pageWidth="827" pageHeight="1169" math="0" shadow="0">
      <root>
        <mxCell id="0" />
        <mxCell id="1" parent="0" />
        <mxCell id="NSwKJbFaISozo3_4gafW-11" style="edgeStyle=none;curved=1;rounded=0;orthogonalLoop=1;jettySize=auto;html=1;exitX=0.5;exitY=1;exitDx=0;exitDy=0;entryX=0.5;entryY=0;entryDx=0;entryDy=0;fontSize=12;startSize=8;endSize=8;" edge="1" parent="1" source="NDrtJu7eo3PLSK_r6qdP-1" target="NSwKJbFaISozo3_4gafW-1">
          <mxGeometry relative="1" as="geometry" />
        </mxCell>
        <mxCell id="NDrtJu7eo3PLSK_r6qdP-1" value="Controller" style="rounded=0;whiteSpace=wrap;html=1;" vertex="1" parent="1">
          <mxGeometry x="234" y="-34" width="120" height="60" as="geometry" />
        </mxCell>
        <mxCell id="NSwKJbFaISozo3_4gafW-10" style="edgeStyle=none;curved=1;rounded=0;orthogonalLoop=1;jettySize=auto;html=1;exitX=0.5;exitY=1;exitDx=0;exitDy=0;entryX=0.5;entryY=0;entryDx=0;entryDy=0;fontSize=12;startSize=8;endSize=8;" edge="1" parent="1" source="NSwKJbFaISozo3_4gafW-1" target="NSwKJbFaISozo3_4gafW-2">
          <mxGeometry relative="1" as="geometry" />
        </mxCell>
        <mxCell id="NSwKJbFaISozo3_4gafW-1" value="Service" style="rounded=0;whiteSpace=wrap;html=1;" vertex="1" parent="1">
          <mxGeometry x="234" y="112" width="120" height="60" as="geometry" />
        </mxCell>
        <mxCell id="NSwKJbFaISozo3_4gafW-2" value="Repository" style="rounded=0;whiteSpace=wrap;html=1;" vertex="1" parent="1">
          <mxGeometry x="234" y="267" width="120" height="60" as="geometry" />
        </mxCell>
        <mxCell id="NSwKJbFaISozo3_4gafW-3" value="" style="shape=step;perimeter=stepPerimeter;whiteSpace=wrap;html=1;fixedSize=1;size=7.4000244140625;" vertex="1" parent="1">
          <mxGeometry x="439" y="112" width="181" height="60" as="geometry" />
        </mxCell>
        <mxCell id="NSwKJbFaISozo3_4gafW-4" value="" style="html=1;verticalLabelPosition=bottom;align=center;labelBackgroundColor=#ffffff;verticalAlign=top;strokeWidth=2;strokeColor=#0080F0;shadow=0;dashed=0;shape=mxgraph.ios7.icons.mail;" vertex="1" parent="1">
          <mxGeometry x="461" y="128.5" width="41" height="27" as="geometry" />
        </mxCell>
        <mxCell id="NSwKJbFaISozo3_4gafW-5" value="" style="html=1;verticalLabelPosition=bottom;align=center;labelBackgroundColor=#ffffff;verticalAlign=top;strokeWidth=2;strokeColor=#0080F0;shadow=0;dashed=0;shape=mxgraph.ios7.icons.mail;" vertex="1" parent="1">
          <mxGeometry x="509" y="128.5" width="40" height="27" as="geometry" />
        </mxCell>
        <mxCell id="NSwKJbFaISozo3_4gafW-6" value="" style="html=1;verticalLabelPosition=bottom;align=center;labelBackgroundColor=#ffffff;verticalAlign=top;strokeWidth=2;strokeColor=#0080F0;shadow=0;dashed=0;shape=mxgraph.ios7.icons.mail;" vertex="1" parent="1">
          <mxGeometry x="556" y="128.5" width="40" height="27" as="geometry" />
        </mxCell>
        <mxCell id="NSwKJbFaISozo3_4gafW-7" value="Message Queue" style="text;html=1;align=center;verticalAlign=middle;whiteSpace=wrap;rounded=0;" vertex="1" parent="1">
          <mxGeometry x="475" y="68" width="108" height="30" as="geometry" />
        </mxCell>
        <mxCell id="NSwKJbFaISozo3_4gafW-8" value="Database" style="shape=cylinder3;whiteSpace=wrap;html=1;boundedLbl=1;backgroundOutline=1;size=15;" vertex="1" parent="1">
          <mxGeometry x="455" y="257" width="60" height="80" as="geometry" />
        </mxCell>
        <mxCell id="NSwKJbFaISozo3_4gafW-9" style="edgeStyle=none;curved=1;rounded=0;orthogonalLoop=1;jettySize=auto;html=1;entryX=0;entryY=0.5;entryDx=0;entryDy=0;entryPerimeter=0;fontSize=12;startSize=8;endSize=8;" edge="1" parent="1" source="NSwKJbFaISozo3_4gafW-2" target="NSwKJbFaISozo3_4gafW-8">
          <mxGeometry relative="1" as="geometry" />
        </mxCell>
        <mxCell id="NSwKJbFaISozo3_4gafW-12" value="" style="endArrow=block;dashed=1;endFill=0;endSize=12;html=1;rounded=0;fontSize=12;curved=1;exitX=1;exitY=0.5;exitDx=0;exitDy=0;entryX=0;entryY=0.5;entryDx=0;entryDy=0;" edge="1" parent="1" source="NSwKJbFaISozo3_4gafW-1" target="NSwKJbFaISozo3_4gafW-3">
          <mxGeometry width="160" relative="1" as="geometry">
            <mxPoint x="351" y="155" as="sourcePoint" />
            <mxPoint x="511" y="155" as="targetPoint" />
          </mxGeometry>
        </mxCell>
        <mxCell id="NSwKJbFaISozo3_4gafW-16" style="edgeStyle=none;curved=1;rounded=0;orthogonalLoop=1;jettySize=auto;html=1;entryX=0.5;entryY=0;entryDx=0;entryDy=0;fontSize=12;startSize=8;endSize=8;" edge="1" parent="1" source="NSwKJbFaISozo3_4gafW-14" target="NDrtJu7eo3PLSK_r6qdP-1">
          <mxGeometry relative="1" as="geometry" />
        </mxCell>
        <mxCell id="NSwKJbFaISozo3_4gafW-14" value="" style="outlineConnect=0;dashed=0;verticalLabelPosition=bottom;verticalAlign=top;align=center;html=1;shape=mxgraph.aws3.http_protocol;fillColor=#5294CF;gradientColor=none;" vertex="1" parent="1">
          <mxGeometry x="262.5" y="-250" width="63" height="66" as="geometry" />
        </mxCell>
        <mxCell id="NSwKJbFaISozo3_4gafW-15" value="" style="swimlane;startSize=0;" vertex="1" parent="1">
          <mxGeometry x="173" y="-86" width="471" height="469" as="geometry" />
        </mxCell>
      </root>
    </mxGraphModel>
  </diagram>
</mxfile>
